<svg version="1.1" xmlns="http://www.w3.org/2000/svg" viewBox="0 0 605.164214970865 525.7466113070502" width="1210.32842994173" height="1051.4932226141004">
  <!-- svg-source:excalidraw -->
  
  <defs>
    <style class="style-fonts">
      @font-face {
        font-family: "Virgil";
        src: url("https://excalidraw.com/Virgil.woff2");
      }
      @font-face {
        font-family: "Cascadia";
        src: url("https://excalidraw.com/Cascadia.woff2");
      }
    </style>
    
  </defs>
  <rect x="0" y="0" width="605.164214970865" height="525.7466113070502" fill="#ffffff"></rect><g stroke-linecap="round"><g transform="translate(57.1680877628076 474.23859363921076) rotate(0 0 -232.11929681960538)"><path d="M0 0 C0 -77.37, 0 -386.87, 0 -464.24 M0 0 C0 -77.37, 0 -386.87, 0 -464.24" stroke="#1e1e1e" stroke-width="1" fill="none"></path></g><g transform="translate(57.1680877628076 474.23859363921076) rotate(0 0 -232.11929681960538)"><path d="M0 -464.24 L6.34 -450.64 L-6.34 -450.64 L0 -464.24" stroke="none" stroke-width="0" fill="#1e1e1e" fill-rule="evenodd"></path><path d="M0 -464.24 C1.5 -461.02, 3 -457.81, 6.34 -450.64 M0 -464.24 C1.5 -461.01, 3.01 -457.79, 6.34 -450.64 M6.34 -450.64 C2.14 -450.64, -2.07 -450.64, -6.34 -450.64 M6.34 -450.64 C2.88 -450.64, -0.58 -450.64, -6.34 -450.64 M-6.34 -450.64 C-4.8 -453.95, -3.26 -457.25, 0 -464.24 M-6.34 -450.64 C-4.99 -453.53, -3.65 -456.42, 0 -464.24 M0 -464.24 C0 -464.24, 0 -464.24, 0 -464.24 M0 -464.24 C0 -464.24, 0 -464.24, 0 -464.24" stroke="#1e1e1e" stroke-width="1" fill="none"></path></g></g><mask></mask><g stroke-linecap="round"><g transform="translate(58.25275737411425 474.23859363921076) rotate(0 268.4557287983754 0)"><path d="M0 0 C89.49 0, 447.43 0, 536.91 0 M0 0 C89.49 0, 447.43 0, 536.91 0" stroke="#1e1e1e" stroke-width="1" fill="none"></path></g><g transform="translate(58.25275737411425 474.23859363921076) rotate(0 268.4557287983754 0)"><path d="M536.91 0 L523.32 6.34 L523.32 -6.34 L536.91 0" stroke="none" stroke-width="0" fill="#1e1e1e" fill-rule="evenodd"></path><path d="M536.91 0 C532.35 2.13, 527.8 4.25, 523.32 6.34 M536.91 0 C533.89 1.41, 530.86 2.82, 523.32 6.34 M523.32 6.34 C523.32 1.65, 523.32 -3.03, 523.32 -6.34 M523.32 6.34 C523.32 3.8, 523.32 1.27, 523.32 -6.34 M523.32 -6.34 C528.23 -4.05, 533.15 -1.76, 536.91 0 M523.32 -6.34 C528.65 -3.85, 533.98 -1.37, 536.91 0 M536.91 0 C536.91 0, 536.91 0, 536.91 0 M536.91 0 C536.91 0, 536.91 0, 536.91 0" stroke="#1e1e1e" stroke-width="1" fill="none"></path></g></g><mask></mask><g transform="translate(286.7387834451984 480.7466113070502) rotate(0 27.496002197265625 17.5)"><text x="27.496002197265625" y="0" font-family="Virgil, Segoe UI Emoji" font-size="28px" fill="#1e1e1e" text-anchor="middle" style="white-space: pre;" direction="ltr" dominant-baseline="text-before-edge">time</text></g><g transform="translate(-154.74801188407133 229.10326148392656) rotate(269.88014199003607 182.63002014160156 17.5)"><text x="182.63002014160156" y="0" font-family="Virgil, Segoe UI Emoji" font-size="28px" fill="#1e1e1e" text-anchor="middle" style="white-space: pre;" direction="ltr" dominant-baseline="text-before-edge">amount of subject learned</text></g><g stroke-linecap="round"><g transform="translate(59.33742698542068 473.1539240279043) rotate(0 264.65938515880237 -34.167092756156876)"><path d="M0 0 C88.22 -11.39, 441.1 -56.95, 529.32 -68.33" stroke="#e03131" stroke-width="1.5" fill="none" stroke-dasharray="8 9"></path></g></g><mask></mask><g stroke-linecap="round"><g transform="translate(58.25275737411414 474.23859363921076) rotate(0 266.82872438141555 -213.67991342739373)"><path d="M0 0 C26.76 -55.68, 71.59 -262.85, 160.53 -334.08 C249.47 -405.3, 471.47 -411.81, 533.66 -427.36" stroke="#2f9e44" stroke-width="1.5" fill="none" stroke-dasharray="8 9"></path></g></g><mask></mask><g transform="translate(34.71391109533553 152.77807423585264) rotate(299.31178099501284 96.82399749755858 35)"><text x="96.8239974975586" y="0" font-family="Virgil, Segoe UI Emoji" font-size="28px" fill="#2f9e44" text-anchor="middle" style="white-space: pre;" direction="ltr" dominant-baseline="text-before-edge">Actual steep </text><text x="96.8239974975586" y="35" font-family="Virgil, Segoe UI Emoji" font-size="28px" fill="#2f9e44" text-anchor="middle" style="white-space: pre;" direction="ltr" dominant-baseline="text-before-edge">learning curve</text></g><g transform="translate(216.65755050137165 325.74794569692745) rotate(352.8383448046874 146.7480010986328 52.5)"><text x="146.7480010986328" y="0" font-family="Virgil, Segoe UI Emoji" font-size="28px" fill="#e03131" text-anchor="middle" style="white-space: pre;" direction="ltr" dominant-baseline="text-before-edge">What people mean</text><text x="146.7480010986328" y="35" font-family="Virgil, Segoe UI Emoji" font-size="28px" fill="#e03131" text-anchor="middle" style="white-space: pre;" direction="ltr" dominant-baseline="text-before-edge">when they say</text><text x="146.7480010986328" y="70" font-family="Virgil, Segoe UI Emoji" font-size="28px" fill="#e03131" text-anchor="middle" style="white-space: pre;" direction="ltr" dominant-baseline="text-before-edge">"steep learning curve"</text></g></svg>