<svg fill="none" height="371" stroke-linecap="square" stroke-miterlimit="10" viewBox="0 0 600 371" width="600" xmlns="http://www.w3.org/2000/svg" xmlns:xlink="http://www.w3.org/1999/xlink"><clipPath id="a"><path d="m72.55 24.55h508.9v309.9h-508.9z"/></clipPath><path d="m0 0h600v371h-600z" fill="#fff"/><path d="m72.5 334.5h509" stroke="#333" stroke-linecap="butt"/><path d="m72.5 256.5h509" stroke="#ccc" stroke-linecap="butt"/><path d="m72.5 179.5h509" stroke="#ccc" stroke-linecap="butt"/><path d="m72.5 102.5h509" stroke="#ccc" stroke-linecap="butt"/><path d="m72.5 24.5h509" stroke="#ccc" stroke-linecap="butt"/><path clip-path="url(#a)" d="m168 334h-62v-280c0-1.10457.89543-2 2-2h58c1.10457 0 2 .89543 2 2z"/><path clip-path="url(#a)" d="m168 334h-62v-280c0-1.10457.89543-2 2-2h58c1.10457 0 2 .89543 2 2z" fill="#4f81bd"/><path clip-path="url(#a)" d="m263 334h-62v-298c0-1.10457.89543-2 2-2h58c1.10458 0 2 .89543 2 2z"/><path clip-path="url(#a)" d="m263 334h-62v-298c0-1.10457.89543-2 2-2h58c1.10458 0 2 .89543 2 2z" fill="#4f81bd"/><path clip-path="url(#a)" d="m358 334h-62v-233c0-1.10457.89542-2 2-2h58c1.10458 0 2 .89543 2 2z"/><path clip-path="url(#a)" d="m358 334h-62v-233c0-1.10457.89542-2 2-2h58c1.10458 0 2 .89543 2 2z" fill="#4f81bd"/><path clip-path="url(#a)" d="m453 334h-62v-224c0-1.10457.89542-2 2-2h58c1.10458 0 2 .89543 2 2z"/><path clip-path="url(#a)" d="m453 334h-62v-224c0-1.10457.89542-2 2-2h58c1.10458 0 2 .89543 2 2z" fill="#4f81bd"/><path clip-path="url(#a)" d="m548 334h-62v-242c0-1.10457.89542-2 2-2h58c1.10455 0 2 .89543 2 2z"/><path clip-path="url(#a)" d="m548 334h-62v-242c0-1.10457.89542-2 2-2h58c1.10455 0 2 .89543 2 2z" fill="#4f81bd"/><g fill="#000"><path d="m20.393763 228.23438q.125 0 .203125.01562.078125.01562.125.04688.046875.01562.078125.0625.015625.03124.015625.07812v2.14062h6.578125q.046875 0 .09375.03126.03125.01562.046875.07812.015625.04688.03125.14062.015625.09376.015625.25 0 .14063-.015625.25-.015625.09376-.03125.15626-.015625.04687-.046875.07812-.046875.01562-.09375.01562h-6.578125v2.14063q0 .04687-.015625.07813-.03125.03124-.078125.0625-.046875.01562-.125.03124-.078125.01563-.203125.01563-.109375 0-.1875-.01563-.09375-.01562-.140625-.03124-.046875-.03126-.0625-.0625-.03125-.03126-.03125-.07813v-5.28125q0-.04688.03125-.07812.015625-.04688.0625-.0625.046875-.03126.140625-.04688.078125-.01562.1875-.01562zm6.984375-4.3125q.0625.03124.109375.07812.03125.03125.0625.10938.015625.0625.015625.1875.015625.10937.015625.28124 0 .125 0 .23438 0 .09375-.015625.17188-.015625.0625-.03125.10937-.015625.04687-.03125.07813-.03125.03124-.0625.0625-.03125.01562-.078125.03124l-7.03125 2.48438q-.140625.04688-.21875.04688-.078125 0-.109375-.04688-.046875-.0625-.0625-.17188-.015625-.125-.015625-.3125 0-.17187.015625-.26562.015625-.09375.046875-.14062.015625-.0625.046875-.07813.03125-.03125.09375-.0625l6.390625-2.17187-6.375-2.125q-.0625-.01563-.09375-.03126-.046875-.03124-.0625-.07812-.03125-.0625-.046875-.17188-.015625-.10937-.015625-.28124 0-.1875.015625-.28126.015625-.10937.0625-.14062.046875-.04688.125-.03125.078125 0 .203125.04687zm-1.953125-11q.53125 0 .953125.20312.40625.1875.703125.54688.28125.34374.4375.8125.140625.46874.140625 1.01562 0 .375-.0625.70312-.0625.32813-.15625.57813-.09375.25-.1875.4375-.109375.17187-.171875.23437-.078125.0625-.1875.09376-.109375.03124-.28125.03124-.140625 0-.21875 0-.09375-.01562-.140625-.03124-.046875-.03126-.0625-.0625-.03125-.04688-.03125-.09376 0-.07812.109375-.21874.09375-.15626.21875-.39063.109375-.23437.21875-.5625.09375-.32813.09375-.76563 0-.32812-.078125-.59374-.09375-.28126-.25-.46876-.171875-.20312-.40625-.3125-.234375-.10937-.53125-.10937-.328125 0-.546875.15625-.234375.14062-.40625.39062-.171875.23438-.3125.54688-.140625.29688-.296875.625-.15625.3125-.328125.625-.1875.29688-.421875.54688-.25.23437-.578125.39062-.34375.14062-.796875.14062-.484375 0-.84375-.17187-.375-.17187-.625-.46875-.265625-.3125-.390625-.73438-.125-.4375-.125-.92187 0-.25.046875-.5.03125-.26563.109375-.48437.078125-.23438.171875-.40626.078125-.17187.140625-.21874.046875-.0625.078125-.07813.03125-.03125.09375-.03125.046875-.01562.125-.01562.0625-.01563.171875-.01563.109375 0 .1875.01563.078125 0 .140625.03124.046875.01563.078125.04688.03125.03125.03125.0625 0 .0625-.078125.20312-.09375.14063-.1875.34376-.109375.20312-.1875.46874-.09375.26563-.09375.60938 0 .3125.09375.54688.078125.23437.21875.39062.140625.15625.34375.23438.1875.07812.40625.07812.3125 0 .546875-.14062.21875-.15626.40625-.39063.171875-.25.3125-.5625.140625-.3125.296875-.625.15625-.32813.328125-.64063.171875-.3125.421875-.54687.25-.25.578125-.39063.328125-.15624.78125-.15624zm1.984375-6.35938q.046875 0 .078125.03125.03125.01563.0625.07813.015625.04687.015625.14062.015625.09375.015625.23438 0 .14062-.015625.23437 0 .09375-.015625.15625-.03125.04688-.0625.07812-.03125.01563-.078125.01563h-3.09375q-.453125 0-.71875.07813-.28125.0625-.484375.20312-.203125.125-.296875.34375-.109375.20313-.109375.48437 0 .375.265625.73438.25.35938.75.76562h3.6875q.046875 0 .078125.03126.03125.01562.0625.0625.015625.04687.015625.14062.015625.09375.015625.25 0 .14062-.015625.23438 0 .09374-.015625.15624-.03125.04688-.0625.07813-.03125.01563-.078125.01563h-7.828125q-.046875 0-.078125-.01563-.046875-.03125-.0625-.07813-.03125-.0625-.03125-.15624-.015625-.09376-.015625-.23438 0-.15625.015625-.25 0-.09375.03125-.14062.015625-.04688.0625-.0625.03125-.03126.078125-.03126h3.15625q-.4375-.42187-.65625-.84374-.21875-.42188-.21875-.84376 0-.53124.1875-.89062.171875-.35938.46875-.57812.296875-.23438.703125-.32813.40625-.09375.96875-.09375zm-2.703125-7.35938q.640625 0 1.1875.17188.546875.15625.9375.5.390625.34375.609375.84375.21875.5.21875 1.17187 0 .65626-.1875 1.14063-.203125.48437-.5625.8125-.375.3125-.890625.46875-.53125.15625-1.203125.15625-.640625 0-1.1875-.15625-.546875-.17188-.9375-.5-.390625-.34375-.609375-.84375-.21875-.51563-.21875-1.1875 0-.65625.203125-1.125.1875-.48437.5625-.8125.359375-.32813.890625-.48437.53125-.15626 1.1875-.15626zm.0625 1.01563q-.421875 0-.796875.07813-.390625.07812-.671875.26562-.296875.17188-.453125.48438-.171875.3125-.171875.78124 0 .42188.15625.73438.140625.29688.421875.5.28125.20312.671875.29688.375.09374.828125.09374.421875 0 .8125-.07812.375-.07812.671875-.25.28125-.1875.453125-.5.15625-.3125.15625-.78125 0-.42187-.15625-.73437-.15625-.3125-.421875-.5-.28125-.20313-.65625-.29688-.390625-.09375-.84375-.09375zm-2.65625-10.5q.046875 0 .109375.01563.046875.01562.140625.04687l5.015625 1.54687q.0625.01563.109375.0625.03125.03126.0625.10938.015625.0625.015625.1875.015625.10938.015625.28125 0 .1875-.015625.3125 0 .10937-.015625.1875-.03125.07813-.078125.10937-.046875.03126-.09375.04688l-3.828125 1.10938-.0625.01562.0625.01562 3.828125 1.01563q.0625.03125.109375.0625.03125.03125.0625.10937.015625.07813.015625.20313.015625.125.015625.29687 0 .17188-.015625.29688 0 .10938-.015625.1875-.03125.0625-.078125.10938-.046875.03124-.09375.04687l-5.015625 1.54687q-.09375.03126-.140625.04688-.0625 0-.109375 0-.046875 0-.078125-.01562-.03125-.03126-.046875-.07813-.03125-.0625-.03125-.15625-.015625-.09375-.015625-.23438 0-.15624.015625-.25.015625-.10937.03125-.15624.015625-.0625.0625-.07813.03125-.03125.078125-.04687l4.359375-1.26563.046875-.01563-.046875-.01562-4.359375-1.15625q-.046875-.01563-.078125-.03125-.046875-.03125-.0625-.07812-.015625-.0625-.03125-.15626-.015625-.09374-.015625-.23437 0-.14063.015625-.23437.015625-.09376.03125-.14063.015625-.0625.0625-.07813.03125-.03124.078125-.03124l4.359375-1.26563.046875-.01563h-.046875l-4.359375-1.25q-.046875-.01562-.078125-.03124-.046875-.03126-.0625-.09376-.015625-.0625-.03125-.15624-.015625-.09376-.015625-.25 0-.14063.015625-.21876 0-.09374.03125-.14062.015625-.04688.046875-.0625.03125-.03125.078125-.03125zm3.3125-8.79687q.53125 0 .953125.20312.40625.1875.703125.54688.28125.34374.4375.8125.140625.46874.140625 1.01562 0 .375-.0625.70312-.0625.32813-.15625.57813-.09375.25-.1875.4375-.109375.17187-.171875.23437-.078125.0625-.1875.09376-.109375.03124-.28125.03124-.140625 0-.21875 0-.09375-.01562-.140625-.03124-.046875-.03126-.0625-.0625-.03125-.04688-.03125-.09376 0-.07812.109375-.21874.09375-.15626.21875-.39063.109375-.23437.21875-.5625.09375-.32813.09375-.76563 0-.32812-.078125-.59374-.09375-.28126-.25-.46876-.171875-.20312-.40625-.3125-.234375-.10937-.53125-.10937-.328125 0-.546875.15625-.234375.14062-.40625.39062-.171875.23438-.3125.54688-.140625.29688-.296875.625-.15625.3125-.328125.625-.1875.29688-.421875.54688-.25.23437-.578125.39062-.34375.14062-.796875.14062-.484375 0-.84375-.17187-.375-.17187-.625-.46875-.265625-.3125-.390625-.73438-.125-.4375-.125-.92187 0-.25.046875-.5.03125-.26563.109375-.48437.078125-.23438.171875-.40626.078125-.17187.140625-.21874.046875-.0625.078125-.07813.03125-.03125.09375-.03125.046875-.01562.125-.01562.0625-.01563.171875-.01563.109375 0 .1875.01563.078125 0 .140625.03124.046875.01563.078125.04688.03125.03125.03125.0625 0 .0625-.078125.20312-.09375.14063-.1875.34376-.109375.20312-.1875.46874-.09375.26563-.09375.60938 0 .3125.09375.54688.078125.23437.21875.39062.140625.15625.34375.23438.1875.07812.40625.07812.3125 0 .546875-.14062.21875-.15626.40625-.39063.171875-.25.3125-.5625.140625-.3125.296875-.625.15625-.32813.328125-.64063.171875-.3125.421875-.54687.25-.25.578125-.39063.328125-.15624.78125-.15624zm-.890625-6.3125q.234375 0 .328125.10937.09375.10937.09375.26563v3.45312q.4375 0 .796875-.07812.34375-.09376.609375-.29688.25-.21875.390625-.54688.125-.32812.125-.79687 0-.375-.0625-.67187-.0625-.29688-.140625-.5-.078125-.21876-.140625-.35938-.0625-.14062-.0625-.20312 0-.04688.03125-.07813.015625-.03125.0625-.04687.03125-.01563.109375-.01563.078125-.01563.171875-.01563.078125 0 .140625.01563.046875 0 .09375.01563.046875 0 .078125.01562.03125.01562.078125.04688.03125.03124.109375.20312.0625.15625.140625.40625.0625.25.109375.57813.0625.32812.0625.70312 0 .65625-.171875 1.15625-.1875.48437-.546875.8125-.359375.32813-.890625.5-.546875.17187-1.265625.17187-.671875 0-1.21875-.17187-.546875-.17187-.921875-.5-.375-.34375-.578125-.8125-.203125-.46875-.203125-1.04687 0-.625.203125-1.0625.203125-.4375.546875-.71876.328125-.28124.78125-.40624.453125-.125.96875-.125zm-.28125.96874q-.765625-.01562-1.1875.34376-.4375.34374-.4375 1.04687 0 .35937.140625.625.125.26563.34375.45313.21875.17187.515625.28124.296875.09376.625.10938zm1.71875-6.78124q.40625 0 .71875.15624.3125.14063.53125.42188.21875.26562.328125.65625.109375.375.109375.82813 0 .28124-.046875.54687-.03125.25-.09375.45313-.078125.20312-.15625.34374-.078125.14063-.125.20313-.0625.0625-.171875.09375-.109375.03125-.28125.03125-.109375 0-.1875-.01563-.078125-.01562-.125-.03124-.046875-.01563-.0625-.04688-.03125-.03125-.03125-.07812 0-.0625.078125-.1875.078125-.125.171875-.3125.09375-.1875.1875-.4375.078125-.25.078125-.57813 0-.25-.046875-.4375-.0625-.20313-.15625-.34375-.109375-.15625-.265625-.23438-.171875-.07812-.375-.07812-.234375 0-.375.10938-.15625.10937-.265625.29687-.125.1875-.21875.42187-.09375.23438-.1875.48438-.109375.25-.234375.5-.125.23438-.296875.42188-.1875.1875-.4375.29687-.25.10937-.609375.10937-.3125 0-.59375-.10937-.28125-.125-.484375-.35937-.21875-.25-.34375-.60938-.140625-.35938-.140625-.84375 0-.20313.046875-.40625.03125-.21875.078125-.39062.046875-.17188.109375-.28126.0625-.125.109375-.1875.046875-.0625.09375-.07812.03125-.03125.078125-.03125.03125-.01563.109375-.01563.0625-.01562.15625-.01562.09375 0 .171875.01562.0625 0 .109375.03126.046875.01562.078125.04687.015625.01563.015625.0625 0 .04687-.0625.15625-.0625.09375-.140625.25-.078125.15625-.140625.375-.0625.20312-.0625.48438 0 .25.0625.4375.046875.1875.15625.3125.09375.10937.234375.17187.140625.0625.3125.0625.234375 0 .390625-.10937.140625-.125.265625-.3125.109375-.1875.203125-.42188.09375-.25.203125-.5.09375-.25.21875-.48438.125-.25.296875-.4375.171875-.1875.421875-.29687.25-.10937.59375-.10937zm0-6q.40625 0 .71875.15624.3125.14063.53125.42188.21875.26562.328125.65625.109375.375.109375.82813 0 .28124-.046875.54687-.03125.25-.09375.45313-.078125.20312-.15625.34374-.078125.14063-.125.20313-.0625.0625-.171875.09375-.109375.03125-.28125.03125-.109375 0-.1875-.01563-.078125-.01562-.125-.03124-.046875-.01563-.0625-.04688-.03125-.03125-.03125-.07812 0-.0625.078125-.1875.078125-.125.171875-.3125.09375-.1875.1875-.4375.078125-.25.078125-.57813 0-.25-.046875-.4375-.0625-.20313-.15625-.34375-.109375-.15625-.265625-.23438-.171875-.07812-.375-.07812-.234375 0-.375.10938-.15625.10937-.265625.29687-.125.1875-.21875.42187-.09375.23438-.1875.48438-.109375.25-.234375.5-.125.23438-.296875.42188-.1875.1875-.4375.29687-.25.10937-.609375.10937-.3125 0-.59375-.10937-.28125-.125-.484375-.35937-.21875-.25-.34375-.60938-.140625-.35938-.140625-.84375 0-.20313.046875-.40625.03125-.21875.078125-.39062.046875-.17188.109375-.28126.0625-.125.109375-.1875.046875-.0625.09375-.07812.03125-.03125.078125-.03125.03125-.01563.109375-.01563.0625-.01562.15625-.01562.09375 0 .171875.01562.0625 0 .109375.03126.046875.01562.078125.04687.015625.01563.015625.0625 0 .04687-.0625.15625-.0625.09375-.140625.25-.078125.15625-.140625.375-.0625.20312-.0625.48438 0 .25.0625.4375.046875.1875.15625.3125.09375.10937.234375.17187.140625.0625.3125.0625.234375 0 .390625-.10937.140625-.125.265625-.3125.109375-.1875.203125-.42188.09375-.25.203125-.5.09375-.25.21875-.48438.125-.25.296875-.4375.171875-.1875.421875-.29687.25-.10937.59375-.10937zm1.4375-3.65626q.046875 0 .078125.03126.03125.01562.0625.0625.015625.04687.015625.14062.015625.09375.015625.25 0 .14062-.015625.23438 0 .09374-.015625.15624-.03125.04688-.0625.07813-.03125.01563-.078125.01563h-5.28125q-.046875 0-.078125-.01563-.03125-.03125-.046875-.07813-.03125-.0625-.046875-.15624-.015625-.09376-.015625-.23438 0-.15625.015625-.25.015625-.09375.046875-.14062.015625-.04688.046875-.0625.03125-.03126.078125-.03126zm-7.0625-.10937q.34375 0 .46875.125.125.125.125.46875 0 .34375-.125.46875-.125.125-.453125.125-.34375 0-.46875-.125-.125-.125-.125-.48437 0-.32813.125-.45313.125-.125.453125-.125zm4.359375-7.82813q.640625 0 1.1875.17188.546875.15625.9375.5.390625.34375.609375.84375.21875.5.21875 1.17187 0 .65626-.1875 1.14063-.203125.48437-.5625.8125-.375.3125-.890625.46875-.53125.15625-1.203125.15625-.640625 0-1.1875-.15625-.546875-.17188-.9375-.5-.390625-.34375-.609375-.84375-.21875-.51563-.21875-1.1875 0-.65625.203125-1.125.1875-.48437.5625-.8125.359375-.32813.890625-.48437.53125-.15626 1.1875-.15626zm.0625 1.01563q-.421875 0-.796875.07813-.390625.07812-.671875.26562-.296875.17188-.453125.48438-.171875.3125-.171875.78124 0 .42188.15625.73438.140625.29688.421875.5.28125.20312.671875.29688.375.09374.828125.09374.421875 0 .8125-.07812.375-.07812.671875-.25.28125-.1875.453125-.5.15625-.3125.15625-.78125 0-.42187-.15625-.73437-.15625-.3125-.421875-.5-.28125-.20313-.65625-.29688-.390625-.09375-.84375-.09375zm2.640625-7.65625q.046875 0 .078125.03125.03125.01563.0625.07813.015625.04687.015625.14062.015625.09375.015625.23438 0 .14062-.015625.23437 0 .09375-.015625.15625-.03125.04688-.0625.07812-.03125.01563-.078125.01563h-3.09375q-.453125 0-.71875.07813-.28125.0625-.484375.20312-.203125.125-.296875.34375-.109375.20313-.109375.48437 0 .375.265625.73438.25.35938.75.76562h3.6875q.046875 0 .078125.03126.03125.01562.0625.0625.015625.04687.015625.14062.015625.09375.015625.25 0 .14062-.015625.23438 0 .09374-.015625.15624-.03125.04688-.0625.07813-.03125.01563-.078125.01563h-5.28125q-.046875 0-.078125-.01563-.03125-.03125-.046875-.07813-.03125-.04687-.046875-.125-.015625-.09374-.015625-.23437 0-.125.015625-.20313.015625-.09374.046875-.14062.015625-.04688.046875-.0625.03125-.01562.078125-.01562h.703125q-.5-.45313-.734375-.89063-.234375-.4375-.234375-.89063 0-.53124.1875-.89062.171875-.35938.46875-.57812.296875-.23438.703125-.32813.40625-.09375.96875-.09375zm-1.4375-5.76562q.40625 0 .71875.15624.3125.14063.53125.42188.21875.26562.328125.65625.109375.375.109375.82813 0 .28124-.046875.54687-.03125.25-.09375.45313-.078125.20312-.15625.34374-.078125.14063-.125.20313-.0625.0625-.171875.09375-.109375.03125-.28125.03125-.109375 0-.1875-.01563-.078125-.01562-.125-.03124-.046875-.01563-.0625-.04688-.03125-.03125-.03125-.07812 0-.0625.078125-.1875.078125-.125.171875-.3125.09375-.1875.1875-.4375.078125-.25.078125-.57813 0-.25-.046875-.4375-.0625-.20313-.15625-.34375-.109375-.15625-.265625-.23438-.171875-.07812-.375-.07812-.234375 0-.375.10938-.15625.10937-.265625.29687-.125.1875-.21875.42187-.09375.23438-.1875.48438-.109375.25-.234375.5-.125.23438-.296875.42188-.1875.1875-.4375.29687-.25.10937-.609375.10937-.3125 0-.59375-.10937-.28125-.125-.484375-.35937-.21875-.25-.34375-.60938-.140625-.35938-.140625-.84375 0-.20313.046875-.40625.03125-.21875.078125-.39062.046875-.17188.109375-.28126.0625-.125.109375-.1875.046875-.0625.09375-.07812.03125-.03125.078125-.03125.03125-.01563.109375-.01563.0625-.01562.15625-.01562.09375 0 .171875.01562.0625 0 .109375.03126.046875.01562.078125.04687.015625.01563.015625.0625 0 .04687-.0625.15625-.0625.09375-.140625.25-.078125.15625-.140625.375-.0625.20312-.0625.48438 0 .25.0625.4375.046875.1875.15625.3125.09375.10937.234375.17187.140625.0625.3125.0625.234375 0 .390625-.10937.140625-.125.265625-.3125.109375-.1875.203125-.42188.09375-.25.203125-.5.09375-.25.21875-.48438.125-.25.296875-.4375.171875-.1875.421875-.29687.25-.10937.59375-.10937z"/><path d="m66.22188 333.6375q0 .875-.14063 1.59376-.14062.71874-.46875 1.25-.3125.51564-.82812.79688-.51563.28126-1.26563.28126-.71875 0-1.21875-.25-.484376-.26564-.78125-.75-.296876-.5-.421876-1.21876-.125-.73438-.125-1.67188 0-.85936.140626-1.57812.140624-.73438.453124-1.25.328126-.51564.84375-.79688.515626-.28126 1.265626-.28126.71875 0 1.20313.25.48437.25.78125.75.3125.5.4375 1.21876.125.71874.125 1.65624zm-1.03125.07814q0-.57814-.04688-1.01564-.04687-.4531-.125-.79686-.07812-.35938-.20312-.60938-.125-.25-.29688-.40626-.17187-.15624-.40625-.23436-.21875-.07814-.5-.07814-.5 0-.8125.2344-.3125.23436-.5.65624-.171876.40626-.234376.95312-.0625.54688-.0625 1.1875 0 .84374.078126 1.4375.09375.59374.28125.96874.203124.375.5.5469.296874.17186.71875.17186.328124 0 .5625-.09376.25-.10936.42188-.29686.1875-.20314.29687-.48438.125-.28126.1875-.60936.07813-.32814.10938-.71876.03125-.39064.03125-.8125z"/><path d="m59.971874 259.5375q0 .10938-.015624.1875-.015626.07813-.046876.14063-.03125.0625-.078124.09375-.03125.01562-.09375.01562h-4.1875q-.078126 0-.140626-.01562-.0625-.03125-.109374-.07812-.046876-.04688-.0625-.125-.015626-.09376-.015626-.21876 0-.125 0-.20312.015626-.09375.046876-.15625.03125-.07813.0625-.14063.046874-.0625.125-.14062l1.46875-1.5625q.515624-.53125.8125-.95312.3125-.4375.46875-.78126.171874-.35937.21875-.64062.0625-.29688.0625-.54688 0-.25-.078126-.46874-.078124-.23438-.234374-.40626-.15625-.17187-.390626-.26562-.234374-.09375-.546874-.09375-.359376 0-.640626.09375-.28125.09375-.5.21875-.203124.10937-.359374.21875-.140626.09375-.203126.09375-.046874 0-.078124-.01563-.03125-.03124-.0625-.07812-.015626-.0625-.03125-.14062 0-.09376 0-.21876 0-.07812 0-.14062.015624-.07812.015624-.125.015626-.04688.03125-.07812.03125-.04688.09375-.10938.078126-.0625.25-.15625.1875-.10937.4375-.20313.265626-.10937.578126-.17187.3125-.07813.65625-.07813.546874 0 .953124.15626.421876.14062.6875.42187.28125.26563.40625.625.140626.35937.140626.76563 0 .35937-.0625.71874-.0625.35938-.265626.78126-.203124.42187-.609374.9375-.390626.5-1.03125 1.17187l-1.203126 1.25h3.296876q.046874 0 .09375.03125.046874.03125.078124.07812.03125.04688.046876.125.015624.07813.015624.1875zm5.953126-2q0 .60938-.20312 1.09376-.20313.46874-.57813.79687-.375.3125-.89062.48437-.51563.17188-1.156256.17188-.34375 0-.671874-.04688-.3125-.04687-.5625-.125-.234376-.07812-.40625-.14062-.15625-.07812-.203126-.10938-.03125-.04687-.046874-.07812-.015626-.03125-.03125-.07812-.015626-.0625-.03125-.14063 0-.07813 0-.17187 0-.10938 0-.1875.015624-.07813.03125-.125.03125-.04688.0625-.0625.03125-.03126.078124-.03126.0625 0 .171876.07813.125.0625.328124.15625.21875.07812.515626.15625.3125.07813.734374.07813.390626 0 .71875-.09376.328126-.09374.562506-.29687.25-.20313.375-.5.14062-.29687.14062-.73437 0-.35938-.125-.64063-.10937-.28125-.34375-.46875-.23437-.1875-.59375-.26562-.359376-.09376-.875-.09376-.359376 0-.625.03126-.25.03124-.46875.03124-.15625 0-.234376-.0625-.0625-.07812-.0625-.29687v-3.09375q0-.1875.078126-.28125.09375-.09375.265624-.09375h3.359376q.04688 0 .09375.03125.04688.01563.0625.07813.03125.04687.04688.125.01562.07812.01562.1875 0 .21874-.0625.34374-.04687.10938-.15625.10938h-2.828126v2.125q.203126-.03125.40625-.03125.21875-.01563.5-.01563.65625 0 1.140626.15626.48438.15624.8125.45312.32813.28125.48438.6875.17187.39062.17187.89062z"/><path d="m59.925 180.0625q0 .60938-.203126 1.09375-.203124.46875-.578124.79687-.375.3125-.890626.48438-.515624.17188-1.15625.17188-.34375 0-.671874-.04688-.3125-.04688-.5625-.125-.234376-.07812-.40625-.14062-.15625-.07813-.203126-.10938-.03125-.04688-.046874-.07812-.015626-.03126-.03125-.07813-.015626-.0625-.03125-.14063 0-.07812 0-.17187 0-.10937 0-.1875.015624-.07813.03125-.125.03125-.04687.0625-.0625.03125-.03125.078124-.03125.0625 0 .171876.07812.125.0625.328124.15626.21875.07812.515626.15624.3125.07813.734374.07813.390626 0 .71875-.09375.328126-.09375.5625-.29688.25-.20312.375-.5.140626-.29687.140626-.73437 0-.35937-.125-.64063-.109376-.28124-.34375-.46874-.234376-.1875-.59375-.26563-.359376-.09375-.875-.09375-.359376 0-.625.03125-.25.03125-.46875.03125-.15625 0-.234376-.0625-.0625-.07812-.0625-.29688v-3.09374q0-.1875.078126-.28126.09375-.09374.265624-.09374h3.359376q.046874 0 .09375.03124.046874.01563.0625.07813.03125.04687.046874.125.015626.07813.015626.1875 0 .21875-.0625.34375-.046876.10938-.15625.10938h-2.828126v2.125q.203126-.03126.40625-.03126.21875-.01562.5-.01562.65625 0 1.140626.15625.484374.15625.8125.45313.328124.28124.484374.6875.171876.39062.171876.89062zm6.29688-1.375q0 .875-.14063 1.59375-.14062.71875-.46875 1.25-.3125.51563-.82812.79687-.51563.28126-1.26563.28126-.71875 0-1.21875-.25-.484376-.26563-.78125-.75-.296876-.5-.421876-1.21876-.125-.73437-.125-1.67187 0-.85937.140626-1.57813.140624-.73437.453124-1.25.328126-.51562.84375-.79687.515626-.28125 1.265626-.28125.71875 0 1.20313.25.48437.25.78125.75.3125.5.4375 1.21875.125.71875.125 1.65625zm-1.03125.07812q0-.57812-.04688-1.01562-.04687-.45312-.125-.79688-.07812-.35937-.20312-.60937-.125-.25-.29688-.40625-.17187-.15625-.40625-.23438-.21875-.07812-.5-.07812-.5 0-.8125.23438-.3125.23437-.5.65624-.171876.40626-.234376.95313-.0625.54687-.0625 1.1875 0 .84375.078126 1.4375.09375.59375.28125.96875.203124.375.5.54688.296874.17187.71875.17187.328124 0 .5625-.09375.25-.10938.42188-.29688.1875-.20312.29687-.48437.125-.28125.1875-.60937.07813-.32813.10938-.71876.03125-.39062.03125-.8125z"/><path d="m60.08125 97.86875q0 .10938-.015626.20313 0 .07812-.015624.15625-.015626.07812-.046876.15625-.03125.07812-.0625.15625l-2.734374 6.29687q-.03125.0625-.078126.10938-.03125.04687-.109374.07812-.0625.01563-.171876.01563-.09375.01562-.25.01562-.203124 0-.3125-.01562-.109374-.01563-.15625-.04688-.046874-.04687-.046874-.09375 0-.0625.046874-.14062l2.859376-6.4375h-3.640626q-.109374 0-.171874-.10938-.046876-.125-.046876-.32812 0-.10938.015626-.1875.015624-.09375.046874-.14063.03125-.0625.0625-.07812.046876-.03125.09375-.03125h4.421876q.078124 0 .140624.01562.0625.01563.09375.07813.03125.04687.046876.125.03125.07812.03125.20312zm5.84375 4.71875q0 .60938-.20312 1.09375-.20313.46875-.57813.79688-.375.3125-.89062.48437-.51563.17188-1.156256.17188-.34375 0-.671874-.04688-.3125-.04687-.5625-.125-.234376-.07812-.40625-.14062-.15625-.07813-.203126-.10938-.03125-.04687-.046874-.07812-.015626-.03125-.03125-.07813-.015626-.0625-.03125-.14062 0-.07813 0-.17188 0-.10937 0-.1875.015624-.07812.03125-.125.03125-.04687.0625-.0625.03125-.03125.078124-.03125.0625 0 .171876.07813.125.0625.328124.15625.21875.07812.515626.15625.3125.07812.734374.07812.390626 0 .71875-.09375.328126-.09375.562506-.29687.25-.20313.375-.5.14062-.29688.14062-.73438 0-.35937-.125-.64062-.10937-.28125-.34375-.46875-.23437-.1875-.59375-.26563-.359376-.09375-.875-.09375-.359376 0-.625.03125-.25.03125-.46875.03125-.15625 0-.234376-.0625-.0625-.07812-.0625-.29687v-3.09375q0-.1875.078126-.28125.09375-.09375.265624-.09375h3.359376q.04688 0 .09375.03125.04688.01562.0625.07812.03125.04688.04688.125.01562.07813.01562.1875 0 .21875-.0625.34375-.04687.10938-.15625.10938h-2.828126v2.125q.203126-.03125.40625-.03125.21875-.01563.5-.01563.65625 0 1.140626.15625.48438.15625.8125.45313.32813.28125.48438.6875.17187.39062.17187.89062z"/><path d="m53.9875 27.14375q0 .125-.03125.203124-.015626.0625-.046876.109376-.015624.046874-.0625.078124-.03125.015626-.078124.015626h-3.953126q-.046874 0-.078124-.015626-.03125-.03125-.078126-.078124-.03125-.046876-.046874-.109376-.015626-.078124-.015626-.203124 0-.09375.015626-.171876.015624-.078124.046874-.125.03125-.046874.0625-.078124.046876-.03125.09375-.03125h1.578126v-5.765626l-1.46875.875q-.109376.0625-.1875.078126-.0625 0-.109376-.03125-.03125-.046876-.046874-.125-.015626-.09375-.015626-.21875 0-.109376 0-.171876.015626-.078124.03125-.125.03125-.046874.0625-.078124.03125-.03125.078126-.078126l1.75-1.109374q.015624-.015626.046874-.03125.046876-.015626.09375-.015626.0625-.015624.125-.015624.078126-.015626.171876-.015626.140624 0 .234374.015626.09375.015624.140626.03125.0625.015624.078124.0625.015626.03125.015626.0625v6.65625h1.375q.046874 0 .078124.03125.046876.03125.078126.078124.03125.046876.046874.125.015626.078126.015626.171876zm6.234374-3.40625q0 .875-.140624 1.59375-.140626.71875-.46875 1.25-.3125.515624-.828126.796874-.515624.28125-1.265624.28125-.71875 0-1.21875-.25-.484376-.265624-.78125-.75-.296876-.5-.421876-1.21875-.125-.734374-.125-1.671874 0-.859376.140626-1.578126.140624-.734374.453124-1.25.328126-.515624.84375-.796874.515626-.28125 1.265626-.28125.71875 0 1.203124.25.484376.25.78125.75.3125.5.4375 1.21875.125.71875.125 1.65625zm-1.03125.078124q0-.578124-.046874-1.015624-.046876-.453126-.125-.796876-.078126-.359374-.203126-.609374-.125-.25-.296874-.40625-.171876-.15625-.40625-.234376-.21875-.078124-.5-.078124-.5 0-.8125.234374-.3125.234376-.5.65625-.171876.40625-.234376.953126-.0625.546874-.0625 1.1875 0 .84375.078126 1.4375.09375.59375.28125.96875.203124.375.5.546874.296874.171876.71875.171876.328124 0 .5625-.09375.25-.109376.421874-.296876.1875-.203124.296876-.484374.125-.28125.1875-.609376.078124-.328124.109374-.71875.03125-.390624.03125-.8125zm7.031256-.078124q0 .875-.14063 1.59375-.14062.71875-.46875 1.25-.3125.515624-.82812.796874-.51563.28125-1.26563.28125-.71875 0-1.21875-.25-.484376-.265624-.78125-.75-.296876-.5-.421876-1.21875-.125-.734374-.125-1.671874 0-.859376.140626-1.578126.140624-.734374.453124-1.25.328126-.515624.84375-.796874.515626-.28125 1.265626-.28125.71875 0 1.20313.25.48437.25.78125.75.3125.5.4375 1.21875.125.71875.125 1.65625zm-1.03125.078124q0-.578124-.04688-1.015624-.04687-.453126-.125-.796876-.07812-.359374-.20312-.609374-.125-.25-.29688-.40625-.17187-.15625-.40625-.234376-.21875-.078124-.5-.078124-.5 0-.8125.234374-.3125.234376-.5.65625-.171876.40625-.234376.953126-.0625.546874-.0625 1.1875 0 .84375.078126 1.4375.09375.59375.28125.96875.203124.375.5.546874.296874.171876.71875.171876.328124 0 .5625-.09375.25-.109376.42188-.296876.1875-.203124.29687-.484374.125-.28125.1875-.609376.07813-.328124.10938-.71875.03125-.390624.03125-.8125z"/><path d="m130.1789 349.0125q0 .1094-.01563.1875-.01563.07814-.04687.14064-.03126.0625-.07813.09376-.03125.0156-.09375.0156h-4.18751q-.07812 0-.14062-.0156-.0625-.03126-.10938-.07814-.04687-.04686-.0625-.125-.01562-.09376-.01562-.21876 0-.125 0-.2031.01562-.09376.04687-.15626.03125-.07814.0625-.14064.04688-.0625.125-.1406l1.46875-1.5625q.51563-.53126.8125-.95314.31251-.4375.46876-.78126.17187-.35936.21875-.6406.0625-.2969.0625-.5469 0-.25-.07812-.46874-.07813-.23436-.23438-.40626-.15625-.17186-.39063-.2656-.23438-.09376-.54688-.09376-.35937 0-.64062.09376-.28125.09374-.5.21874-.20313.10936-.35938.21876-.14062.09374-.20312.09374-.04688 0-.07813-.01564-.03125-.03124-.0625-.0781-.01562-.0625-.03125-.14064 0-.09376 0-.21876 0-.0781 0-.1406.01563-.07814.01563-.125.01562-.0469.03125-.07814.03125-.04686.09375-.10936.07812-.0625.25-.15626.1875-.10938.4375-.20314.26562-.10936.57812-.17186.3125-.07814.65625-.07814.54689 0 .95313.15626.42188.14064.6875.42188.28126.26562.40626.625.14062.35936.14062.76562 0 .35938-.0625.71874-.0625.3594-.26562.78126-.20313.42188-.60938.9375-.39062.5-1.03126 1.17188l-1.20312 1.25h3.29688q.04688 0 .09375.03126.04687.03124.07813.0781.03124.0469.04687.125.01563.07814.01563.1875zm6.25-3.375q0 .875-.14063 1.59376-.14063.71874-.46875 1.25-.3125.51564-.82812.79688-.51563.28126-1.26563.28126-.71875 0-1.21875-.25-.48438-.26564-.78125-.75-.29687-.5-.42187-1.21876-.125-.73438-.125-1.67188 0-.85936.14062-1.57812.14062-.73438.45312-1.25.32813-.51564.84376-.79688.51562-.28126 1.26562-.28126.71875 0 1.20312.25.48438.25.78126.75.3125.5.4375 1.21876.125.71874.125 1.65624zm-1.03126.07814q0-.57814-.04687-1.01564-.04687-.4531-.125-.79686-.07813-.35938-.20313-.60938-.125-.25-.29687-.40626-.17187-.15624-.40625-.23436-.21875-.07814-.5-.07814-.5 0-.8125.2344-.3125.23436-.5.65624-.17188.40626-.23438.95312-.0625.54688-.0625 1.1875 0 .84374.07813 1.4375.09375.59374.28125.96874.20312.375.5.5469.29688.17186.71875.17186.32813 0 .5625-.09376.25-.10936.42187-.29686.1875-.20314.29688-.48438.125-.28126.1875-.60936.07812-.32814.10938-.71876.03124-.39064.03124-.8125zm6.79688 3.32812q0 .125-.03125.20314-.01563.0625-.04687.10936-.01563.04688-.0625.07814-.03126.0156-.07813.0156h-3.95313q-.04687 0-.07812-.0156-.03125-.03126-.07812-.07814-.03126-.04686-.04688-.10936-.01562-.07814-.01562-.20314 0-.09376.01562-.17186.01562-.07814.04688-.125.03124-.0469.0625-.07814.04687-.03126.09374-.03126h1.57813v-5.7656l-1.46875.875q-.10938.0625-.1875.0781-.0625 0-.10938-.03124-.03124-.04686-.04687-.125-.01563-.09376-.01563-.21876 0-.10936 0-.17186.01563-.07814.03126-.125.03124-.04688.0625-.07814.03124-.03124.07812-.0781l1.75-1.1094q.01562-.0156.04688-.03124.04687-.01562.09374-.01562.0625-.01564.125-.01564.07813-.0156.17188-.0156.14062 0 .23438.0156.09374.01564.14062.03126.0625.01564.07812.0625.01563.03124.01563.0625v6.65624h1.375q.04687 0 .07813.03126.04687.03124.07812.07814.03125.04686.04688.125.01562.0781.01562.17186zm6.03125-3.6875q0 .5-.0625 1-.04687.5-.1875.96874-.14063.46876-.39063.875-.23437.40626-.59374.71876-.35938.29688-.85938.46874-.48438.1719-1.14062.1719-.25 0-.5-.03126-.23438-.03124-.42188-.07814-.1875-.04686-.3125-.09374-.125-.0625-.1875-.10936-.0625-.0625-.09375-.14064-.01563-.09376-.01563-.25 0-.125 0-.20312.01563-.07814.03126-.10938.01562-.04686.04687-.0625.03125-.01562.07813-.01562.0625 0 .17187.04686.125.0469.29687.09376.1875.04688.42188.09374.25.0469.54688.0469.5625 0 .96874-.21876.42188-.21874.67188-.57814.26562-.375.39062-.85936.125-.5.14063-1.03124-.3125.17186-.75.3125-.4375.1406-1 .1406-.625 0-1.0625-.17186-.42187-.17188-.6875-.46874-.26563-.2969-.375-.70314-.10937-.40626-.10937-.90626 0-.5.14062-.9531.15625-.45314.45312-.7969.3125-.34374.79688-.54686.48438-.20314 1.15625-.20314.46875 0 .82813.125.375.1094.64062.34376.26562.21874.45312.54688.1875.3125.29688.71876.125.3906.17188.875.04687.46874.04687.98436zm-1.01563-.10936q0-.75-.10937-1.26564-.09375-.51562-.29687-.82812-.1875-.3125-.46876-.45314-.28124-.1406-.64062-.1406-.39062 0-.65625.1406-.26563.14064-.4375.375-.17187.21876-.26563.51564-.07812.29686-.07812.60936 0 .34376.0625.625.07812.28126.23438.4844.17187.2031.4375.3125.26562.10936.65624.10936.4375 0 .84376-.125.42187-.14062.71874-.35936z"/><path d="m225.30038 349.0125q0 .1094-.01562.1875-.01563.07814-.04688.14064-.03125.0625-.07812.09376-.03125.0156-.09375.0156h-4.1875q-.07813 0-.14063-.0156-.0625-.03126-.10937-.07814-.04688-.04686-.0625-.125-.01563-.09376-.01563-.21876 0-.125 0-.2031.01563-.09376.04688-.15626.03125-.07814.0625-.14064.04687-.0625.125-.1406l1.46875-1.5625q.51562-.53126.8125-.95314.3125-.4375.46875-.78126.17187-.35936.21875-.6406.0625-.2969.0625-.5469 0-.25-.07813-.46874-.07812-.23436-.23437-.40626-.15625-.17186-.39063-.2656-.23437-.09376-.54687-.09376-.35938 0-.64063.09376-.28125.09374-.5.21874-.20312.10936-.35937.21876-.14063.09374-.20313.09374-.04687 0-.07812-.01564-.03125-.03124-.0625-.0781-.01563-.0625-.03125-.14064 0-.09376 0-.21876 0-.0781 0-.1406.01562-.07814.01562-.125.01563-.0469.03125-.07814.03125-.04686.09375-.10936.07813-.0625.25-.15626.1875-.10938.4375-.20314.26563-.10936.57813-.17186.3125-.07814.65625-.07814.54687 0 .95312.15626.42188.14064.6875.42188.28125.26562.40625.625.14063.35936.14063.76562 0 .35938-.0625.71874-.0625.3594-.26563.78126-.20312.42188-.60937.9375-.39063.5-1.03125 1.17188l-1.20313 1.25h3.29688q.04687 0 .09375.03126.04687.03124.07812.0781.03125.0469.04688.125.01562.07814.01562.1875zm6.25-3.375q0 .875-.14062 1.59376-.14063.71874-.46875 1.25-.3125.51564-.82813.79688-.51562.28126-1.26562.28126-.71875 0-1.21875-.25-.48438-.26564-.78125-.75-.29688-.5-.42188-1.21876-.125-.73438-.125-1.67188 0-.85936.14063-1.57812.14062-.73438.45312-1.25.32813-.51564.84375-.79688.51563-.28126 1.26563-.28126.71875 0 1.20312.25.48438.25.78125.75.3125.5.4375 1.21876.125.71874.125 1.65624zm-1.03125.07814q0-.57814-.04687-1.01564-.04688-.4531-.125-.79686-.07813-.35938-.20313-.60938-.125-.25-.29687-.40626-.17188-.15624-.40625-.23436-.21875-.07814-.5-.07814-.5 0-.8125.2344-.3125.23436-.5.65624-.17188.40626-.23438.95312-.0625.54688-.0625 1.1875 0 .84374.07813 1.4375.09375.59374.28125.96874.20312.375.5.5469.29687.17186.71875.17186.32812 0 .5625-.09376.25-.10936.42187-.29686.1875-.20314.29688-.48438.125-.28126.1875-.60936.07812-.32814.10937-.71876.03125-.39064.03125-.8125zm6.78125 3.29686q0 .1094-.01562.1875-.01563.07814-.04688.14064-.03125.0625-.07812.09376-.03125.0156-.09375.0156h-4.1875q-.07813 0-.14063-.0156-.0625-.03126-.10937-.07814-.04688-.04686-.0625-.125-.01563-.09376-.01563-.21876 0-.125 0-.2031.01563-.09376.04688-.15626.03125-.07814.0625-.14064.04687-.0625.125-.1406l1.46875-1.5625q.51562-.53126.8125-.95314.3125-.4375.46875-.78126.17187-.35936.21875-.6406.0625-.2969.0625-.5469 0-.25-.07813-.46874-.07812-.23436-.23437-.40626-.15625-.17186-.39063-.2656-.23437-.09376-.54687-.09376-.35938 0-.64063.09376-.28125.09374-.5.21874-.20312.10936-.35937.21876-.14063.09374-.20313.09374-.04687 0-.07812-.01564-.03125-.03124-.0625-.0781-.01563-.0625-.03125-.14064 0-.09376 0-.21876 0-.0781 0-.1406.01562-.07814.01562-.125.01563-.0469.03125-.07814.03125-.04686.09375-.10936.07813-.0625.25-.15626.1875-.10938.4375-.20314.26563-.10936.57813-.17186.3125-.07814.65625-.07814.54687 0 .95312.15626.42188.14064.6875.42188.28125.26562.40625.625.14063.35936.14063.76562 0 .35938-.0625.71874-.0625.3594-.26563.78126-.20312.42188-.60937.9375-.39063.5-1.03125 1.17188l-1.20313 1.25h3.29688q.04687 0 .09375.03126.04687.03124.07812.0781.03125.0469.04688.125.01562.07814.01562.1875zm6.25-3.375q0 .875-.14062 1.59376-.14063.71874-.46875 1.25-.3125.51564-.82813.79688-.51562.28126-1.26562.28126-.71875 0-1.21875-.25-.48438-.26564-.78125-.75-.29688-.5-.42188-1.21876-.125-.73438-.125-1.67188 0-.85936.14063-1.57812.14062-.73438.45312-1.25.32813-.51564.84375-.79688.51563-.28126 1.26563-.28126.71875 0 1.20312.25.48438.25.78125.75.3125.5.4375 1.21876.125.71874.125 1.65624zm-1.03125.07814q0-.57814-.04687-1.01564-.04688-.4531-.125-.79686-.07813-.35938-.20313-.60938-.125-.25-.29687-.40626-.17188-.15624-.40625-.23436-.21875-.07814-.5-.07814-.5 0-.8125.2344-.3125.23436-.5.65624-.17188.40626-.23438.95312-.0625.54688-.0625 1.1875 0 .84374.07813 1.4375.09375.59374.28125.96874.20312.375.5.5469.29687.17186.71875.17186.32812 0 .5625-.09376.25-.10936.42187-.29686.1875-.20314.29688-.48438.125-.28126.1875-.60936.07812-.32814.10937-.71876.03125-.39064.03125-.8125z"/><path d="m320.42188 349.0125q0 .1094-.01563.1875-.01563.07814-.04687.14064-.03126.0625-.07813.09376-.03125.0156-.09375.0156h-4.1875q-.07812 0-.14062-.0156-.0625-.03126-.10938-.07814-.04688-.04686-.0625-.125-.01562-.09376-.01562-.21876 0-.125 0-.2031.01562-.09376.04687-.15626.03125-.07814.0625-.14064.04687-.0625.125-.1406l1.46875-1.5625q.51562-.53126.8125-.95314.3125-.4375.46875-.78126.17187-.35936.21875-.6406.0625-.2969.0625-.5469 0-.25-.07812-.46874-.07813-.23436-.23438-.40626-.15625-.17186-.39062-.2656-.23438-.09376-.54688-.09376-.35938 0-.64062.09376-.28126.09374-.5.21874-.20313.10936-.35938.21876-.14062.09374-.20312.09374-.04688 0-.07813-.01564-.03125-.03124-.0625-.0781-.01563-.0625-.03125-.14064 0-.09376 0-.21876 0-.0781 0-.1406.01562-.07814.01562-.125.01563-.0469.03126-.07814.03124-.04686.09374-.10936.07813-.0625.25-.15626.1875-.10938.4375-.20314.26563-.10936.57813-.17186.3125-.07814.65625-.07814.54688 0 .95312.15626.42188.14064.6875.42188.28126.26562.40626.625.14062.35936.14062.76562 0 .35938-.0625.71874-.0625.3594-.26562.78126-.20313.42188-.60938.9375-.39062.5-1.03125 1.17188l-1.20313 1.25h3.29688q.04688 0 .09375.03126.04687.03124.07813.0781.03124.0469.04687.125.01563.07814.01563.1875zm6.25-3.375q0 .875-.14063 1.59376-.14063.71874-.46875 1.25-.3125.51564-.82812.79688-.51563.28126-1.26563.28126-.71875 0-1.21875-.25-.48438-.26564-.78125-.75-.29687-.5-.42187-1.21876-.125-.73438-.125-1.67188 0-.85936.14062-1.57812.14062-.73438.45312-1.25.32813-.51564.84376-.79688.51562-.28126 1.26562-.28126.71875 0 1.20312.25.48438.25.78126.75.3125.5.4375 1.21876.125.71874.125 1.65624zm-1.03126.07814q0-.57814-.04687-1.01564-.04687-.4531-.125-.79686-.07813-.35938-.20313-.60938-.125-.25-.29687-.40626-.17187-.15624-.40625-.23436-.21875-.07814-.5-.07814-.5 0-.8125.2344-.3125.23436-.5.65624-.17188.40626-.23438.95312-.0625.54688-.0625 1.1875 0 .84374.07813 1.4375.09375.59374.28125.96874.20312.375.5.5469.29688.17186.71875.17186.32813 0 .5625-.09376.25-.10936.42187-.29686.1875-.20314.29688-.48438.125-.28126.1875-.60936.07812-.32814.10938-.71876.03124-.39064.03124-.8125zm6.78126 3.29686q0 .1094-.01563.1875-.01563.07814-.04687.14064-.03126.0625-.07813.09376-.03125.0156-.09375.0156h-4.1875q-.07812 0-.14062-.0156-.0625-.03126-.10938-.07814-.04688-.04686-.0625-.125-.01562-.09376-.01562-.21876 0-.125 0-.2031.01562-.09376.04687-.15626.03125-.07814.0625-.14064.04687-.0625.125-.1406l1.46875-1.5625q.51562-.53126.8125-.95314.3125-.4375.46875-.78126.17187-.35936.21875-.6406.0625-.2969.0625-.5469 0-.25-.07812-.46874-.07813-.23436-.23438-.40626-.15625-.17186-.39062-.2656-.23438-.09376-.54688-.09376-.35938 0-.64062.09376-.28126.09374-.5.21874-.20313.10936-.35938.21876-.14062.09374-.20312.09374-.04688 0-.07813-.01564-.03125-.03124-.0625-.0781-.01563-.0625-.03125-.14064 0-.09376 0-.21876 0-.0781 0-.1406.01562-.07814.01562-.125.01563-.0469.03126-.07814.03124-.04686.09374-.10936.07813-.0625.25-.15626.1875-.10938.4375-.20314.26563-.10936.57813-.17186.3125-.07814.65625-.07814.54688 0 .95312.15626.42188.14064.6875.42188.28126.26562.40626.625.14062.35936.14062.76562 0 .35938-.0625.71874-.0625.3594-.26562.78126-.20313.42188-.60938.9375-.39062.5-1.03125 1.17188l-1.20313 1.25h3.29688q.04688 0 .09375.03126.04687.03124.07813.0781.03124.0469.04687.125.01563.07814.01563.1875zm6.01562.03126q0 .125-.03125.20314-.01563.0625-.04687.10936-.01563.04688-.0625.07814-.03126.0156-.07813.0156h-3.95313q-.04687 0-.07812-.0156-.03125-.03126-.07812-.07814-.03126-.04686-.04688-.10936-.01562-.07814-.01562-.20314 0-.09376.01562-.17186.01562-.07814.04688-.125.03124-.0469.0625-.07814.04687-.03126.09374-.03126h1.57813v-5.7656l-1.46875.875q-.10938.0625-.1875.0781-.0625 0-.10938-.03124-.03124-.04686-.04687-.125-.01563-.09376-.01563-.21876 0-.10936 0-.17186.01563-.07814.03126-.125.03124-.04688.0625-.07814.03124-.03124.07812-.0781l1.75-1.1094q.01562-.0156.04688-.03124.04687-.01562.09374-.01562.0625-.01564.125-.01564.07813-.0156.17188-.0156.14062 0 .23438.0156.09374.01564.14062.03126.0625.01564.07812.0625.01563.03124.01563.0625v6.65624h1.375q.04687 0 .07813.03126.04687.03124.07812.07814.03125.04686.04688.125.01562.0781.01562.17186z"/><path d="m415.54337 349.0125q0 .1094-.01563.1875-.01562.07814-.04687.14064-.03125.0625-.07813.09376-.03124.0156-.09374.0156h-4.1875q-.07813 0-.14063-.0156-.0625-.03126-.10937-.07814-.04688-.04686-.0625-.125-.01563-.09376-.01563-.21876 0-.125 0-.2031.01563-.09376.04687-.15626.03126-.07814.0625-.14064.04688-.0625.125-.1406l1.46876-1.5625q.51562-.53126.8125-.95314.3125-.4375.46874-.78126.17188-.35936.21876-.6406.0625-.2969.0625-.5469 0-.25-.07813-.46874-.07813-.23436-.23437-.40626-.15626-.17186-.39063-.2656-.23437-.09376-.54687-.09376-.35938 0-.64063.09376-.28125.09374-.5.21874-.20313.10936-.35937.21876-.14063.09374-.20313.09374-.04687 0-.07813-.01564-.03124-.03124-.0625-.0781-.01562-.0625-.03124-.14064 0-.09376 0-.21876 0-.0781 0-.1406.01562-.07814.01562-.125.01562-.0469.03125-.07814.03125-.04686.09375-.10936.07812-.0625.25-.15626.1875-.10938.4375-.20314.26562-.10936.57812-.17186.3125-.07814.65626-.07814.54687 0 .95312.15626.42188.14064.6875.42188.28125.26562.40625.625.14063.35936.14063.76562 0 .35938-.0625.71874-.0625.3594-.26563.78126-.20313.42188-.60937.9375-.39063.5-1.03126 1.17188l-1.20312 1.25h3.29688q.04687 0 .09374.03126.04688.03124.07813.0781.03125.0469.04687.125.01563.07814.01563.1875zm6.25-3.375q0 .875-.14063 1.59376-.14062.71874-.46874 1.25-.3125.51564-.82813.79688-.51563.28126-1.26563.28126-.71874 0-1.21874-.25-.48438-.26564-.78126-.75-.29687-.5-.42187-1.21876-.125-.73438-.125-1.67188 0-.85936.14063-1.57812.14062-.73438.45312-1.25.32812-.51564.84375-.79688.51563-.28126 1.26563-.28126.71874 0 1.20312.25.48438.25.78125.75.3125.5.4375 1.21876.125.71874.125 1.65624zm-1.03125.07814q0-.57814-.04688-1.01564-.04687-.4531-.125-.79686-.07812-.35938-.20312-.60938-.125-.25-.29688-.40626-.17187-.15624-.40624-.23436-.21876-.07814-.5-.07814-.5 0-.8125.2344-.3125.23436-.5.65624-.17188.40626-.23438.95312-.0625.54688-.0625 1.1875 0 .84374.07812 1.4375.09376.59374.28126.96874.20312.375.5.5469.29687.17186.71874.17186.32813 0 .5625-.09376.25-.10936.42188-.29686.1875-.20314.29688-.48438.125-.28126.1875-.60936.07812-.32814.10937-.71876.03125-.39064.03125-.8125zm6.78125 3.29686q0 .1094-.01563.1875-.01562.07814-.04687.14064-.03125.0625-.07813.09376-.03124.0156-.09374.0156h-4.1875q-.07813 0-.14063-.0156-.0625-.03126-.10937-.07814-.04688-.04686-.0625-.125-.01563-.09376-.01563-.21876 0-.125 0-.2031.01563-.09376.04687-.15626.03126-.07814.0625-.14064.04688-.0625.125-.1406l1.46876-1.5625q.51562-.53126.8125-.95314.3125-.4375.46874-.78126.17188-.35936.21876-.6406.0625-.2969.0625-.5469 0-.25-.07813-.46874-.07813-.23436-.23437-.40626-.15626-.17186-.39063-.2656-.23437-.09376-.54687-.09376-.35938 0-.64063.09376-.28125.09374-.5.21874-.20313.10936-.35937.21876-.14063.09374-.20313.09374-.04687 0-.07813-.01564-.03124-.03124-.0625-.0781-.01562-.0625-.03124-.14064 0-.09376 0-.21876 0-.0781 0-.1406.01562-.07814.01562-.125.01562-.0469.03125-.07814.03125-.04686.09375-.10936.07812-.0625.25-.15626.1875-.10938.4375-.20314.26562-.10936.57812-.17186.3125-.07814.65626-.07814.54687 0 .95312.15626.42188.14064.6875.42188.28125.26562.40625.625.14063.35936.14063.76562 0 .35938-.0625.71874-.0625.3594-.26563.78126-.20313.42188-.60937.9375-.39063.5-1.03126 1.17188l-1.20312 1.25h3.29688q.04687 0 .09374.03126.04688.03124.07813.0781.03125.0469.04687.125.01563.07814.01563.1875zm6 0q0 .1094-.01563.1875-.01562.07814-.04687.14064-.03125.0625-.07813.09376-.03124.0156-.09374.0156h-4.1875q-.07813 0-.14063-.0156-.0625-.03126-.10937-.07814-.04688-.04686-.0625-.125-.01563-.09376-.01563-.21876 0-.125 0-.2031.01563-.09376.04687-.15626.03126-.07814.0625-.14064.04688-.0625.125-.1406l1.46876-1.5625q.51562-.53126.8125-.95314.3125-.4375.46874-.78126.17188-.35936.21876-.6406.0625-.2969.0625-.5469 0-.25-.07813-.46874-.07813-.23436-.23437-.40626-.15626-.17186-.39063-.2656-.23437-.09376-.54687-.09376-.35938 0-.64063.09376-.28125.09374-.5.21874-.20313.10936-.35937.21876-.14063.09374-.20313.09374-.04687 0-.07813-.01564-.03124-.03124-.0625-.0781-.01562-.0625-.03124-.14064 0-.09376 0-.21876 0-.0781 0-.1406.01562-.07814.01562-.125.01562-.0469.03125-.07814.03125-.04686.09375-.10936.07812-.0625.25-.15626.1875-.10938.4375-.20314.26562-.10936.57812-.17186.3125-.07814.65626-.07814.54687 0 .95312.15626.42188.14064.6875.42188.28125.26562.40625.625.14063.35936.14063.76562 0 .35938-.0625.71874-.0625.3594-.26563.78126-.20313.42188-.60937.9375-.39063.5-1.03126 1.17188l-1.20312 1.25h3.29688q.04687 0 .09374.03126.04688.03124.07813.0781.03125.0469.04687.125.01563.07814.01563.1875z"/><path d="m510.66486 349.0125q0 .1094-.01563.1875-.01563.07814-.04687.14064-.03126.0625-.07813.09376-.03125.0156-.09375.0156h-4.1875q-.07812 0-.14062-.0156-.0625-.03126-.10938-.07814-.04688-.04686-.0625-.125-.01562-.09376-.01562-.21876 0-.125 0-.2031.01562-.09376.04687-.15626.03125-.07814.0625-.14064.04687-.0625.125-.1406l1.46875-1.5625q.51562-.53126.8125-.95314.3125-.4375.46875-.78126.17187-.35936.21875-.6406.0625-.2969.0625-.5469 0-.25-.07812-.46874-.07813-.23436-.23438-.40626-.15625-.17186-.39062-.2656-.23438-.09376-.54688-.09376-.35938 0-.64062.09376-.28126.09374-.5.21874-.20313.10936-.35938.21876-.14062.09374-.20312.09374-.04688 0-.07813-.01564-.03125-.03124-.0625-.0781-.01563-.0625-.03125-.14064 0-.09376 0-.21876 0-.0781 0-.1406.01562-.07814.01562-.125.01563-.0469.03126-.07814.03124-.04686.09374-.10936.07813-.0625.25-.15626.1875-.10938.4375-.20314.26563-.10936.57813-.17186.3125-.07814.65625-.07814.54688 0 .95312.15626.42188.14064.6875.42188.28126.26562.40626.625.14062.35936.14062.76562 0 .35938-.0625.71874-.0625.3594-.26562.78126-.20313.42188-.60938.9375-.39062.5-1.03125 1.17188l-1.20313 1.25h3.29688q.04688 0 .09375.03126.04687.03124.07813.0781.03124.0469.04687.125.01563.07814.01563.1875zm6.25-3.375q0 .875-.14063 1.59376-.14063.71874-.46873 1.25-.3125.51564-.82814.79688-.51563.28126-1.26563.28126-.71873 0-1.21873-.25-.4844-.26564-.78127-.75-.29687-.5-.42187-1.21876-.125-.73438-.125-1.67188 0-.85936.14062-1.57812.14062-.73438.45312-1.25.32813-.51564.84376-.79688.51564-.28126 1.26564-.28126.71873 0 1.2031.25.4844.25.78126.75.3125.5.4375 1.21876.125.71874.125 1.65624zm-1.03126.07814q0-.57814-.04687-1.01564-.04687-.4531-.125-.79686-.07813-.35938-.20313-.60938-.125-.25-.29687-.40626-.17187-.15624-.40623-.23436-.21877-.07814-.5-.07814-.5 0-.8125.2344-.3125.23436-.5.65624-.1719.40626-.2344.95312-.0625.54688-.0625 1.1875 0 .84374.07813 1.4375.09377.59374.28127.96874.2031.375.5.5469.29686.17186.71873.17186.32813 0 .5625-.09376.25-.10936.42187-.29686.1875-.20314.2969-.48438.125-.28126.1875-.60936.0781-.32814.10936-.71876.03124-.39064.03124-.8125zm6.78126 3.29686q0 .1094-.01563.1875-.01563.07814-.04687.14064-.03126.0625-.07813.09376-.03123.0156-.09373.0156h-4.1875q-.07814 0-.14064-.0156-.0625-.03126-.10936-.07814-.0469-.04686-.0625-.125-.01564-.09376-.01564-.21876 0-.125 0-.2031.01564-.09376.04687-.15626.03127-.07814.0625-.14064.04687-.0625.125-.1406l1.46877-1.5625q.5156-.53126.8125-.95314.3125-.4375.46873-.78126.17187-.35936.21877-.6406.0625-.2969.0625-.5469 0-.25-.07814-.46874-.07813-.23436-.23436-.40626-.15627-.17186-.39064-.2656-.23436-.09376-.54686-.09376-.3594 0-.64064.09376-.28126.09374-.5.21874-.20313.10936-.35936.21876-.14064.09374-.20314.09374-.04686 0-.07813-.01564-.03123-.03124-.0625-.0781-.01563-.0625-.03123-.14064 0-.09376 0-.21876 0-.0781 0-.1406.0156-.07814.0156-.125.01563-.0469.03126-.07814.03124-.04686.09374-.10936.07813-.0625.25-.15626.1875-.10938.4375-.20314.26563-.10936.57813-.17186.3125-.07814.65627-.07814.54686 0 .9531.15626.4219.14064.6875.42188.28126.26562.40626.625.14064.35936.14064.76562 0 .35938-.0625.71874-.0625.3594-.26564.78126-.20313.42188-.60936.9375-.39064.5-1.03127 1.17188l-1.20313 1.25h3.2969q.04686 0 .09373.03126.04687.03124.07813.0781.03124.0469.04687.125.01563.07814.01563.1875zm5.9375-1.73436q0 .53126-.1875.95312-.17186.40624-.51563.70314-.34373.29686-.84373.46874-.5.15626-1.125.15626-.375 0-.71877-.0625-.32813-.0625-.59373-.14064-.25-.09376-.4219-.17186-.15624-.09376-.2031-.14064-.0469-.04686-.07814-.07812-.01563-.04688-.03126-.09374-.0156-.0625-.03124-.14064 0-.09376 0-.21876 0-.21874.03124-.29686.0469-.07814.125-.07814.0469 0 .20313.09376.15627.09374.39063.20314.25.10936.57814.2031.3281.09376.71873.09376.39063 0 .6875-.09376.29687-.10936.48437-.28124.20313-.1875.2969-.4375.10936-.25.10936-.54686 0-.3125-.125-.5625-.125-.26564-.375-.45314-.23436-.1875-.59376-.28126-.35937-.10936-.8125-.10936h-.71874q-.04686 0-.09376-.01564-.03124-.03124-.0781-.0781-.03127-.0469-.0469-.125-.0156-.07814-.0156-.1875 0-.125.0156-.1875.01563-.07814.0469-.125.03123-.0469.0625-.0625.04686-.01564.10936-.01564h.65624q.39063 0 .6875-.09376.3125-.10936.53126-.29686.21874-.1875.32814-.4375.10936-.26564.10936-.59374 0-.2344-.07813-.4375-.0625-.21876-.21873-.375-.15627-.1719-.39064-.25-.23436-.09376-.54686-.09376-.34377 0-.625.10936-.28127.09376-.51564.21876-.21876.10938-.375.21874-.14063.09376-.1875.09376-.04686 0-.07813-.01562-.03123-.01564-.0625-.04688-.01563-.04686-.03123-.125 0-.09376 0-.21876 0-.0781 0-.1406.0156-.07814.03123-.125.01563-.0469.03127-.09376.03123-.04688.0781-.09374.0625-.0625.2344-.15626.17186-.10938.42186-.20314.25-.10936.57814-.17186.3281-.07814.7031-.07814.51563 0 .90626.14064.40624.125.67187.375.26563.23436.39063.57812.14064.34374.14064.76564 0 .35936-.09377.67186-.09373.29688-.28123.53124-.1719.2344-.4375.40626-.26564.17188-.6094.23438v.01562q.39063.03124.71876.1875.32814.15624.5625.39064.23437.23436.35937.54686.14063.3125.14063.67188z"/></g></svg>