<svg fill="none" height="578.5" stroke="#000" width="914.5" xmlns="http://www.w3.org/2000/svg"><g stroke-width="2.5"><path d="m639.88 402.5h16v16h-16z"/><path d="m639.88 418.5h16v16h-16z"/><path d="m655.88 402.62h32v31.876h-32z"/><path d="m639.88 354.5h48v48h-48z"/><path d="m559.88 354.5h80v80h-80z"/><path d="m559.88 434.09h128v128.41h-128z"/><path d="m687.85 354.61h208.15v207.78h-208.15z"/><path d="m560 18.5h336v336h-336z"/><path d="m16 18.5h544v544h-544z"/></g><g stroke-width="5"><g transform="translate(255.88 648.31)"><path d="m400-213.81a16 16 0 0 1 -16-16"/><path d="m432-245.81a32 32 0 0 1 -32 32"/><path d="m384-293.81a48 48 0 0 1 48 48"/><path d="m304-213.81a80 80 0 0 1 80-80"/><path d="m432-85.812a128 128 0 0 1 -128-128"/><path d="m640-293.81a208 208 0 0 1 -208 208"/></g><path d="m16 562.5a544 544 0 0 1 544-544"/><path d="m560 18.5a336 336 0 0 1 336 336"/></g></svg>