<?xml version="1.0" encoding="UTF-8" standalone="no"?>
<!DOCTYPE svg PUBLIC "-//W3C//DTD SVG 1.1//EN" "http://www.w3.org/Graphics/SVG/1.1/DTD/svg11.dtd">
<svg width="100%" height="100%" viewBox="0 0 1115 1276" version="1.1" xmlns="http://www.w3.org/2000/svg" xmlns:xlink="http://www.w3.org/1999/xlink" xml:space="preserve" xmlns:serif="http://www.serif.com/" style="fill-rule:evenodd;clip-rule:evenodd;stroke-linejoin:round;stroke-miterlimit:10;">
    <g transform="matrix(1,0,0,1,-747.07,-917.834)">
        <g id="logo-cookie-jar.svg" transform="matrix(2.02165,0,0,2.01735,1296.14,474.121)">
            <g transform="matrix(1,0,0,1,-201.523,-230.145)">
                <clipPath id="_clip1">
                    <rect x="0" y="0" width="403.045" height="460.289"/>
                </clipPath>
                <g clip-path="url(#_clip1)">
                    <g id="Layer-1-copy-copy">
                    </g>
                </g>
            </g>
        </g>
        <g id="logo-temp-1.svg" transform="matrix(2.00071,0,0,2.00071,2061.02,477.068)">
            <g transform="matrix(1,0,0,1,-201.523,-230.144)">
                <clipPath id="_clip2">
                    <rect x="0" y="0" width="403.045" height="460.289"/>
                </clipPath>
                <g clip-path="url(#_clip2)">
                    <g id="Layer-2-copy">
                    </g>
                </g>
            </g>
        </g>
        <g id="The-Vault" serif:id="The Vault">
        </g>
        <g id="Brief-Mystery" serif:id="Brief Mystery" transform="matrix(1,0,0,1,-328.442,-286.271)">
            <g id="Bottom" transform="matrix(2.93288,0,0,2.93288,-753.704,-480.385)">
                <path d="M809.103,1003.21L633.34,901.737C630.785,900.262 628.715,896.675 628.715,893.725L628.715,690.772C628.715,687.822 630.785,684.235 633.34,682.76L809.103,581.283C811.658,579.808 815.799,579.808 818.354,581.283L994.117,682.76C996.671,684.235 998.742,687.822 998.742,690.772L998.742,893.725C998.742,896.675 996.671,900.262 994.117,901.737L818.354,1003.21C815.799,1004.69 811.658,1004.69 809.103,1003.21Z" style="fill:#b2453d;fill-rule:nonzero;stroke:#2a3163;stroke-width:10px;"/>
            </g>
            <g id="Top" transform="matrix(1,0,0,1,328.442,286.271)">
                <path d="M1847.04,1240.17C1847.04,1240.4 1846.9,1244.03 1846.9,1244.26C1846.9,1253.8 1847.04,1261.54 1847.04,1274.47L1847.04,1556.91L761.797,1556.91L761.654,1244.26L1287.35,934.932L1304.42,934.932L1846.9,1244.26C1846.9,1244.26 1846.9,1242.71 1846.9,1240.13C1846.95,1240.14 1846.99,1240.16 1847.04,1240.17Z" style="fill:#d0966e;stroke:#2a3163;stroke-width:1px;stroke-miterlimit:2;"/>
            </g>
            <g id="Box---Inner-Ring" serif:id="Box &amp; Inner Ring" transform="matrix(0.703891,0,0,0.703891,633.494,271.96)">
                <g id="Box---Inner-Ring1" serif:id="Box &amp; Inner Ring" transform="matrix(4.16667,0,0,4.16667,-1970.76,-1068.84)">
                    <path d="M810.585,934.101L692.044,865.662C690.322,864.667 688.925,862.248 688.925,860.259L688.925,723.381C688.925,721.391 690.322,718.972 692.044,717.977L810.585,649.538C812.307,648.544 815.101,648.544 816.823,649.538L935.364,717.977C937.086,718.972 938.483,721.391 938.483,723.381L938.483,860.259C938.483,862.248 937.086,864.667 935.364,865.662L816.823,934.101C815.101,935.096 812.307,935.096 810.585,934.101Z" style="fill:#d9d7b7;fill-rule:nonzero;stroke:#13183f;stroke-width:8px;"/>
                </g>
                <g transform="matrix(4.16667,0,0,4.16667,-1970.76,-1068.84)">
                    <path d="M813.728,801.345L813.728,935.276" style="fill:none;fill-rule:nonzero;stroke:#13183f;stroke-width:5px;"/>
                </g>
                <g transform="matrix(4.16667,0,0,4.16667,-1970.76,-1068.84)">
                    <path d="M938.508,745.282L813.728,801.345" style="fill:none;fill-rule:nonzero;stroke:#13183f;stroke-width:5px;"/>
                </g>
                <g transform="matrix(4.16667,0,0,4.16667,-1970.76,-1068.84)">
                    <path d="M813.728,801.345L688.949,745.282" style="fill:none;fill-rule:nonzero;stroke:#13183f;stroke-width:5px;"/>
                </g>
            </g>
            <g id="Shadows" transform="matrix(0.703891,0,0,0.703891,633.494,271.96)">
                <g transform="matrix(4.43773,0,0,4.39566,-2191.19,-1251.42)">
                    <g id="Left-Shadow" serif:id="Left Shadow">
                        <path d="M692.075,726.02C731.171,743.145 771.734,761.196 813.544,780.156C813.605,831.576 813.667,882.997 813.728,934.418C771.912,909.625 731.143,885.967 691.646,863.465" style="fill-opacity:0.1;fill-rule:nonzero;stroke:#2a3163;stroke-width:0.32px;stroke-miterlimit:2;"/>
                    </g>
                </g>
                <g id="Right-Shadow" serif:id="Right Shadow" transform="matrix(4.16667,0,0,4.16667,-1970.76,-1068.84)">
                    <path d="M813.785,779.214L942.273,722.469L942.624,866.367L813.81,941.517" style="fill-opacity:0.3;fill-rule:nonzero;stroke:#2a3163;stroke-width:0.34px;stroke-miterlimit:2;"/>
                </g>
            </g>
            <g id="Outer-Ring" serif:id="Outer Ring" transform="matrix(2.93288,0,0,2.93288,-753.704,-480.385)">
                <path d="M809.054,1002.36L633.291,900.879C630.737,899.404 628.666,895.818 628.666,892.868L628.666,689.914C628.666,686.964 630.737,683.378 633.291,681.903L809.054,580.426C811.609,578.951 815.75,578.951 818.305,580.426L994.068,681.903C996.623,683.378 998.693,686.964 998.693,689.914L998.693,892.868C998.693,895.818 996.623,899.404 994.068,900.879L818.305,1002.36C815.75,1003.83 811.609,1003.83 809.054,1002.36Z" style="fill:none;fill-rule:nonzero;stroke:#2a3163;stroke-width:9.94px;"/>
            </g>
            <g id="Lock" transform="matrix(0.703891,0,0,0.703891,648.942,266.212)">
                <g transform="matrix(4.16667,0,0,4.16667,-1970.76,-1068.84)">
                    <path d="M874.6,795.826C874.483,795.808 874.347,795.807 874.226,795.825L874.012,795.822L874.018,795.857C873.036,795.986 872.077,796.673 871.335,797.949L865.068,808.546C863.354,811.459 863.31,816.243 864.976,819.195L868.557,825.539C869.39,827.015 870.495,827.747 871.612,827.763L877.653,827.772L877.757,820.452L880.967,815.013C882.68,812.099 882.711,807.317 881.044,804.362L880.475,803.355L880.58,795.821L874.6,795.826Z" style="fill:#202b29;fill-rule:nonzero;stroke:#2a3163;stroke-width:0.34px;stroke-miterlimit:2;"/>
                </g>
                <g transform="matrix(4.16667,0,0,4.16667,-1970.76,-1068.84)">
                    <path d="M880.581,795.821L874.601,795.825C874.484,795.808 874.348,795.807 874.227,795.825L874.012,795.822L874.019,795.857C873.036,795.986 872.078,796.672 871.336,797.949L865.068,808.546" style="fill:#2e3e3d;fill-rule:nonzero;stroke:#2a3163;stroke-width:0.34px;stroke-miterlimit:2;"/>
                </g>
                <g transform="matrix(4.16667,0,0,4.16667,-1970.76,-1068.84)">
                    <path d="M873.491,791.952C874.063,792.332 874.566,792.885 874.96,793.583L879.712,802.003C880.244,802.946 879.911,804.14 878.969,804.672C878.027,805.204 876.831,804.872 876.299,803.929L871.547,795.509C871.541,795.499 871.535,795.488 871.529,795.478C871.523,795.487 871.517,795.497 871.511,795.507L873.491,791.952Z" style="fill:#202b29;fill-rule:nonzero;stroke:#2a3163;stroke-width:0.34px;stroke-miterlimit:2;"/>
                </g>
                <g transform="matrix(4.16667,0,0,4.16667,-1970.76,-1068.84)">
                    <path d="M869.252,807.563L874.005,815.982C874.537,816.925 874.204,818.12 873.261,818.652C872.319,819.184 871.124,818.851 870.592,817.909L865.839,809.489C865.833,809.478 865.827,809.468 865.821,809.458C865.816,809.468 865.809,809.477 865.804,809.487" style="fill:#010101;fill-rule:nonzero;stroke:#2a3163;stroke-width:0.34px;stroke-miterlimit:2;"/>
                </g>
                <g transform="matrix(4.16667,0,0,4.16667,-1970.76,-1068.84)">
                    <path d="M871.612,827.763L877.653,827.772L877.757,820.452L880.967,815.013C882.68,812.099 882.711,807.317 881.044,804.362" style="fill:#ad594e;fill-rule:nonzero;stroke:#2a3163;stroke-width:0.34px;stroke-miterlimit:2;"/>
                </g>
                <g transform="matrix(4.16667,0,0,4.16667,-1970.76,-1068.84)">
                    <path d="M875.954,825.261L877.373,827.774L871.611,827.763C870.495,827.747 869.39,827.014 868.557,825.539L864.976,819.195C864.434,818.235 864.073,817.082 863.902,815.854L876.077,815.967L875.954,825.261Z" style="fill:#010101;fill-rule:nonzero;stroke:#2a3163;stroke-width:0.34px;stroke-miterlimit:2;"/>
                </g>
                <g transform="matrix(4.16667,0,0,4.16667,-1970.76,-1068.84)">
                    <path d="M877.521,797.984L871.282,808.573C869.546,811.496 869.517,816.284 871.179,819.227L874.76,825.571C876.418,828.509 879.175,828.556 880.91,825.631L887.151,815.044C888.893,812.127 888.92,807.34 887.261,804.401L883.674,798.044C882.015,795.107 879.266,795.072 877.521,797.984Z" style="fill:#3c4d4b;fill-rule:nonzero;stroke:#2a3163;stroke-width:0.34px;stroke-miterlimit:2;"/>
                </g>
                <g transform="matrix(4.16667,0,0,4.16667,-1986.57,-1063.12)">
                    <path d="M872.944,768.406L878.916,765.499L878.86,779.232L873.381,782.13L872.944,768.406Z" style="fill-rule:nonzero;stroke:#000;stroke-width:8.33px;stroke-linejoin:miter;"/>
                </g>
                <g transform="matrix(4.16667,0,0,4.16667,-1970.76,-1068.84)">
                    <path d="M875.506,798.597C876.448,798.066 876.782,796.87 876.25,795.928L871.501,787.515C870.919,786.483 870.936,784.55 871.537,783.538L875.019,777.628C875.025,777.619 875.031,777.61 875.037,777.6C875.042,777.61 875.048,777.621 875.054,777.631L879.807,786.051C880.339,786.994 881.534,787.326 882.476,786.794C883.418,786.262 883.752,785.067 883.22,784.125L878.467,775.705C877.675,774.301 876.445,773.486 875.092,773.469C873.737,773.451 872.482,774.238 871.649,775.627L868.163,781.543C866.84,783.773 866.806,787.171 868.087,789.442L872.836,797.854C873.368,798.796 874.563,799.129 875.506,798.597Z" style="fill:#699790;fill-rule:nonzero;stroke:#2a3163;stroke-width:0.34px;stroke-miterlimit:2;"/>
                </g>
                <g transform="matrix(4.16667,0,0,4.16667,-1970.76,-1068.84)">
                    <path d="M874.922,777.596L876.998,774.073C877.57,774.455 878.073,775.007 878.467,775.705L883.22,784.125C883.752,785.067 883.418,786.262 882.476,786.794C881.534,787.326 880.339,786.993 879.807,786.051L875.054,777.631C875.048,777.621 875.042,777.61 875.037,777.6C875.031,777.61 875.025,777.619 875.019,777.628L874.417,778.65C874.562,778.277 874.729,777.922 874.922,777.596Z" style="fill:#517871;fill-rule:nonzero;stroke:#2a3163;stroke-width:0.34px;stroke-miterlimit:2;"/>
                </g>
                <g transform="matrix(4.16667,0,0,4.16667,-1970.76,-1068.84)">
                    <path d="M883.674,798.044C882.015,795.106 879.266,795.072 877.521,797.984L871.282,808.573C869.546,811.496 869.517,816.284 871.179,819.227L874.76,825.571" style="fill:#2e3e3d;fill-rule:nonzero;stroke:#2a3163;stroke-width:0.34px;stroke-miterlimit:2;"/>
                </g>
                <g transform="matrix(4.16667,0,0,4.16667,-1970.76,-1068.84)">
                    <path d="M877.796,811.642C877.27,810.71 877.285,809.196 877.828,808.274C878.372,807.353 879.247,807.362 879.772,808.293C880.078,808.834 880.2,809.57 880.143,810.274L881.891,813.372C881.967,813.506 881.965,813.724 881.887,813.856L880.958,815.43C880.88,815.562 880.754,815.561 880.679,815.427L878.929,812.328C878.523,812.41 878.101,812.182 877.796,811.642Z" style="fill:#517871;fill-rule:nonzero;stroke:#2a3163;stroke-width:0.34px;stroke-miterlimit:2;"/>
                </g>
                <g transform="matrix(4.16667,0,0,4.16667,-1970.76,-1068.84)">
                    <path d="M877.828,808.274C878.04,807.916 878.301,807.701 878.572,807.623C878.867,807.687 879.152,807.914 879.374,808.307C879.678,808.847 879.801,809.584 879.744,810.288L881.493,813.386C881.568,813.52 881.566,813.738 881.488,813.87L880.625,815.331L878.93,812.328C878.523,812.41 878.101,812.182 877.796,811.642C877.27,810.71 877.285,809.196 877.828,808.274ZM866.145,808.906C866.594,808.145 867.685,807.529 868.569,807.538C869.454,807.547 869.809,808.176 869.359,808.938C868.91,809.7 867.819,810.316 866.935,810.306C866.05,810.298 865.695,809.668 866.145,808.906Z" style="fill:#435c57;fill-rule:nonzero;stroke:#2a3163;stroke-width:0.34px;stroke-miterlimit:2;"/>
                </g>
                <g transform="matrix(1,0,0,1,-21.9472,8.1651)">
                    <path d="M1689.24,2138.93C1697.97,2160.98 1694.55,2170.38 1694.79,2183.96" style="fill:none;stroke:#000;stroke-width:29.6px;stroke-linecap:round;stroke-linejoin:miter;stroke-miterlimit:1.5;"/>
                </g>
            </g>
            <g transform="matrix(0.684648,-0.395282,0.395282,0.684648,308.461,1037.16)">
                <g transform="matrix(177.618,0,0,177.618,796.436,1209.85)">
                    <path d="M0.048,-0L0.048,-0.712L0.197,-0.712C0.23,-0.712 0.258,-0.707 0.281,-0.697C0.304,-0.687 0.322,-0.674 0.337,-0.657C0.352,-0.64 0.362,-0.621 0.369,-0.6C0.375,-0.578 0.378,-0.555 0.378,-0.532L0.378,-0.506C0.378,-0.487 0.377,-0.47 0.374,-0.457C0.371,-0.444 0.366,-0.432 0.36,-0.422C0.349,-0.403 0.331,-0.387 0.308,-0.374C0.332,-0.363 0.35,-0.346 0.361,-0.324C0.372,-0.302 0.378,-0.272 0.378,-0.234L0.378,-0.194C0.378,-0.131 0.363,-0.083 0.333,-0.05C0.302,-0.017 0.254,-0 0.187,-0L0.048,-0ZM0.15,-0.33L0.15,-0.102L0.194,-0.102C0.215,-0.102 0.231,-0.105 0.243,-0.111C0.254,-0.117 0.263,-0.125 0.269,-0.136C0.275,-0.147 0.279,-0.159 0.28,-0.174C0.281,-0.189 0.282,-0.205 0.282,-0.222C0.282,-0.24 0.281,-0.256 0.279,-0.269C0.277,-0.282 0.273,-0.294 0.267,-0.303C0.26,-0.312 0.251,-0.319 0.24,-0.324C0.229,-0.328 0.214,-0.33 0.195,-0.33L0.15,-0.33ZM0.15,-0.616L0.15,-0.42L0.196,-0.42C0.23,-0.42 0.253,-0.428 0.265,-0.446C0.276,-0.463 0.282,-0.487 0.282,-0.52C0.282,-0.552 0.276,-0.576 0.263,-0.592C0.249,-0.608 0.226,-0.616 0.192,-0.616L0.15,-0.616Z" style="fill:#b2453d;fill-rule:nonzero;"/>
                </g>
                <g transform="matrix(177.618,0,0,177.618,872.101,1209.85)">
                    <path d="M0.15,-0.616L0.15,-0.394L0.208,-0.394C0.226,-0.394 0.24,-0.397 0.251,-0.402C0.262,-0.407 0.27,-0.414 0.276,-0.423C0.281,-0.432 0.285,-0.444 0.287,-0.458C0.289,-0.471 0.29,-0.487 0.29,-0.505C0.29,-0.523 0.289,-0.539 0.287,-0.553C0.285,-0.566 0.281,-0.578 0.275,-0.588C0.262,-0.607 0.238,-0.616 0.203,-0.616L0.15,-0.616ZM0.048,-0L0.048,-0.712L0.212,-0.712C0.332,-0.712 0.392,-0.642 0.392,-0.503C0.392,-0.461 0.386,-0.425 0.373,-0.396C0.36,-0.367 0.337,-0.343 0.304,-0.325L0.414,-0L0.306,-0L0.211,-0.304L0.15,-0.304L0.15,-0L0.048,-0Z" style="fill:#b2453d;fill-rule:nonzero;"/>
                </g>
                <g transform="matrix(177.618,0,0,177.618,947.767,1209.85)">
                    <rect x="0.051" y="-0.712" width="0.102" height="0.712" style="fill:#b2453d;fill-rule:nonzero;"/>
                </g>
                <g transform="matrix(177.618,0,0,177.618,984.001,1209.85)">
                    <path d="M0.048,-0L0.048,-0.712L0.352,-0.712L0.352,-0.616L0.15,-0.616L0.15,-0.407L0.326,-0.407L0.326,-0.311L0.15,-0.311L0.15,-0.102L0.352,-0.102L0.352,-0L0.048,-0Z" style="fill:#b2453d;fill-rule:nonzero;"/>
                </g>
                <g transform="matrix(177.618,0,0,177.618,1049.72,1209.85)">
                    <path d="M0.048,-0L0.048,-0.712L0.352,-0.712L0.352,-0.616L0.15,-0.616L0.15,-0.4L0.326,-0.4L0.326,-0.304L0.15,-0.304L0.15,-0L0.048,-0Z" style="fill:#b2453d;fill-rule:nonzero;"/>
                </g>
            </g>
            <g transform="matrix(0.684648,-0.395282,0.395282,0.684648,703.171,1848.6)">
                <g transform="matrix(177.618,0,0,177.618,796.436,1209.85)">
                    <path d="M0.048,-0L0.048,-0.712L0.201,-0.712C0.229,-0.712 0.254,-0.708 0.275,-0.701C0.296,-0.694 0.316,-0.681 0.333,-0.662C0.35,-0.643 0.362,-0.622 0.369,-0.597C0.376,-0.572 0.379,-0.538 0.379,-0.495C0.379,-0.463 0.377,-0.436 0.374,-0.414C0.37,-0.392 0.362,-0.371 0.35,-0.352C0.336,-0.329 0.317,-0.311 0.294,-0.298C0.271,-0.285 0.24,-0.278 0.202,-0.278L0.15,-0.278L0.15,-0L0.048,-0ZM0.15,-0.616L0.15,-0.374L0.199,-0.374C0.22,-0.374 0.236,-0.377 0.247,-0.383C0.258,-0.389 0.267,-0.397 0.272,-0.408C0.277,-0.418 0.281,-0.43 0.282,-0.445C0.283,-0.46 0.283,-0.476 0.283,-0.494C0.283,-0.511 0.283,-0.527 0.282,-0.542C0.281,-0.557 0.278,-0.57 0.273,-0.581C0.268,-0.592 0.26,-0.601 0.249,-0.607C0.238,-0.613 0.223,-0.616 0.203,-0.616L0.15,-0.616Z" style="fill:#fddf18;fill-rule:nonzero;"/>
                </g>
                <g transform="matrix(177.618,0,0,177.618,868.727,1209.85)">
                    <path d="M0.378,-0.712L0.378,-0.16C0.378,-0.137 0.374,-0.115 0.366,-0.096C0.357,-0.076 0.345,-0.058 0.33,-0.043C0.315,-0.028 0.297,-0.016 0.277,-0.007C0.257,0.002 0.236,0.006 0.213,0.006C0.19,0.006 0.169,0.002 0.15,-0.007C0.13,-0.016 0.112,-0.028 0.097,-0.043C0.082,-0.058 0.07,-0.076 0.061,-0.096C0.052,-0.115 0.048,-0.137 0.048,-0.16L0.048,-0.712L0.15,-0.712L0.15,-0.17C0.15,-0.145 0.156,-0.126 0.168,-0.114C0.18,-0.102 0.195,-0.096 0.213,-0.096C0.231,-0.096 0.246,-0.102 0.258,-0.114C0.27,-0.126 0.276,-0.145 0.276,-0.17L0.276,-0.712L0.378,-0.712Z" style="fill:#fddf18;fill-rule:nonzero;"/>
                </g>
                <g transform="matrix(177.618,0,0,177.618,944.392,1209.85)">
                    <path d="M0.015,-0L0.015,-0.09L0.207,-0.616L0.025,-0.616L0.025,-0.712L0.318,-0.712L0.318,-0.631L0.122,-0.096L0.318,-0.096L0.318,-0L0.015,-0Z" style="fill:#fddf18;fill-rule:nonzero;"/>
                </g>
                <g transform="matrix(177.618,0,0,177.618,1003.54,1209.85)">
                    <path d="M0.015,-0L0.015,-0.09L0.207,-0.616L0.025,-0.616L0.025,-0.712L0.318,-0.712L0.318,-0.631L0.122,-0.096L0.318,-0.096L0.318,-0L0.015,-0Z" style="fill:#fddf18;fill-rule:nonzero;"/>
                </g>
                <g transform="matrix(177.618,0,0,177.618,1062.69,1209.85)">
                    <path d="M0.048,-0L0.048,-0.712L0.15,-0.712L0.15,-0.102L0.352,-0.102L0.352,-0L0.048,-0Z" style="fill:#fddf18;fill-rule:nonzero;"/>
                </g>
                <g transform="matrix(177.618,0,0,177.618,1128.4,1209.85)">
                    <path d="M0.048,-0L0.048,-0.712L0.352,-0.712L0.352,-0.616L0.15,-0.616L0.15,-0.407L0.326,-0.407L0.326,-0.311L0.15,-0.311L0.15,-0.102L0.352,-0.102L0.352,-0L0.048,-0Z" style="fill:#fddf18;fill-rule:nonzero;"/>
                </g>
                <g transform="matrix(177.618,0,0,177.618,1194.12,1209.85)">
                    <path d="M0.378,-0.507L0.276,-0.507L0.276,-0.53C0.276,-0.553 0.271,-0.574 0.26,-0.591C0.249,-0.608 0.23,-0.616 0.204,-0.616C0.19,-0.616 0.179,-0.613 0.17,-0.608C0.161,-0.603 0.154,-0.596 0.149,-0.588C0.144,-0.579 0.14,-0.57 0.138,-0.559C0.136,-0.548 0.135,-0.536 0.135,-0.524C0.135,-0.51 0.136,-0.498 0.137,-0.489C0.138,-0.48 0.14,-0.471 0.144,-0.464C0.148,-0.457 0.154,-0.45 0.162,-0.445C0.169,-0.44 0.18,-0.434 0.193,-0.429L0.271,-0.398C0.294,-0.389 0.312,-0.379 0.326,-0.368C0.34,-0.356 0.351,-0.342 0.359,-0.327C0.366,-0.311 0.371,-0.293 0.374,-0.273C0.377,-0.252 0.378,-0.229 0.378,-0.203C0.378,-0.173 0.375,-0.145 0.369,-0.12C0.363,-0.094 0.353,-0.072 0.34,-0.054C0.326,-0.035 0.308,-0.021 0.285,-0.01C0.262,0.001 0.235,0.006 0.202,0.006C0.177,0.006 0.154,0.002 0.133,-0.007C0.112,-0.016 0.093,-0.028 0.078,-0.043C0.063,-0.058 0.05,-0.076 0.042,-0.097C0.033,-0.117 0.028,-0.139 0.028,-0.163L0.028,-0.201L0.13,-0.201L0.13,-0.169C0.13,-0.15 0.135,-0.134 0.147,-0.119C0.158,-0.103 0.176,-0.096 0.202,-0.096C0.219,-0.096 0.233,-0.098 0.243,-0.104C0.252,-0.109 0.26,-0.116 0.265,-0.125C0.27,-0.134 0.274,-0.146 0.275,-0.159C0.276,-0.171 0.276,-0.186 0.276,-0.202C0.276,-0.221 0.275,-0.236 0.274,-0.248C0.273,-0.26 0.27,-0.27 0.266,-0.277C0.261,-0.284 0.255,-0.29 0.248,-0.295C0.24,-0.3 0.23,-0.305 0.217,-0.31L0.144,-0.34C0.1,-0.358 0.07,-0.382 0.056,-0.412C0.041,-0.441 0.033,-0.478 0.033,-0.523C0.033,-0.55 0.037,-0.575 0.044,-0.599C0.051,-0.623 0.062,-0.644 0.077,-0.661C0.091,-0.678 0.109,-0.692 0.131,-0.703C0.152,-0.713 0.178,-0.718 0.208,-0.718C0.233,-0.718 0.257,-0.713 0.278,-0.704C0.299,-0.695 0.317,-0.682 0.332,-0.667C0.363,-0.635 0.378,-0.598 0.378,-0.557L0.378,-0.507Z" style="fill:#fddf18;fill-rule:nonzero;"/>
                </g>
            </g>
            <g transform="matrix(0.684648,0.395282,-0.395282,0.684648,1151.47,1038.41)">
                <g transform="matrix(177.618,0,0,177.618,796.436,1209.85)">
                    <path d="M0.254,-0.249L0.204,-0.507L0.202,-0.507L0.152,-0.249L0.254,-0.249ZM0.002,-0L0.161,-0.712L0.246,-0.712L0.405,-0L0.303,-0L0.273,-0.153L0.134,-0.153L0.104,-0L0.002,-0Z" style="fill:#fddf18;fill-rule:nonzero;"/>
                </g>
                <g transform="matrix(177.618,0,0,177.618,868.727,1209.85)">
                    <path d="M0.254,-0.249L0.204,-0.507L0.202,-0.507L0.152,-0.249L0.254,-0.249ZM0.002,-0L0.161,-0.712L0.246,-0.712L0.405,-0L0.303,-0L0.273,-0.153L0.134,-0.153L0.104,-0L0.002,-0Z" style="fill:#fddf18;fill-rule:nonzero;"/>
                </g>
                <g transform="matrix(177.618,0,0,177.618,941.017,1209.85)">
                    <path d="M0.15,-0.616L0.15,-0.394L0.208,-0.394C0.226,-0.394 0.24,-0.397 0.251,-0.402C0.262,-0.407 0.27,-0.414 0.276,-0.423C0.281,-0.432 0.285,-0.444 0.287,-0.458C0.289,-0.471 0.29,-0.487 0.29,-0.505C0.29,-0.523 0.289,-0.539 0.287,-0.553C0.285,-0.566 0.281,-0.578 0.275,-0.588C0.262,-0.607 0.238,-0.616 0.203,-0.616L0.15,-0.616ZM0.048,-0L0.048,-0.712L0.212,-0.712C0.332,-0.712 0.392,-0.642 0.392,-0.503C0.392,-0.461 0.386,-0.425 0.373,-0.396C0.36,-0.367 0.337,-0.343 0.304,-0.325L0.414,-0L0.306,-0L0.211,-0.304L0.15,-0.304L0.15,-0L0.048,-0Z" style="fill:#fddf18;fill-rule:nonzero;"/>
                </g>
                <g transform="matrix(177.618,0,0,177.618,1016.68,1209.85)">
                    <path d="M0.042,-0.544C0.042,-0.573 0.047,-0.598 0.057,-0.62C0.067,-0.642 0.08,-0.66 0.097,-0.675C0.113,-0.689 0.131,-0.7 0.152,-0.707C0.172,-0.714 0.192,-0.718 0.213,-0.718C0.234,-0.718 0.254,-0.714 0.275,-0.707C0.295,-0.7 0.313,-0.689 0.33,-0.675C0.346,-0.66 0.359,-0.642 0.369,-0.62C0.379,-0.598 0.384,-0.573 0.384,-0.544L0.384,-0.168C0.384,-0.138 0.379,-0.112 0.369,-0.091C0.359,-0.07 0.346,-0.052 0.33,-0.038C0.313,-0.023 0.295,-0.012 0.275,-0.005C0.254,0.002 0.234,0.006 0.213,0.006C0.192,0.006 0.172,0.002 0.152,-0.005C0.131,-0.012 0.113,-0.023 0.097,-0.038C0.08,-0.052 0.067,-0.07 0.057,-0.091C0.047,-0.112 0.042,-0.138 0.042,-0.168L0.042,-0.544ZM0.144,-0.168C0.144,-0.143 0.151,-0.125 0.165,-0.114C0.178,-0.102 0.194,-0.096 0.213,-0.096C0.232,-0.096 0.248,-0.102 0.262,-0.114C0.275,-0.125 0.282,-0.143 0.282,-0.168L0.282,-0.544C0.282,-0.569 0.275,-0.587 0.262,-0.599C0.248,-0.61 0.232,-0.616 0.213,-0.616C0.194,-0.616 0.178,-0.61 0.165,-0.599C0.151,-0.587 0.144,-0.569 0.144,-0.544L0.144,-0.168Z" style="fill:#fddf18;fill-rule:nonzero;"/>
                </g>
                <g transform="matrix(177.618,0,0,177.618,1092.35,1209.85)">
                    <path d="M0.044,-0L0.044,-0.712L0.142,-0.712L0.296,-0.283L0.298,-0.283L0.298,-0.712L0.4,-0.712L0.4,-0L0.304,-0L0.148,-0.428L0.146,-0.428L0.146,-0L0.044,-0Z" style="fill:#fddf18;fill-rule:nonzero;"/>
                </g>
                <g transform="matrix(177.618,0,0,177.618,1171.21,1209.85)">
                    <rect x="0.053" y="-0.712" width="0.08" height="0.176" style="fill:#fddf18;fill-rule:nonzero;"/>
                </g>
                <g transform="matrix(177.618,0,0,177.618,1204.25,1209.85)">
                    <path d="M0.378,-0.507L0.276,-0.507L0.276,-0.53C0.276,-0.553 0.271,-0.574 0.26,-0.591C0.249,-0.608 0.23,-0.616 0.204,-0.616C0.19,-0.616 0.179,-0.613 0.17,-0.608C0.161,-0.603 0.154,-0.596 0.149,-0.588C0.144,-0.579 0.14,-0.57 0.138,-0.559C0.136,-0.548 0.135,-0.536 0.135,-0.524C0.135,-0.51 0.136,-0.498 0.137,-0.489C0.138,-0.48 0.14,-0.471 0.144,-0.464C0.148,-0.457 0.154,-0.45 0.162,-0.445C0.169,-0.44 0.18,-0.434 0.193,-0.429L0.271,-0.398C0.294,-0.389 0.312,-0.379 0.326,-0.368C0.34,-0.356 0.351,-0.342 0.359,-0.327C0.366,-0.311 0.371,-0.293 0.374,-0.273C0.377,-0.252 0.378,-0.229 0.378,-0.203C0.378,-0.173 0.375,-0.145 0.369,-0.12C0.363,-0.094 0.353,-0.072 0.34,-0.054C0.326,-0.035 0.308,-0.021 0.285,-0.01C0.262,0.001 0.235,0.006 0.202,0.006C0.177,0.006 0.154,0.002 0.133,-0.007C0.112,-0.016 0.093,-0.028 0.078,-0.043C0.063,-0.058 0.05,-0.076 0.042,-0.097C0.033,-0.117 0.028,-0.139 0.028,-0.163L0.028,-0.201L0.13,-0.201L0.13,-0.169C0.13,-0.15 0.135,-0.134 0.147,-0.119C0.158,-0.103 0.176,-0.096 0.202,-0.096C0.219,-0.096 0.233,-0.098 0.243,-0.104C0.252,-0.109 0.26,-0.116 0.265,-0.125C0.27,-0.134 0.274,-0.146 0.275,-0.159C0.276,-0.171 0.276,-0.186 0.276,-0.202C0.276,-0.221 0.275,-0.236 0.274,-0.248C0.273,-0.26 0.27,-0.27 0.266,-0.277C0.261,-0.284 0.255,-0.29 0.248,-0.295C0.24,-0.3 0.23,-0.305 0.217,-0.31L0.144,-0.34C0.1,-0.358 0.07,-0.382 0.056,-0.412C0.041,-0.441 0.033,-0.478 0.033,-0.523C0.033,-0.55 0.037,-0.575 0.044,-0.599C0.051,-0.623 0.062,-0.644 0.077,-0.661C0.091,-0.678 0.109,-0.692 0.131,-0.703C0.152,-0.713 0.178,-0.718 0.208,-0.718C0.233,-0.718 0.257,-0.713 0.278,-0.704C0.299,-0.695 0.317,-0.682 0.332,-0.667C0.363,-0.635 0.378,-0.598 0.378,-0.557L0.378,-0.507Z" style="fill:#fddf18;fill-rule:nonzero;"/>
                </g>
            </g>
            <g transform="matrix(0.684648,0.395282,-0.395282,0.684648,1612.22,262.977)">
                <g transform="matrix(177.618,0,0,177.618,796.436,1209.85)">
                    <path d="M0.048,-0L0.048,-0.712L0.146,-0.712L0.277,-0.335L0.279,-0.335L0.409,-0.712L0.508,-0.712L0.508,-0L0.406,-0L0.406,-0.433L0.404,-0.433L0.303,-0.127L0.252,-0.127L0.152,-0.433L0.15,-0.433L0.15,-0L0.048,-0Z" style="fill:#b2453d;fill-rule:nonzero;"/>
                </g>
                <g transform="matrix(177.618,0,0,177.618,895.192,1209.85)">
                    <path d="M0.143,-0L0.143,-0.301L0.003,-0.712L0.111,-0.712L0.193,-0.429L0.195,-0.429L0.277,-0.712L0.385,-0.712L0.245,-0.301L0.245,-0L0.143,-0Z" style="fill:#b2453d;fill-rule:nonzero;"/>
                </g>
                <g transform="matrix(177.618,0,0,177.618,964.107,1209.85)">
                    <path d="M0.378,-0.507L0.276,-0.507L0.276,-0.53C0.276,-0.553 0.271,-0.574 0.26,-0.591C0.249,-0.608 0.23,-0.616 0.204,-0.616C0.19,-0.616 0.179,-0.613 0.17,-0.608C0.161,-0.603 0.154,-0.596 0.149,-0.588C0.144,-0.579 0.14,-0.57 0.138,-0.559C0.136,-0.548 0.135,-0.536 0.135,-0.524C0.135,-0.51 0.136,-0.498 0.137,-0.489C0.138,-0.48 0.14,-0.471 0.144,-0.464C0.148,-0.457 0.154,-0.45 0.162,-0.445C0.169,-0.44 0.18,-0.434 0.193,-0.429L0.271,-0.398C0.294,-0.389 0.312,-0.379 0.326,-0.368C0.34,-0.356 0.351,-0.342 0.359,-0.327C0.366,-0.311 0.371,-0.293 0.374,-0.273C0.377,-0.252 0.378,-0.229 0.378,-0.203C0.378,-0.173 0.375,-0.145 0.369,-0.12C0.363,-0.094 0.353,-0.072 0.34,-0.054C0.326,-0.035 0.308,-0.021 0.285,-0.01C0.262,0.001 0.235,0.006 0.202,0.006C0.177,0.006 0.154,0.002 0.133,-0.007C0.112,-0.016 0.093,-0.028 0.078,-0.043C0.063,-0.058 0.05,-0.076 0.042,-0.097C0.033,-0.117 0.028,-0.139 0.028,-0.163L0.028,-0.201L0.13,-0.201L0.13,-0.169C0.13,-0.15 0.135,-0.134 0.147,-0.119C0.158,-0.103 0.176,-0.096 0.202,-0.096C0.219,-0.096 0.233,-0.098 0.243,-0.104C0.252,-0.109 0.26,-0.116 0.265,-0.125C0.27,-0.134 0.274,-0.146 0.275,-0.159C0.276,-0.171 0.276,-0.186 0.276,-0.202C0.276,-0.221 0.275,-0.236 0.274,-0.248C0.273,-0.26 0.27,-0.27 0.266,-0.277C0.261,-0.284 0.255,-0.29 0.248,-0.295C0.24,-0.3 0.23,-0.305 0.217,-0.31L0.144,-0.34C0.1,-0.358 0.07,-0.382 0.056,-0.412C0.041,-0.441 0.033,-0.478 0.033,-0.523C0.033,-0.55 0.037,-0.575 0.044,-0.599C0.051,-0.623 0.062,-0.644 0.077,-0.661C0.091,-0.678 0.109,-0.692 0.131,-0.703C0.152,-0.713 0.178,-0.718 0.208,-0.718C0.233,-0.718 0.257,-0.713 0.278,-0.704C0.299,-0.695 0.317,-0.682 0.332,-0.667C0.363,-0.635 0.378,-0.598 0.378,-0.557L0.378,-0.507Z" style="fill:#b2453d;fill-rule:nonzero;"/>
                </g>
                <g transform="matrix(177.618,0,0,177.618,1036.22,1209.85)">
                    <path d="M0.115,-0L0.115,-0.616L-0.003,-0.616L-0.003,-0.712L0.335,-0.712L0.335,-0.616L0.217,-0.616L0.217,-0L0.115,-0Z" style="fill:#b2453d;fill-rule:nonzero;"/>
                </g>
                <g transform="matrix(177.618,0,0,177.618,1095.19,1209.85)">
                    <path d="M0.048,-0L0.048,-0.712L0.352,-0.712L0.352,-0.616L0.15,-0.616L0.15,-0.407L0.326,-0.407L0.326,-0.311L0.15,-0.311L0.15,-0.102L0.352,-0.102L0.352,-0L0.048,-0Z" style="fill:#b2453d;fill-rule:nonzero;"/>
                </g>
                <g transform="matrix(177.618,0,0,177.618,1160.91,1209.85)">
                    <path d="M0.15,-0.616L0.15,-0.394L0.208,-0.394C0.226,-0.394 0.24,-0.397 0.251,-0.402C0.262,-0.407 0.27,-0.414 0.276,-0.423C0.281,-0.432 0.285,-0.444 0.287,-0.458C0.289,-0.471 0.29,-0.487 0.29,-0.505C0.29,-0.523 0.289,-0.539 0.287,-0.553C0.285,-0.566 0.281,-0.578 0.275,-0.588C0.262,-0.607 0.238,-0.616 0.203,-0.616L0.15,-0.616ZM0.048,-0L0.048,-0.712L0.212,-0.712C0.332,-0.712 0.392,-0.642 0.392,-0.503C0.392,-0.461 0.386,-0.425 0.373,-0.396C0.36,-0.367 0.337,-0.343 0.304,-0.325L0.414,-0L0.306,-0L0.211,-0.304L0.15,-0.304L0.15,-0L0.048,-0Z" style="fill:#b2453d;fill-rule:nonzero;"/>
                </g>
                <g transform="matrix(177.618,0,0,177.618,1233.38,1209.85)">
                    <path d="M0.143,-0L0.143,-0.301L0.003,-0.712L0.111,-0.712L0.193,-0.429L0.195,-0.429L0.277,-0.712L0.385,-0.712L0.245,-0.301L0.245,-0L0.143,-0Z" style="fill:#b2453d;fill-rule:nonzero;"/>
                </g>
            </g>
            <g transform="matrix(0.597167,0,0,0.597167,754.455,534.043)">
                <g transform="matrix(0.300023,0,0,0.300023,856.756,1927.3)">
                    <g>
                        <g transform="matrix(463.633,0,0,463.633,436.699,1189.97)">
                            <path d="M0.223,-0.275L0.176,-0.529L0.174,-0.53L0.126,-0.326L0.223,-0.275ZM-0.017,-0.181L0.136,-0.733L0.217,-0.691L0.365,0.023L0.268,-0.029L0.24,-0.18L0.109,-0.25L0.08,-0.129L-0.017,-0.181Z" style="fill:#d0966e;fill-rule:nonzero;"/>
                        </g>
                        <g transform="matrix(463.633,0,0,463.633,625.397,1189.97)">
                            <path d="M0.204,-0.07L0.157,-0.326L0.155,-0.327L0.106,-0.122L0.204,-0.07ZM-0.038,0.025L0.117,-0.531L0.198,-0.489L0.348,0.23L0.25,0.178L0.222,0.026L0.089,-0.045L0.059,0.076L-0.038,0.025Z" style="fill:#d0966e;fill-rule:nonzero;"/>
                        </g>
                        <g transform="matrix(463.633,0,0,463.633,814.096,1189.97)">
                            <path d="M0.09,-0.246L0.089,-0.047L0.145,-0.017L0.187,-0.002L0.211,-0.009L0.222,-0.034L0.225,-0.075L0.222,-0.12L0.211,-0.158L0.141,-0.22L0.09,-0.246ZM-0.011,0.256L-0.008,-0.384L0.151,-0.302C0.26,-0.245 0.325,-0.146 0.324,-0.022L0.305,0.065L0.238,0.094L0.343,0.444L0.238,0.388L0.148,0.066L0.089,0.034L0.087,0.308L-0.011,0.256Z" style="fill:#d0966e;fill-rule:nonzero;"/>
                        </g>
                        <g transform="matrix(463.633,0,0,463.633,1011.6,1189.97)">
                            <path d="M-0.028,-0.02L-0.013,-0.081L0.027,-0.111L0.08,-0.112L0.14,-0.091L0.2,-0.05L0.255,0.008L0.293,0.078L0.307,0.155L0.305,0.497L0.29,0.559L0.251,0.587L0.196,0.588L0.136,0.566L0.076,0.524L0.023,0.466L-0.015,0.398L-0.03,0.32L-0.028,-0.02ZM0.07,0.373L0.09,0.433L0.137,0.474L0.184,0.483L0.205,0.444L0.207,0.102L0.187,0.042L0.14,0.002L0.092,-0.007L0.072,0.032L0.07,0.373Z" style="fill:#d0966e;fill-rule:nonzero;"/>
                        </g>
                        <g transform="matrix(463.633,0,0,463.633,1209.11,1189.97)">
                            <path d="M-0.038,0.695L-0.034,0.046L0.063,0.096L0.213,0.568L0.215,0.569L0.217,0.176L0.318,0.229L0.314,0.882L0.219,0.832L0.067,0.359L0.065,0.358L0.063,0.749L-0.038,0.695Z" style="fill:#d0966e;fill-rule:nonzero;"/>
                        </g>
                        <g transform="matrix(463.633,0,0,463.633,1414.96,1189.97)">
                            <path d="M0.294,0.638L0.192,0.584L0.192,0.563L0.176,0.498L0.121,0.446L0.087,0.436L0.066,0.443L0.055,0.465L0.051,0.495L0.053,0.528L0.06,0.555L0.077,0.581L0.109,0.613L0.186,0.682L0.241,0.739L0.274,0.794L0.288,0.852L0.292,0.919L0.282,0.991L0.253,1.036L0.197,1.048L0.114,1.018L0.046,0.97L-0.009,0.907L-0.045,0.839L-0.058,0.771L-0.057,0.736L0.044,0.789L0.044,0.819L0.06,0.874L0.115,0.924L0.156,0.939L0.178,0.931L0.188,0.905L0.19,0.866L0.188,0.822L0.18,0.791L0.162,0.765L0.132,0.735L0.059,0.669L-0.029,0.557L-0.05,0.443L-0.039,0.378L-0.006,0.338L0.048,0.328L0.125,0.354L0.195,0.403L0.249,0.466L0.295,0.591L0.294,0.638Z" style="fill:#d0966e;fill-rule:nonzero;"/>
                        </g>
                        <g transform="matrix(463.633,0,0,463.633,406.794,1589.97)">
                            <path d="M0.028,-0.291L0.03,-0.92L0.174,-0.842L0.244,-0.795L0.299,-0.731L0.333,-0.654L0.342,-0.559L0.337,-0.49L0.314,-0.447L0.261,-0.427L0.174,-0.457L0.125,-0.484L0.124,-0.238L0.028,-0.291ZM0.126,-0.783L0.125,-0.569L0.172,-0.544L0.217,-0.527L0.241,-0.537L0.25,-0.565L0.251,-0.607L0.251,-0.65L0.242,-0.69L0.22,-0.725L0.176,-0.756L0.126,-0.783Z" style="fill:#d0966e;fill-rule:nonzero;"/>
                        </g>
                        <g transform="matrix(463.633,0,0,463.633,595.493,1589.97)">
                            <path d="M0.324,-0.545L0.322,-0.051L0.309,0.001L0.275,0.029L0.224,0.033L0.163,0.011L0.103,-0.033L0.053,-0.093L0.019,-0.158L0.006,-0.222L0.008,-0.713L0.106,-0.661L0.104,-0.178L0.121,-0.119L0.163,-0.08L0.206,-0.072L0.224,-0.113L0.226,-0.597L0.324,-0.545Z" style="fill:#d0966e;fill-rule:nonzero;"/>
                        </g>
                        <g transform="matrix(463.633,0,0,463.633,793.001,1589.97)">
                            <path d="M-0.045,0.125L-0.044,0.045L0.143,-0.327L-0.033,-0.421L-0.032,-0.507L0.251,-0.356L0.25,-0.283L0.059,0.096L0.248,0.199L0.247,0.285L-0.045,0.125Z" style="fill:#d0966e;fill-rule:nonzero;"/>
                        </g>
                        <g transform="matrix(463.633,0,0,463.633,947.39,1589.97)">
                            <path d="M-0.057,0.301L-0.056,0.22L0.133,-0.154L-0.044,-0.249L-0.044,-0.335L0.241,-0.183L0.241,-0.109L0.047,0.271L0.238,0.375L0.237,0.462L-0.057,0.301Z" style="fill:#d0966e;fill-rule:nonzero;"/>
                        </g>
                        <g transform="matrix(463.633,0,0,463.633,1101.78,1589.97)">
                            <path d="M-0.034,0.496L-0.03,-0.15L0.07,-0.096L0.066,0.458L0.264,0.566L0.264,0.659L-0.034,0.496Z" style="fill:#d0966e;fill-rule:nonzero;"/>
                        </g>
                        <g transform="matrix(463.633,0,0,463.633,1273.32,1589.97)">
                            <path d="M-0.041,0.694L-0.037,0.045L0.264,0.206L0.263,0.294L0.063,0.186L0.062,0.378L0.236,0.472L0.236,0.56L0.061,0.465L0.06,0.656L0.26,0.765L0.259,0.859L-0.041,0.694Z" style="fill:#d0966e;fill-rule:nonzero;"/>
                        </g>
                        <g transform="matrix(463.633,0,0,463.633,1444.87,1589.97)">
                            <path d="M0.288,0.607L0.186,0.552L0.186,0.531L0.17,0.466L0.115,0.413L0.081,0.402L0.06,0.409L0.048,0.43L0.045,0.46L0.046,0.493L0.054,0.52L0.071,0.547L0.102,0.579L0.18,0.65L0.235,0.708L0.268,0.763L0.282,0.821L0.286,0.888L0.276,0.96L0.247,1.004L0.191,1.015L0.108,0.984L0.04,0.935L-0.015,0.872L-0.051,0.803L-0.064,0.734L-0.064,0.699L0.038,0.755L0.038,0.784L0.054,0.839L0.109,0.89L0.149,0.906L0.172,0.898L0.182,0.872L0.184,0.833L0.182,0.79L0.174,0.758L0.156,0.732L0.125,0.702L0.053,0.634L-0.035,0.521L-0.056,0.407L-0.045,0.343L-0.012,0.303L0.042,0.294L0.119,0.321L0.189,0.371L0.243,0.434L0.288,0.561L0.288,0.607Z" style="fill:#d0966e;fill-rule:nonzero;"/>
                        </g>
                        <g transform="matrix(463.633,0,0,463.633,654.838,1989.97)">
                            <path d="M-0.009,-0.111L-0.009,-0.202L0.088,-0.148L0.088,-0.057L-0.009,-0.111Z" style="fill:#d0966e;fill-rule:nonzero;"/>
                        </g>
                        <g transform="matrix(463.633,0,0,463.633,741.074,1989.97)">
                            <path d="M0.3,-0.016L0.3,0.024L0.287,0.073L0.254,0.102L0.204,0.106L0.143,0.084L0.087,0.045L0.035,-0.009L-0.003,-0.076L-0.017,-0.156L-0.015,-0.506L-0.004,-0.558L0.029,-0.586L0.08,-0.589L0.144,-0.565L0.257,-0.461L0.29,-0.394L0.302,-0.325L0.301,-0.289L0.203,-0.344L0.203,-0.374L0.187,-0.43L0.143,-0.474L0.094,-0.48L0.082,-0.433L0.081,-0.108L0.093,-0.054L0.14,-0.009L0.16,-0.001L0.181,0.001L0.196,-0.011L0.202,-0.039L0.202,-0.071L0.3,-0.016Z" style="fill:#d0966e;fill-rule:nonzero;"/>
                        </g>
                        <g transform="matrix(463.633,0,0,463.633,929.772,1989.97)">
                            <path d="M-0.031,-0.281L-0.016,-0.341L0.023,-0.369L0.076,-0.369L0.136,-0.346L0.195,-0.303L0.249,-0.245L0.287,-0.174L0.301,-0.097L0.299,0.243L0.284,0.304L0.246,0.331L0.192,0.33L0.132,0.307L0.072,0.263L0.02,0.204L-0.019,0.135L-0.033,0.057L-0.031,-0.281ZM0.066,0.112L0.085,0.173L0.132,0.215L0.18,0.225L0.2,0.187L0.202,-0.152L0.182,-0.212L0.135,-0.254L0.088,-0.264L0.068,-0.226L0.066,0.112Z" style="fill:#d0966e;fill-rule:nonzero;"/>
                        </g>
                        <g transform="matrix(463.633,0,0,463.633,1127.28,1989.97)">
                            <path d="M-0.04,0.444L-0.036,-0.201L0.06,-0.148L0.186,0.265L0.188,0.267L0.318,-0.006L0.416,0.048L0.411,0.698L0.311,0.641L0.314,0.247L0.312,0.246L0.21,0.469L0.16,0.441L0.064,0.108L0.062,0.107L0.06,0.5L-0.04,0.444Z" style="fill:#d0966e;fill-rule:nonzero;"/>
                        </g>
                    </g>
                </g>
            </g>
        </g>
    </g>
</svg>
