<svg clip-rule="evenodd" stroke-linecap="round" stroke-linejoin="round" stroke-miterlimit="10" viewBox="1.50882 565.571 403.045 460.289" xmlns="http://www.w3.org/2000/svg"><g fill="#fddf19"><path d="m73.4242 898.726 4.2433-11.879-.0826-.049-8.3738 9.434zm-16.4974 4.123 23.9772-25.521 3.511 2.078-10.8422 33.297-4.2131-2.494 2.5019-7.053-5.7414-3.399-4.9802 5.586z"/><path d="m90.2354 908.678 4.2433-11.88-.0826-.049-8.3738 9.435zm-16.4974 4.123 23.9772-25.522 3.5108 2.079-10.842 33.297-4.2131-2.494 2.5019-7.053-5.7414-3.399-4.9803 5.586z"/><path d="m111.725 900.928-5.429 9.169 2.396 1.419c.744.44 1.397.687 1.96.741.562.054 1.082-.038 1.558-.277.448-.255.881-.64 1.298-1.156.417-.515.845-1.145 1.285-1.888.44-.744.786-1.422 1.038-2.036.251-.613.375-1.2.372-1.759-.067-1.081-.83-2.053-2.289-2.917zm-19.2758 22.949 17.4098-29.409 6.774 4.01c4.957 2.935 5.731 7.279 2.324 13.034-1.027 1.735-2.167 3.05-3.421 3.943-1.255.894-2.776 1.313-4.566 1.258l-3.403 16.114-4.461-2.641 3.509-14.88-2.519-1.491-7.4337 12.557z"/><path d="m123.099 911.677c.701-1.184 1.527-2.108 2.478-2.772s1.95-1.096 2.997-1.294c1.003-.187 2.014-.183 3.034.011 1.019.194 1.955.544 2.809 1.049.854.506 1.611 1.158 2.271 1.959.661.8 1.164 1.693 1.51 2.678.302.997.391 2.073.266 3.226s-.538 2.322-1.239 3.506l-9.193 15.53c-.734 1.24-1.568 2.178-2.503 2.814-.934.637-1.903 1.049-2.907 1.236-1.047.198-2.08.2-3.099.006-1.019-.195-1.956-.544-2.809-1.05-.854-.505-1.611-1.158-2.271-1.958-.661-.8-1.142-1.698-1.445-2.696-.346-.985-.465-2.041-.356-3.167.109-1.125.53-2.308 1.263-3.547zm-4.981 18.025c-.603 1.019-.765 1.936-.485 2.752.279.816.804 1.453 1.575 1.909.771.457 1.581.611 2.431.463.85-.147 1.576-.731 2.179-1.75l9.194-15.53c.603-1.019.765-1.937.486-2.753s-.804-1.452-1.575-1.908c-.771-.457-1.582-.611-2.431-.464-.85.148-1.577.731-2.18 1.75z"/><path d="m127.476 944.613 17.41-29.41 4.048 2.397-4.129 21.485.082.049 10.49-17.72 4.213 2.494-17.409 29.409-3.966-2.347 4.022-21.493-.083-.049-10.465 17.679z"/><path d="m159.293 933.55 4.304-7.27 3.304 1.956-4.303 7.27z"/><path d="m179.691 947.242-4.213-2.494.562-.95c.571-.963.837-1.931.798-2.902-.038-.971-.595-1.775-1.669-2.41-.578-.343-1.111-.51-1.6-.501-.488.008-.94.112-1.356.312-.432.228-.824.544-1.176.95-.351.405-.674.856-.967 1.351-.343.579-.607 1.073-.794 1.483s-.288.815-.302 1.216.072.805.259 1.213c.186.407.489.884.909 1.431l2.464 3.187c.725.913 1.233 1.781 1.526 2.605s.417 1.651.373 2.48c-.088.84-.326 1.713-.713 2.618s-.898 1.894-1.534 2.968c-.734 1.239-1.538 2.316-2.414 3.229-.875.914-1.808 1.579-2.799 1.996-1.035.429-2.151.587-3.348.473s-2.47-.57-3.819-1.369c-1.019-.603-1.863-1.344-2.533-2.224-.669-.879-1.133-1.823-1.391-2.832-.258-1.008-.325-2.042-.2-3.102.126-1.06.482-2.085 1.069-3.077l.929-1.569 4.213 2.494-.782 1.321c-.457.772-.641 1.601-.554 2.49.088.888.669 1.651 1.743 2.286.716.424 1.334.651 1.856.681s1.007-.083 1.455-.338c.449-.255.852-.639 1.212-1.152.359-.512.734-1.099 1.125-1.76.457-.771.804-1.42 1.042-1.949.239-.528.365-.992.379-1.393-.013-.417-.121-.816-.324-1.196s-.5-.835-.893-1.365l-2.282-3.024c-1.377-1.82-2.013-3.526-1.907-5.118s.705-3.31 1.797-5.155c.652-1.102 1.423-2.059 2.313-2.871s1.849-1.396 2.879-1.754c1.002-.373 2.077-.509 3.224-.406 1.148.103 2.341.522 3.581 1.255 1.046.62 1.889 1.379 2.528 2.278s1.088 1.853 1.346 2.861c.485 2.071.221 3.961-.789 5.668z"/></g><g fill="#fddf19"><path d="m231.895 963.918-16.73-29.801 6.404-3.595c1.172-.658 2.291-1.084 3.356-1.278 1.065-.195 2.18-.105 3.344.269s2.179 1.006 3.046 1.896c.866.89 1.801 2.227 2.803 4.013.752 1.34 1.31 2.513 1.673 3.52.364 1.007.522 2.056.474 3.147-.038 1.306-.393 2.505-1.064 3.597s-1.802 2.085-3.392 2.978l-2.177 1.222 6.533 11.636zm-10.205-28.179 5.687 10.129 2.05-1.152c.865-.485 1.465-.987 1.798-1.504.333-.518.486-1.062.459-1.634-.012-.544-.169-1.135-.472-1.772s-.665-1.333-1.088-2.086c-.392-.698-.778-1.353-1.158-1.965-.381-.612-.816-1.093-1.305-1.442-.49-.349-1.028-.523-1.616-.524-.587 0-1.299.234-2.137.704z"/><path d="m246.013 916.8 12.97 23.104c.548.977.879 1.974.993 2.993.113 1.019.029 2.03-.253 3.032-.281 1.002-.739 1.919-1.372 2.752-.634.833-1.425 1.515-2.373 2.048-.949.533-1.937.849-2.964.948s-2.041.008-3.043-.273c-1.002-.282-1.916-.732-2.74-1.352-.825-.619-1.512-1.417-2.06-2.394l-12.971-23.104 4.27-2.397 12.735 22.686c.595 1.06 1.285 1.7 2.069 1.921.785.22 1.553.119 2.307-.304.753-.423 1.24-1.027 1.46-1.811.221-.784.033-1.707-.562-2.767l-12.736-22.686z"/><path d="m265.38 945.12-2.115-3.767-4.324-26.527-7.617 4.277-2.256-4.019 12.264-6.884 1.903 3.39 4.367 26.998 8.204-4.605 2.256 4.018z"/><path d="m279.317 937.296-2.114-3.767-4.324-26.528-7.617 4.277-2.256-4.018 12.263-6.885 1.904 3.39 4.367 26.998 8.204-4.605 2.256 4.018z"/><path d="m294.637 928.696-16.731-29.801 4.27-2.397 14.333 25.532 8.455-4.747 2.397 4.27z"/><path d="m310.123 920.002-16.73-29.801 12.724-7.144 2.256 4.019-8.455 4.746 4.911 8.748 7.366-4.136 2.256 4.018-7.366 4.136 4.911 8.748 8.454-4.747 2.397 4.27z"/><path d="m327.509 882.333-4.27 2.397-.54-.963c-.548-.977-1.252-1.692-2.112-2.145s-1.834-.374-2.922.237c-.586.329-.998.707-1.236 1.134-.237.427-.373.87-.409 1.33-.019.489.058.986.233 1.494.175.507.403 1.012.685 1.514.329.586.624 1.063.885 1.43.262.367.562.657.902.87s.733.341 1.179.384 1.011.02 1.694-.07l3.993-.536c1.153-.17 2.159-.175 3.019-.015.86.159 1.638.465 2.333.919.683.498 1.319 1.141 1.908 1.929.59.788 1.19 1.727 1.801 2.815.705 1.256 1.233 2.491 1.585 3.706.352 1.216.461 2.357.325 3.423-.147 1.111-.57 2.155-1.268 3.134s-1.731 1.853-3.098 2.62c-1.032.58-2.097.939-3.193 1.077-1.097.139-2.146.067-3.148-.214-1.002-.282-1.931-.742-2.785-1.382-.855-.639-1.564-1.461-2.128-2.466l-.893-1.59 4.27-2.397.752 1.339c.438.782 1.064 1.357 1.877 1.726.813.37 1.763.249 2.851-.362.726-.407 1.232-.829 1.519-1.266.287-.436.433-.912.437-1.428s-.126-1.058-.39-1.626c-.263-.567-.583-1.186-.959-1.856-.439-.781-.827-1.407-1.165-1.878-.337-.471-.676-.813-1.016-1.026-.367-.197-.767-.303-1.197-.318-.431-.016-.974.014-1.629.088l-3.761.46c-2.264.281-4.059-.024-5.384-.913s-2.512-2.269-3.561-4.138c-.627-1.116-1.069-2.263-1.326-3.44s-.282-2.3-.075-3.37c.178-1.055.6-2.053 1.264-2.994.664-.942 1.624-1.765 2.879-2.47 1.061-.595 2.14-.944 3.238-1.047s2.149-.014 3.151.268c2.035.619 3.538 1.793 4.51 3.523z"/></g><path d="m192.659 575.405h5.821l184.798 101.41s.216-43.239.216 14.595v96.495h-185.014-185.0138v-106.41z" fill="#00b9ab"/><path d="m195.361 929.758-118.5406-68.44c-1.7228-.994-3.1194-3.413-3.1194-5.403v-136.878c0-1.989 1.3966-4.408 3.1194-5.403l118.5406-68.439c1.722-.995 4.516-.995 6.238 0l118.541 68.439c1.722.995 3.119 3.414 3.119 5.403v136.878c0 1.99-1.397 4.409-3.119 5.403l-118.541 68.44c-1.722.994-4.516.994-6.238 0z" fill="#e3f501" stroke="#150f0f" stroke-linecap="butt" stroke-linejoin="round" stroke-width="8.01732"/><path d="m198.48 776.665 124.73-56.062v138.216l-124.779 71.685" fill-opacity=".3"/><g fill="#5251f5"><path d="m277.119 635.353-13.302 22.47c-1.19 2.01-2.818 3.315-4.883 3.914-1.025.286-2.085.365-3.18.237-1.096-.128-2.222-.534-3.379-1.219-1.349-.798-2.296-1.759-2.84-2.881-.545-1.121-.907-2.126-1.088-3.014l4.869-.688c.124.483.324.945.601 1.388s.636.795 1.076 1.056c.248.146.566.269.953.369.388.099.815.1 1.28.004.45-.068.906-.273 1.367-.613.462-.34.913-.882 1.353-1.625l12.96-21.892z"/><path d="m278.272 661.862 4.243-11.88-.083-.049-8.373 9.435zm-16.498 4.123 23.978-25.522 3.511 2.079-10.843 33.297-4.213-2.494 2.502-7.054-5.741-3.398-4.98 5.586z"/><path d="m299.761 654.112-5.428 9.169 2.395 1.418c.744.441 1.397.688 1.96.742s1.082-.038 1.558-.277c.449-.255.881-.64 1.298-1.156.417-.515.845-1.145 1.286-1.888.44-.744.786-1.422 1.037-2.036.252-.613.376-1.2.373-1.759-.067-1.081-.83-2.054-2.29-2.918zm-19.275 22.949 17.409-29.409 6.774 4.01c4.957 2.934 5.732 7.279 2.325 13.034-1.027 1.735-2.168 3.049-3.422 3.943s-2.776 1.313-4.565 1.258l-3.404 16.114-4.461-2.641 3.51-14.88-2.52-1.491-7.433 12.556z"/></g><g fill="#5251f5"><path d="m86.7443 681.55 1.0339 1.842c.5169.92.8321 1.89.9454 2.909s.0432 2.022-.2104 3.008c-.2536.987-.6862 1.899-1.2979 2.738s-1.3919 1.525-2.3406 2.057c-.8092.455-1.695.805-2.6574 1.052-.9625.247-1.9352.279-2.9182.097-.9829-.182-1.9374-.592-2.8634-1.228-.9259-.636-1.7727-1.638-2.5403-3.005l-9.2109-16.407c-.5483-.977-.89-1.978-1.0251-3.003s-.068-2.017.2012-2.975c.2693-.959.7315-1.851 1.3868-2.678.6552-.826 1.499-1.529 2.5315-2.109 2.009-1.128 4.0095-1.389 6.0014-.782.9742.297 1.8824.787 2.7247 1.47.8422.684 1.5531 1.541 2.1327 2.574l.9399 1.674-4.2692 2.397-.7989-1.423c-.47-.837-1.1145-1.43-1.9334-1.777-.819-.348-1.6331-.295-2.4423.16-1.0604.595-1.5809 1.318-1.5615 2.17.0193.852.3109 1.78.8749 2.784l8.553 15.235c.4856.865 1.0813 1.485 1.7869 1.86.7057.374 1.5468.287 2.5234-.261.2791-.157.5516-.374.8177-.652.2661-.277.476-.606.6297-.986.1258-.364.1627-.789.1109-1.273-.0519-.485-.2424-1.02-.5713-1.606l-.8224-1.465z"/><path d="m81.9546 665.468c-.6736-1.2-1.0596-2.378-1.158-3.534-.0984-1.155.0289-2.236.3819-3.241.3407-.962.8504-1.836 1.5292-2.62.6787-.785 1.4506-1.42 2.3156-1.906s1.8092-.814 2.8326-.985c1.0233-.17 2.0483-.159 3.0749.036 1.0143.238 1.9892.699 2.9247 1.385s1.74 1.629 2.4136 2.829l8.8349 15.737c.705 1.256 1.099 2.448 1.182 3.576.082 1.128-.047 2.173-.387 3.135-.353 1.005-.869 1.9-1.548 2.685s-1.451 1.42-2.316 1.905c-.865.486-1.809.814-2.8322.985-1.0233.171-2.0422.137-3.0565-.101-1.0266-.194-1.9997-.62-2.9196-1.278-.9198-.658-1.7322-1.615-2.4371-2.87zm13.1042 13.341c.5796 1.032 1.2925 1.632 2.1387 1.799.8461.167 1.6599.032 2.4412-.407s1.3213-1.063 1.6183-1.872c.298-.809.157-1.73-.422-2.763l-8.8351-15.737c-.5796-1.033-1.2925-1.633-2.1387-1.8-.8461-.167-1.6599-.031-2.4412.407-.7813.439-1.3209 1.063-1.6187 1.872-.2979.81-.1571 1.731.4225 2.763z"/><path d="m99.785 655.458c-.6736-1.2-1.0596-2.378-1.158-3.533-.0984-1.156.0289-2.237.3819-3.242.3407-.962.8504-1.836 1.5291-2.62.679-.785 1.451-1.42 2.316-1.906.865-.485 1.809-.814 2.832-.985 1.024-.17 2.049-.159 3.075.036 1.014.238 1.989.7 2.925 1.385.935.686 1.74 1.629 2.414 2.829l8.835 15.738c.704 1.255 1.098 2.447 1.181 3.575s-.046 2.173-.387 3.135c-.353 1.005-.869 1.9-1.548 2.685-.678.785-1.45 1.42-2.315 1.905-.865.486-1.809.814-2.833.985-1.023.171-2.042.137-3.056-.1-1.027-.195-2-.621-2.92-1.279s-1.732-1.615-2.437-2.87zm13.104 13.341c.58 1.032 1.293 1.632 2.139 1.799.846.168 1.66.032 2.441-.407.781-.438 1.321-1.062 1.619-1.872.298-.809.157-1.73-.423-2.763l-8.835-15.737c-.579-1.033-1.292-1.633-2.138-1.8-.847-.167-1.66-.031-2.442.407-.781.439-1.32 1.063-1.618 1.873-.298.809-.157 1.73.422 2.762z"/><path d="m130.649 668.077-16.73-29.802 4.269-2.396 7.637 13.603.084-.047-1.401-17.104 4.27-2.397.878 15.195 16.94 13.995-4.52 2.538-12.281-10.501.118 5.604 5.005 8.915z"/><path d="m148.605 657.996-16.73-29.801 4.269-2.397 16.73 29.801z"/><path d="m157.018 653.273-16.73-29.801 12.724-7.143 2.256 4.018-8.455 4.747 4.911 8.747 7.366-4.135 2.256 4.018-7.366 4.135 4.91 8.748 8.455-4.746 2.397 4.269z"/></g><g fill="none" stroke-linecap="butt" stroke-linejoin="round"><path d="m198.48 796.572v133.932" stroke="#150f0f" stroke-width="3"/><path d="m198.471 776.665-.04 19.907" stroke="#000" stroke-opacity=".25" stroke-width="3"/><path d="m198.48 796.572v114.025" stroke="#3c1959" stroke-width="3"/><path d="m323.259 740.51-124.779 56.062" stroke="#3c1959" stroke-width="3"/><path d="m323.21 720.603-124.779 56.062" stroke="#97a301" stroke-width="3"/><path d="m198.48 796.572-124.779-56.062" stroke="#3c1959" stroke-width="3"/><path d="m198.431 776.665-124.779-56.062" stroke="#000" stroke-opacity=".25" stroke-width="3"/><path d="m195.361 928.9-118.5406-68.439c-1.7228-.995-3.1194-3.414-3.1194-5.403v-136.878c0-1.99 1.3966-4.409 3.1194-5.404l118.5406-68.439c1.722-.994 4.516-.994 6.238 0l118.541 68.439c1.722.995 3.119 3.414 3.119 5.404v136.878c0 1.989-1.397 4.408-3.119 5.403l-118.541 68.439c-1.722.995-4.516.995-6.238 0z" stroke="#3b1958" stroke-width="8.01732"/><path d="m193.806 997.584-175.7634-101.477c-2.5545-1.475-4.6254-5.062-4.6254-8.011v-202.954c0-2.95 2.0709-6.537 4.6254-8.012l175.7634-101.476c2.554-1.475 6.696-1.475 9.25 0l175.764 101.476c2.554 1.475 4.625 5.062 4.625 8.012v202.954c0 2.949-2.071 6.536-4.625 8.011l-175.764 101.477c-2.554 1.475-6.696 1.475-9.25 0z" stroke="#3b1958" stroke-width="8.01732"/></g><g><path d="m259.352 790.898c-.117-.017-.253-.018-.374 0l-.215-.003.007.035c-.982.129-1.941.815-2.683 2.092l-6.267 10.597c-1.714 2.913-1.759 7.696-.092 10.649l3.58 6.343c.834 1.476 1.939 2.208 3.055 2.224l6.042.01.103-7.32 3.21-5.439c1.714-2.914 1.745-7.697.077-10.651l-.568-1.008.105-7.533z" fill="#202b29"/><path d="m265.332 790.894-5.98.004c-.117-.017-.253-.019-.374 0l-.214-.003.006.035c-.982.129-1.941.815-2.683 2.092l-6.267 10.597" fill="#2e3e3d"/><path d="m258.242 787.024c.572.381 1.075.934 1.469 1.632l4.753 8.42c.532.942.199 2.137-.744 2.669-.942.532-2.137.199-2.669-.743l-4.753-8.42c-.006-.011-.012-.021-.017-.031-.006.009-.012.019-.018.029z" fill="#202b29"/><path d="m254.004 802.636 4.752 8.419c.532.943.199 2.138-.743 2.67-.943.532-2.138.199-2.67-.743l-4.752-8.42c-.006-.011-.012-.021-.018-.032-.006.01-.012.019-.018.029" fill="#010101"/><path d="m256.363 822.835 6.042.01.103-7.32 3.21-5.439c1.714-2.914 1.745-7.697.077-10.651" fill="#ad594e"/><path d="m260.706 820.334 1.418 2.513-5.761-.011c-1.117-.016-2.222-.749-3.055-2.224l-3.58-6.344c-.543-.961-.903-2.113-1.074-3.342l12.174.114z" fill="#010101"/><path d="m262.273 793.056-6.24 10.589c-1.736 2.924-1.764 7.711-.102 10.655l3.58 6.344c1.658 2.938 4.416 2.985 6.151.06l6.24-10.588c1.742-2.916 1.77-7.703.111-10.642l-3.588-6.357c-1.658-2.938-4.407-2.972-6.152-.061z" fill="#3c4d4b"/><path d="m260.257 793.67c.943-.532 1.276-1.727.744-2.669l-4.748-8.414c-.583-1.032-.566-2.964.035-3.976l3.482-5.91c.006-.01.013-.019.018-.028.006.009.012.02.018.031l4.752 8.42c.532.943 1.728 1.275 2.67.743s1.275-1.727.743-2.67l-4.752-8.42c-.792-1.403-2.022-2.218-3.375-2.236-1.356-.018-2.611.769-3.443 2.159l-3.486 5.916c-1.324 2.23-1.358 5.628-.076 7.898l4.748 8.413c.533.942 1.728 1.275 2.67.743z" fill="#699790"/><path d="m259.673 772.669 2.076-3.523c.573.381 1.076.933 1.47 1.631l4.752 8.42c.532.943.199 2.138-.743 2.67s-2.138.199-2.67-.743l-4.752-8.42c-.006-.011-.012-.021-.018-.031-.005.009-.012.018-.018.028l-.601 1.022c.144-.374.311-.728.504-1.054z" fill="#517871"/><path d="m268.425 793.117c-1.658-2.938-4.407-2.972-6.152-.061l-6.24 10.589c-1.736 2.924-1.764 7.711-.102 10.655l3.58 6.344" fill="#2e3e3d"/><path d="m262.547 806.715c-.526-.932-.511-2.447.032-3.368.545-.921 1.419-.913 1.945.019.305.54.427 1.277.37 1.981l1.749 3.098c.075.134.074.352-.004.484l-.929 1.573c-.079.133-.205.132-.28-.002l-1.749-3.099c-.406.082-.829-.146-1.134-.686z" fill="#517871"/><path d="m262.58 803.347c.211-.358.472-.574.743-.651.296.064.58.291.802.684.305.54.427 1.277.371 1.981l1.748 3.097c.076.134.074.353-.004.485l-.863 1.461-1.696-3.004c-.406.083-.829-.145-1.133-.685-.527-.932-.512-2.447.032-3.368zm-11.684.632c.45-.761 1.541-1.377 2.425-1.368.884.008 1.24.638.79 1.399-.449.763-1.54 1.378-2.425 1.369-.884-.009-1.24-.638-.79-1.4z" fill="#435c57"/></g><path d="m258.071 764.639 5.597-2.081-.056 13.733-5.541 2.205z" stroke="#000" stroke-linecap="butt" stroke-linejoin="miter" stroke-width="2"/><path d="m77.9483 721.658 120.4337 55.02v149.451l-121.3906-67.772" fill-opacity=".1"/><path d="m172.595 815.193c-.968-.861-2.001-1.521-3.099-1.98s-1.913-.67-2.444-.634c-.532.036-.963.164-1.294.383-.331.22-.626.732-.885 1.537-.26.805-.29 1.656-.092 2.553.198.898.516 1.676.953 2.335.438.66 1.561 1.695 3.37 3.106 1.809 1.412 2.923 2.374 3.343 2.887.419.513.665.943.737 1.291s-.067.677-.416.988-1.027.246-2.033-.194c-1.007-.441-1.793-1.027-2.358-1.76s-.893-1.346-.983-1.841c-.089-.494-.564-.97-1.424-1.429-.859-.458-1.363-.678-1.509-.66-.147.018-.221.146-.222.384 0 .238.108.76.324 1.565.217.806.581 1.593 1.091 2.363.51.769 1.167 1.52 1.971 2.253s1.928 1.412 3.374 2.036c1.445.623 2.36.926 2.745.908s.899-.319 1.543-.904c.643-.585.985-1.207 1.024-1.866s-.023-1.291-.185-1.895c-.163-.604-.6-1.383-1.311-2.335-.711-.953-1.99-2.162-3.835-3.629-1.846-1.466-2.887-2.437-3.123-2.913s-.327-.852-.271-1.126c.056-.275.195-.485.415-.631s.752-.064 1.593.248c.842.312 1.537.762 2.085 1.348.547.586.921 1.209 1.12 1.868s.728 1.218 1.588 1.677c.43.229.859.458 1.289.687.056-.155.111-.311.167-.466.111-.311.103-.741-.023-1.291-.126-.549-.453-1.282-.981-2.197-.528-.916-1.276-1.805-2.244-2.666zm-11.468-6.162c-.603-.312-1.052-.449-1.345-.413-.294.036-.465 1.693-.514 4.969-.024 1.639-.049 3.277-.073 4.915-.817-2.069-1.634-4.138-2.451-6.208-1.634-4.138-2.798-6.492-3.492-7.06s-1.316-.907-1.866-1.018c-.274-.055-.549-.11-.824-.165-.018 2.425-.036 4.851-.054 7.276-.037 4.851-.01 7.404.081 7.661.091.256.594.595 1.508 1.017.458.211.915.422 1.372.633.016-1.711.031-3.423.047-5.134.016-1.712.031-3.423.047-5.135.853 2.124 1.706 4.249 2.56 6.373 1.707 4.248 2.651 6.51 2.833 6.785.183.274.749.65 1.701 1.127.475.238.951.477 1.426.715.074-2.462.147-4.924.22-7.386.147-4.923.138-7.569-.025-7.935-.164-.366-.547-.705-1.151-1.017zm-17.504-9.161c-1.187-.953-2.321-1.585-3.401-1.898-1.08-.312-2.015-.285-2.805.08-.789.365-1.331.804-1.626 1.316-.295.513-.508 1.089-.639 1.73-.131.64-.08 1.912.151 3.816s.765 3.607 1.603 5.109c.837 1.502 1.639 2.592 2.406 3.27.768.678 1.581 1.246 2.441 1.705.859.458 1.564.743 2.113.853s1.044.138 1.484.084c.44-.055.908-.246 1.404-.575s.855-.686 1.076-1.07c.222-.384.417-1.107.586-2.169.169-1.061.146-2.352-.068-3.871-.215-1.52-.759-3.058-1.633-4.615-.873-1.557-1.904-2.812-3.092-3.765zm30.451 46.269c-.932-.806-1.901-1.429-2.907-1.87-1.007-.44-1.748-.66-2.225-.661-.476 0-.935.146-1.376.438s-.772.75-.994 1.372c-.223.622-.253 1.354-.091 2.196.162.843.498 1.648 1.008 2.418.51.769 1.506 1.731 2.986 2.886 1.48 1.154 2.566 2.135 3.26 2.941.693.806 1.067 1.31 1.121 1.511.054.202-.047.467-.305.796s-.661.439-1.211.328c-.549-.11-1.18-.403-1.893-.88s-1.361-1.274-1.943-2.391-1.194-1.859-1.834-2.226c-.64-.366-1.088-.504-1.345-.413s-.25.641.021 1.648.744 1.959 1.419 2.857c.675.897 1.615 1.777 2.822 2.638 1.206.862 2.303 1.44 3.292 1.733.988.294 1.684.386 2.088.277s.789-.365 1.157-.768c.368-.402.6-.951.694-1.646.094-.696.042-1.373-.158-2.032-.199-.66-.617-1.411-1.256-2.253-.638-.843-1.88-1.997-3.725-3.464-1.846-1.466-2.887-2.437-3.123-2.913-.237-.476-.244-.906-.023-1.291.222-.384.671-.484 1.348-.3.678.183 1.263.468 1.756.853.494.384.886.797 1.178 1.236.291.44.482.907.572 1.401.09.495.61.98 1.561 1.457.476.238.951.477 1.427.715-.017-.384-.034-.768-.051-1.153-.033-.769-.351-1.666-.952-2.692-.601-1.025-1.367-1.941-2.298-2.748zm-29.535-41.298c.527 1.154.826 2.262.895 3.323.069 1.062.011 1.932-.175 2.609-.185.677-.572 1.171-1.16 1.481-.587.311-1.293.264-2.116-.139-.823-.404-1.535-.999-2.137-1.787s-1.065-1.905-1.39-3.351c-.324-1.447-.43-2.563-.317-3.35s.408-1.419.887-1.894c.478-.476.973-.686 1.486-.63.513.055 1.181.404 2.003 1.045.822.642 1.497 1.539 2.024 2.693zm14.995 33.376c-3.128-1.724-4.856-2.595-5.186-2.614-.165-.009-.33-.018-.495-.028-.027 2.353-.054 4.705-.081 7.057-.054 4.704-.054 7.157 0 7.359.054.201 1.837 1.274 5.349 3.217 1.755.972 3.511 1.944 5.267 2.916.047-.348.094-.695.141-1.043.094-.696.059-1.226-.104-1.593-.164-.366-1.453-1.173-3.867-2.42s-3.649-1.971-3.703-2.173c-.054-.201-.08-.778-.076-1.73.004-.951.06-1.464.171-1.537.11-.073 1.207.505 3.292 1.733 1.042.614 2.084 1.229 3.127 1.843.074-.128.147-.256.221-.384.148-.256.177-.751.088-1.483s-1.231-1.676-3.425-2.831c-2.195-1.156-3.291-2.21-3.287-3.161.001-.476.003-.952.005-1.428 1.18.642 2.359 1.284 3.539 1.925 2.359 1.284 3.613 1.798 3.76 1.542.148-.256.177-.751.088-1.483s-1.697-1.96-4.824-3.684zm-28.78-44.647c-.438-.422-1.233-.962-2.385-1.623-1.152-.66-2.396-1.338-3.731-2.035s-2.15-1.027-2.443-.991-.412 2.489-.357 7.358.155 7.414.301 7.634.658.513 1.536.88c.439.183.879.367 1.318.55-.024-.933-.048-1.867-.072-2.8-.048-1.868.001-2.81.148-2.828.146-.019.796.302 1.948.963 1.152.66 1.937 1.365 2.356 2.116s.653 1.822.703 3.213c.049 1.392.605 2.408 1.665 3.05 1.061.642 1.646.926 1.756.853.111-.073.047-.348-.189-.824-.237-.476-.37-1.456-.401-2.938-.032-1.483-.284-2.582-.758-3.296-.237-.357-.474-.715-.711-1.072.276-.182.552-.365.827-.548.551-.366.883-.823.995-1.372s.096-1.171-.048-1.867-.48-1.502-1.008-2.417c-.528-.916-1.011-1.585-1.45-2.006zm-.754 3.349c.235.714.242 1.263.021 1.647-.221.385-.863.375-1.924-.029-1.062-.404-1.866-.78-2.415-1.128-.548-.349-.839-1.145-.871-2.39-.016-.622-.032-1.245-.048-1.867.439.183.879.367 1.318.55.878.367 1.692.817 2.441 1.348.75.532 1.242 1.155 1.478 1.869zm-16.282-12.702c-.859-.458-1.39-.66-1.592-.605-.201.054-1.016 2.177-2.442 6.367-1.427 4.191-1.647 6.552-.659 7.084.494.266.988.532 1.481.798.121-.357.241-.714.362-1.071.241-.714.444-1.125.609-1.235s.788.111 1.867.661 1.865 1.018 2.359 1.403c.493.384.866 1.126 1.118 2.225.253 1.098.873 1.914 1.861 2.445.987.532 1.536.762 1.646.688.111-.073.111-.311.003-.713-.108-.403-1.023-3.397-2.743-8.982s-3.01-8.606-3.87-9.065zm29.712 45.335c-.457-.211-.915-.422-1.372-.633v7.359c0 4.905 1.6 8.275 4.8 10.109 1.6.917 3.201 1.833 4.801 2.75.056-.393.113-.787.169-1.18.113-.787.078-1.318-.104-1.593s-1.343-1.008-3.483-2.2-3.184-3.664-3.133-7.417c.05-3.752.012-5.784-.115-6.095-.127-.312-.648-.678-1.563-1.1zm-8.505-4.567c-1.701-.889-3.402-1.779-5.103-2.668.044.485.088.97.132 1.455.088.971 1.184 2.024 3.287 3.161 1.052.569 2.104 1.137 3.155 1.706-1.121.941-2.243 1.883-3.364 2.825-2.243 1.883-3.375 3.227-3.396 4.032-.022.806 1.742 2.208 5.289 4.207 1.774.999 3.548 1.999 5.322 2.998.02-.449.04-.897.06-1.345.04-.897-1.092-2.006-3.396-3.326-1.152-.66-2.304-1.32-3.456-1.981 1.139-.914 2.279-1.828 3.419-2.742 2.279-1.828 3.447-3.118 3.505-3.868s.014-1.236-.132-1.455c-.146-.22-1.92-1.22-5.322-2.999zm-21.194-36.622c.243 1.026.487 2.051.73 3.076.244 1.026.487 2.051.731 3.076-.512-.293-1.024-.586-1.536-.88-1.024-.587-1.268-1.612-.731-3.076.269-.732.537-1.464.806-2.196zm-13.264-11.023c-.9877-.532-1.5642-.743-1.7295-.634-.1654.11-.9245 2.196-2.2775 6.259-1.353 4.062-1.5174 6.387-.4934 6.973.5121.294 1.0241.587 1.5362.88.1573-.42.3146-.841.472-1.262.1573-.421.3147-.842.472-1.263.6036.312 1.2072.624 1.8112.936 1.207.623 1.993 1.091 2.358 1.402.366.312.675 1.017.927 2.116.253 1.098.873 1.913 1.86 2.445.988.532 1.519.734 1.592.606.074-.128-.749-3.104-2.468-8.926-1.719-5.823-3.072-9-4.06-9.532zm23.678 41.622c-2.872-1.578-4.582-2.421-5.131-2.532-.275-.055-.55-.11-.824-.165.053.439.106.879.16 1.318.106.879 1.257 1.896 3.452 3.051 1.097.578 2.195 1.156 3.292 1.733-1.084.878-2.169 1.755-3.253 2.633-2.169 1.755-3.31 2.788-3.421 3.099s-.122.833-.033 1.565c.089.733 1.825 2.034 5.208 3.904 3.384 1.871 5.13 2.77 5.241 2.696.11-.073.112-.549.005-1.427-.107-.879-1.276-1.924-3.507-3.134-1.115-.605-2.231-1.21-3.347-1.815 1.122-.942 2.243-1.884 3.364-2.825 2.243-1.883 3.321-3.31 3.233-4.28-.088-.971-1.568-2.244-4.439-3.821zm31.303 45.94c-1.28-.734-1.975-1.064-2.085-.991s-.547 1.629-1.31 4.667c-.381 1.519-.762 3.038-1.144 4.557-.368-1.932-.737-3.864-1.105-5.795-.737-3.863-1.178-5.905-1.324-6.124-.146-.22-.795-.66-1.947-1.32-1.152-.661-1.829-.963-2.031-.908-.202.054-.311 2.342-.328 6.864-.017 4.521.048 6.891.194 7.111.145.22.63.532 1.453.935.412.202.823.404 1.235.606.006-1.666.012-3.332.018-4.998.007-1.665.013-3.331.019-4.997.36 1.858.719 3.717 1.079 5.575.719 3.717 1.563 5.887 2.532 6.51.485.312.969.623 1.453.935l1.254-4.392c.418-1.464.835-2.928 1.253-4.392-.024 1.638-.049 3.277-.073 4.915-.049 3.276.32 5.208 1.105 5.795.786.586 1.298.879 1.536.88h.358c.018-2.306.035-4.613.053-6.919.036-4.613-.001-7.002-.111-7.167-.109-.165-.804-.614-2.084-1.347zm-54.996-83.636.786 3.159c.261 1.052.523 2.105.785 3.158-.512-.293-1.024-.587-1.536-.88-1.0241-.587-1.2859-1.64-.7855-3.159.2503-.759.5005-1.518.7505-2.278zm14.941 32.937c-.731-.385-1.198-.551-1.4-.496-.201.055-.263 1.757-.184 5.107s.008 5.217-.213 5.601-.607.521-1.156.411c-.549-.111-1.107-.413-1.674-.908-.566-.495-.967-.98-1.204-1.456-.236-.477-.393-2.509-.472-6.096-.078-3.588-.474-5.621-1.186-6.097-.713-.477-1.235-.724-1.565-.743-.164-.009-.329-.019-.494-.028.039 1.675.079 3.35.118 5.025.08 3.35.255 5.528.526 6.535s.799 2.042 1.583 3.105c.784 1.062 1.724 1.942 2.821 2.638 1.097.697 1.938 1.128 2.524 1.293.586.166 1.219.102 1.898-.19s1.121-.823 1.325-1.591c.205-.769.286-2.801.243-6.096s-.119-5.024-.228-5.189c-.11-.165-.53-.44-1.262-.825zm21.731 40.302c-1.242-.917-2.413-1.486-3.512-1.706-1.099-.221-1.988-.066-2.668.464s-1.114 1.491-1.303 2.882c-.188 1.391-.147 2.709.123 3.954s.833 2.572 1.689 3.983c.856 1.41 1.86 2.564 3.011 3.462s2.267 1.504 3.347 1.816 1.942.295 2.584-.053c.643-.347 1.066-.667 1.268-.959.203-.293.389-.97.558-2.032.169-1.061.118-2.333-.151-3.816s-.85-2.957-1.743-4.423c-.892-1.465-1.96-2.656-3.203-3.572zm1.002 4.202c.637 1.08 1.027 2.087 1.171 3.021.143.934.093 1.876-.148 2.828-.242.952-.574 1.528-.997 1.729-.422.201-.88.228-1.374.081-.495-.147-.988-.413-1.482-.798-.493-.385-1.013-.989-1.56-1.814-.547-.824-.928-1.758-1.144-2.801-.216-1.044-.258-2.005-.127-2.884.132-.878.4-1.491.804-1.838.405-.348.928-.457 1.569-.328.64.128 1.189.358 1.646.688s1.004 1.035 1.642 2.116zm-36.89-51.85c-.73-.623-2.0833-1.466-4.0585-2.53-1.9753-1.063-3.018-1.559-3.1283-1.486-.1102.074-.0644 2.536.1374 7.387s.7601 7.487 1.6748 7.909c.4574.211.9147.422 1.3721.633.0031-.833.0062-1.666.0093-2.499.0031-.832.0063-1.665.0094-2.498l2.0574 1.128c1.3714.751 2.2684 1.146 2.6894 1.183.422.037.825-.072 1.211-.328s.653-.631.801-1.125c.149-.494.206-1.126.172-1.895-.033-.769-.15-1.483-.349-2.142s-.499-1.291-.9-1.895c-.401-.605-.967-1.218-1.698-1.842zm-.56 2.746c.365.549.574 1.044.627 1.483s-.003.833-.169 1.18c-.166.348-.652.393-1.4577.136-.8054-.257-1.473-.605-2.0028-1.045s-.7649-1.273-.7054-2.499c.0298-.614.0596-1.227.0894-1.84.512.293 1.024.587 1.5361.88 1.024.587 1.7184 1.155 2.0824 1.705zm23.774 37.997c-.767-.678-1.471-1.2-2.111-1.567s-1.28-.615-1.921-.743c-.641-.129-1.329-.029-2.063.3-.734.328-1.268 1.078-1.603 2.25-.334 1.171-.394 2.516-.18 4.036.215 1.519.686 2.947 1.414 4.284s1.512 2.4 2.352 3.188 1.58 1.365 2.22 1.732 1.281.614 1.922.743c.64.129 1.282.02 1.925-.327.643-.348 1.103-.85 1.38-1.509s-.05-1.272-.983-1.841c-.932-.568-1.592-.605-1.978-.112-.387.494-1.001.585-1.843.273s-1.591-.962-2.247-1.952c-.656-.989-1.073-2.216-1.251-3.68-.178-1.465-.165-2.462.039-2.993.203-.531.443-.887.719-1.07.275-.183.624-.256 1.045-.219s.943.285 1.564.743 1.205 1.219 1.751 2.281 1.248 1.822 2.108 2.281c.43.229.86.458 1.289.688.001-.238.002-.476.003-.714.002-.476-.124-1.025-.379-1.648-.254-.623-.654-1.346-1.201-2.17-.547-.825-1.204-1.576-1.971-2.254zm-12.052 4.691c-.175.037-.376-.114-.932.186-.351.441-.404.497-.468 1.107-.074.7.097.959.214 1.135.048.073.39.289.475.437.091.157.604.374.724.461.19.138.769-.146.851-.023.11-.073.361-.478.471-.551.221-.146.123-1.543-.113-2.019-.237-.476-.874-.806-1.222-.733z" fill="#00b9ab"/></svg>