<svg clip-rule="evenodd" stroke-linecap="round" stroke-linejoin="round" stroke-miterlimit="10" viewBox="617.193 570.772 403.045 460.289" xmlns="http://www.w3.org/2000/svg"><g fill="#fddf19"><path d="m688.673 903.554 4.243-11.879-.083-.049-8.373 9.434zm-16.498 4.123 23.977-25.521 3.511 2.078-10.842 33.297-4.213-2.494 2.502-7.053-5.741-3.399-4.981 5.586z"/><path d="m705.484 913.506 4.243-11.879-.082-.049-8.374 9.434zm-16.498 4.123 23.978-25.521 3.511 2.078-10.843 33.297-4.213-2.494 2.502-7.053-5.741-3.399-4.98 5.586z"/><path d="m726.973 905.756-5.428 9.17 2.396 1.418c.743.44 1.396.687 1.959.741.563.055 1.082-.038 1.558-.276.449-.256.882-.641 1.298-1.156.417-.516.846-1.146 1.286-1.889.44-.744.786-1.422 1.037-2.035.252-.614.376-1.2.373-1.76-.067-1.081-.83-2.053-2.29-2.917zm-19.275 22.95 17.409-29.41 6.774 4.01c4.957 2.935 5.732 7.279 2.325 13.035-1.027 1.734-2.168 3.049-3.422 3.942-1.254.894-2.776 1.313-4.565 1.258l-3.404 16.114-4.461-2.641 3.51-14.879-2.52-1.492-7.433 12.557z"/><path d="m738.348 916.505c.701-1.184 1.527-2.108 2.478-2.772.95-.664 1.95-1.095 2.997-1.294 1.003-.187 2.014-.183 3.033.011s1.956.544 2.809 1.05c.854.505 1.611 1.158 2.272 1.958.66.8 1.164 1.693 1.51 2.679.302.997.391 2.072.266 3.225s-.538 2.322-1.239 3.506l-9.194 15.531c-.733 1.239-1.568 2.177-2.502 2.813-.935.637-1.904 1.049-2.907 1.236-1.047.198-2.08.2-3.099.006-1.02-.194-1.956-.544-2.81-1.05-.853-.505-1.61-1.158-2.271-1.958s-1.142-1.698-1.444-2.695c-.346-.986-.465-2.042-.356-3.168.108-1.125.529-2.308 1.263-3.547zm-4.981 18.025c-.603 1.019-.765 1.937-.486 2.753s.804 1.452 1.575 1.908c.771.457 1.582.611 2.432.463.849-.147 1.576-.731 2.179-1.749l9.194-15.531c.603-1.019.765-1.936.486-2.753-.28-.816-.805-1.452-1.576-1.908-.771-.457-1.581-.611-2.431-.463-.85.147-1.576.731-2.179 1.749z"/><path d="m742.724 949.441 17.41-29.409 4.048 2.396-4.129 21.485.083.049 10.49-17.72 4.213 2.494-17.41 29.41-3.965-2.348 4.022-21.493-.083-.049-10.465 17.679z"/><path d="m774.542 938.378 4.303-7.27 3.305 1.956-4.304 7.27z"/><path d="m794.94 952.071-4.214-2.495.563-.95c.57-.963.836-1.931.798-2.902-.039-.971-.595-1.775-1.669-2.41-.579-.343-1.112-.51-1.6-.501-.489.008-.941.112-1.357.312-.432.228-.824.544-1.175.95-.352.405-.674.856-.968 1.352-.342.578-.607 1.072-.794 1.482s-.287.815-.301 1.216.072.805.258 1.213c.186.407.49.884.91 1.431l2.464 3.187c.724.913 1.233 1.781 1.526 2.605s.417 1.651.372 2.48c-.088.84-.326 1.713-.713 2.618s-.898 1.894-1.534 2.968c-.733 1.239-1.538 2.316-2.413 3.229-.876.914-1.809 1.579-2.8 1.997-1.034.428-2.15.586-3.347.472-1.197-.113-2.471-.57-3.82-1.368-1.019-.604-1.863-1.345-2.532-2.225-.669-.879-1.133-1.823-1.392-2.831-.258-1.009-.324-2.043-.199-3.103s.482-2.085 1.068-3.077l.93-1.569 4.213 2.494-.783 1.322c-.456.771-.641 1.6-.553 2.489s.668 1.651 1.742 2.286c.716.424 1.335.651 1.856.681.522.03 1.007-.083 1.456-.338.448-.255.852-.639 1.211-1.151.359-.513.734-1.1 1.126-1.76.456-.771.803-1.421 1.042-1.949.238-.529.364-.993.378-1.394-.013-.417-.121-.815-.324-1.196-.202-.38-.5-.835-.893-1.365l-2.281-3.024c-1.378-1.82-2.013-3.525-1.907-5.117.105-1.593.704-3.311 1.797-5.156.652-1.102 1.422-2.058 2.312-2.87s1.85-1.397 2.879-1.754c1.002-.374 2.077-.509 3.225-.406 1.147.103 2.341.521 3.58 1.254 1.046.62 1.889 1.379 2.528 2.278.64.899 1.088 1.853 1.347 2.861.484 2.072.221 3.961-.79 5.668z"/></g><g fill="#fddf19"><path d="m847.144 967.747-16.73-29.802 6.403-3.595c1.172-.658 2.291-1.084 3.356-1.278s2.18-.105 3.344.269 2.18 1.006 3.046 1.896c.867.89 1.801 2.228 2.804 4.013.752 1.34 1.309 2.513 1.673 3.52.363 1.007.521 2.056.473 3.147-.038 1.306-.392 2.505-1.063 3.597-.671 1.093-1.802 2.085-3.393 2.978l-2.176 1.222 6.532 11.636zm-10.205-28.18 5.686 10.129 2.051-1.152c.865-.485 1.464-.987 1.797-1.504.334-.518.487-1.062.459-1.634-.011-.544-.169-1.134-.471-1.772-.303-.637-.666-1.333-1.089-2.086-.392-.698-.778-1.352-1.158-1.965-.38-.612-.815-1.092-1.305-1.441-.489-.349-1.028-.524-1.615-.525-.588 0-1.3.235-2.137.704z"/><path d="m861.261 920.628 12.971 23.104c.548.977.879 1.974.992 2.993s.029 2.03-.252 3.032c-.282 1.002-.739 1.919-1.373 2.752-.633.833-1.424 1.516-2.373 2.048-.949.533-1.936.849-2.963.948s-2.041.008-3.044-.273c-1.002-.282-1.915-.732-2.74-1.352-.825-.619-1.511-1.417-2.06-2.394l-12.97-23.104 4.269-2.397 12.736 22.686c.595 1.06 1.285 1.701 2.069 1.921s1.553.119 2.306-.304c.754-.423 1.241-1.027 1.461-1.811s.033-1.706-.563-2.767l-12.735-22.685z"/><path d="m880.628 948.949-2.115-3.767-4.323-26.528-7.618 4.277-2.256-4.018 12.264-6.885 1.903 3.39 4.368 26.998 8.203-4.605 2.256 4.018z"/><path d="m894.566 941.124-2.115-3.767-4.323-26.527-7.618 4.276-2.256-4.018 12.264-6.885 1.903 3.391 4.368 26.998 8.203-4.606 2.256 4.018z"/><path d="m909.885 932.524-16.73-29.801 4.269-2.397 14.333 25.532 8.455-4.747 2.397 4.27z"/><path d="m925.371 923.83-16.73-29.801 12.724-7.143 2.256 4.018-8.455 4.746 4.911 8.748 7.367-4.136 2.256 4.019-7.367 4.135 4.911 8.748 8.455-4.747 2.396 4.27z"/><path d="m942.757 886.161-4.269 2.397-.541-.963c-.548-.977-1.252-1.691-2.112-2.144-.86-.454-1.834-.375-2.922.236-.586.329-.998.707-1.235 1.134-.238.427-.374.87-.409 1.331-.02.488.058.985.233 1.493.174.507.403 1.012.685 1.514.329.586.624 1.063.885 1.43s.562.657.901.87c.34.213.733.341 1.179.384s1.011.02 1.695-.07l3.993-.536c1.152-.169 2.158-.175 3.018-.015.861.159 1.638.466 2.333.919.683.498 1.319 1.141 1.909 1.929.589.788 1.189 1.727 1.8 2.815.705 1.256 1.234 2.491 1.586 3.706.352 1.216.46 2.357.325 3.423-.147 1.111-.57 2.155-1.268 3.134s-1.731 1.853-3.098 2.62c-1.033.58-2.097.939-3.194 1.078-1.096.138-2.146.067-3.148-.215-1.002-.281-1.93-.742-2.785-1.381-.854-.64-1.563-1.462-2.127-2.467l-.893-1.59 4.269-2.397.752 1.339c.439.782 1.064 1.357 1.877 1.726.813.37 1.764.249 2.852-.362.725-.407 1.232-.829 1.519-1.265.287-.437.432-.913.436-1.429s-.126-1.058-.389-1.625c-.264-.568-.584-1.187-.959-1.856-.439-.782-.827-1.408-1.165-1.879s-.677-.813-1.016-1.026c-.368-.197-.767-.303-1.198-.318-.43-.015-.973.014-1.629.089l-3.76.459c-2.265.281-4.059-.024-5.384-.913s-2.512-2.269-3.562-4.138c-.627-1.116-1.068-2.263-1.325-3.44-.257-1.176-.283-2.3-.076-3.37.179-1.054.6-2.052 1.264-2.994s1.624-1.765 2.88-2.47c1.06-.595 2.139-.944 3.238-1.047 1.098-.103 2.148-.013 3.15.268 2.036.619 3.539 1.793 4.51 3.523z"/></g><path d="m807.908 580.177h5.82l184.965 105.47s.049-47.416.049 10.301v96.3h-185.014-185.013l-.049-106.601z" fill="#ddd"/><path d="m810.585 934.101-118.541-68.439c-1.722-.995-3.119-3.414-3.119-5.403v-136.878c0-1.99 1.397-4.409 3.119-5.404l118.541-68.439c1.722-.994 4.516-.994 6.238 0l118.541 68.439c1.722.995 3.119 3.414 3.119 5.404v136.878c0 1.989-1.397 4.408-3.119 5.403l-118.541 68.439c-1.722.995-4.516.995-6.238 0z" fill="#979aa3" stroke="#150f0f" stroke-linecap="butt" stroke-linejoin="round" stroke-width="8.01732"/><path d="m692.078 726.064 121.553 55.373.097 152.981-124.779-70.88" fill-opacity=".1"/><path d="m813.728 781.437 124.731-56.062v138.216l-124.779 71.685" fill-opacity=".3"/><g fill="none" stroke-linecap="butt" stroke-linejoin="round"><path d="m813.728 801.345v133.931" stroke="#150f0f" stroke-width="3"/><path d="m813.72 781.437-.04 19.908" stroke="#000" stroke-opacity=".25" stroke-width="3"/><path d="m813.728 801.345v114.024" stroke="#150f0f" stroke-width="3"/><path d="m938.508 745.282-124.78 56.063" stroke="#150f0f" stroke-width="3"/><path d="m938.459 725.375-124.779 56.062" stroke="#000" stroke-opacity=".25" stroke-width="3"/><path d="m813.68 781.437-124.78-56.062" stroke="#000" stroke-opacity=".25" stroke-width="3"/><path d="m813.728 801.345-124.779-56.063" stroke="#150f0f" stroke-width="3"/><path d="m810.609 933.672-118.54-68.439c-1.723-.994-3.12-3.413-3.12-5.403v-136.878c0-1.99 1.397-4.409 3.12-5.403l118.54-68.439c1.723-.995 4.516-.995 6.239 0l118.54 68.439c1.723.994 3.12 3.413 3.12 5.403v136.878c0 1.99-1.397 4.409-3.12 5.403l-118.54 68.439c-1.723.995-4.516.995-6.239 0z" stroke="#150f0f" stroke-width="8.01732"/><path d="m809.054 1002.36-175.763-101.481c-2.554-1.475-4.625-5.061-4.625-8.011v-202.954c0-2.95 2.071-6.536 4.625-8.011l175.763-101.477c2.555-1.475 6.696-1.475 9.251 0l175.763 101.477c2.555 1.475 4.625 5.061 4.625 8.011v202.954c0 2.95-2.07 6.536-4.625 8.011l-175.763 101.481c-2.555 1.47-6.696 1.47-9.251 0z" stroke="#000" stroke-width="8.01732"/></g><path d="m874.6 795.826c-.117-.018-.253-.019-.374-.001l-.214-.003.006.035c-.982.129-1.941.816-2.683 2.092l-6.267 10.597c-1.714 2.913-1.758 7.697-.092 10.649l3.581 6.344c.833 1.476 1.938 2.208 3.055 2.224l6.041.009.104-7.32 3.21-5.439c1.713-2.914 1.744-7.696.077-10.651l-.569-1.007.105-7.534z" fill="#202b29"/><path d="m880.581 795.821-5.98.004c-.117-.017-.253-.018-.374 0l-.215-.003.007.035c-.983.129-1.941.815-2.683 2.092l-6.268 10.597" fill="#2e3e3d"/><path d="m873.491 791.952c.572.38 1.075.933 1.469 1.631l4.752 8.42c.532.943.199 2.137-.743 2.669s-2.138.2-2.67-.743l-4.752-8.42c-.006-.01-.012-.021-.018-.031-.006.009-.012.019-.018.029z" fill="#202b29"/><path d="m869.252 807.563 4.753 8.419c.532.943.199 2.138-.744 2.67-.942.532-2.137.199-2.669-.743l-4.753-8.42c-.006-.011-.012-.021-.018-.031-.005.01-.012.019-.017.029" fill="#010101"/><path d="m871.612 827.763 6.041.009.104-7.32 3.21-5.439c1.713-2.914 1.744-7.696.077-10.651" fill="#ad594e"/><path d="m875.954 825.261 1.419 2.513-5.762-.011c-1.116-.016-2.221-.749-3.054-2.224l-3.581-6.344c-.542-.96-.903-2.113-1.074-3.341l12.175.113z" fill="#010101"/><path d="m877.521 797.984-6.239 10.589c-1.736 2.923-1.765 7.711-.103 10.654l3.581 6.344c1.658 2.938 4.415 2.985 6.15.06l6.241-10.587c1.742-2.917 1.769-7.704.11-10.643l-3.587-6.357c-1.659-2.937-4.408-2.972-6.153-.06z" fill="#3c4d4b"/><path d="m875.506 798.597c.942-.531 1.276-1.727.744-2.669l-4.749-8.413c-.582-1.032-.565-2.965.036-3.977l3.482-5.91c.006-.009.012-.018.018-.028.005.01.011.021.017.031l4.753 8.42c.532.943 1.727 1.275 2.669.743s1.276-1.727.744-2.669l-4.753-8.42c-.792-1.404-2.022-2.219-3.375-2.236-1.355-.018-2.61.769-3.443 2.158l-3.486 5.916c-1.323 2.23-1.357 5.628-.076 7.899l4.749 8.412c.532.942 1.727 1.275 2.67.743z" fill="#699790"/><path d="m874.922 777.596 2.076-3.523c.572.382 1.075.934 1.469 1.632l4.753 8.42c.532.942.198 2.137-.744 2.669s-2.137.199-2.669-.743l-4.753-8.42c-.006-.01-.012-.021-.017-.031-.006.01-.012.019-.018.028l-.602 1.022c.145-.373.312-.728.505-1.054z" fill="#517871"/><path d="m883.674 798.044c-1.659-2.938-4.408-2.972-6.153-.06l-6.239 10.589c-1.736 2.923-1.765 7.711-.103 10.654l3.581 6.344" fill="#2e3e3d"/><path d="m877.796 811.642c-.526-.932-.511-2.446.032-3.368.544-.921 1.419-.912 1.944.019.306.541.428 1.277.371 1.981l1.748 3.098c.076.134.074.352-.004.484l-.929 1.574c-.078.132-.204.131-.279-.003l-1.75-3.099c-.406.082-.828-.146-1.133-.686z" fill="#517871"/><path d="m877.828 808.274c.212-.358.473-.573.744-.651.295.064.58.291.802.684.304.54.427 1.277.37 1.981l1.749 3.098c.075.134.073.352-.005.484l-.863 1.461-1.695-3.003c-.407.082-.829-.146-1.134-.686-.526-.932-.511-2.446.032-3.368zm-11.683.632c.449-.761 1.54-1.377 2.424-1.368.885.009 1.24.638.79 1.4-.449.762-1.54 1.378-2.424 1.368-.885-.008-1.24-.638-.79-1.4z" fill="#435c57"/><path d="m873.32 767.58 5.596-2.081-.056 13.733-5.54 2.205z" stroke="#000" stroke-linecap="butt" stroke-linejoin="miter" stroke-width="2"/><g fill="#303030"><path d="m877.995 632.574-23.674 25.626-3.697-2.234 11.719-32.85 4.436 2.681-9.01 22.429.082.049 15.707-18.382z"/><path d="m875.949 657.305 4.351-11.84-.082-.05-8.459 9.358zm-16.534 3.973 24.208-25.303 3.492 2.111-11.144 33.197-4.19-2.532 2.566-7.03-5.711-3.451-5.03 5.541z"/><path d="m909.258 651.466-13.704 22.678c-.579.958-1.284 1.738-2.114 2.339-.831.601-1.752 1.026-2.762 1.275-1.011.25-2.034.304-3.071.164-1.037-.141-2.021-.492-2.952-1.055s-1.693-1.266-2.286-2.111c-.593-.844-1.014-1.771-1.263-2.782-.249-1.01-.308-2.027-.176-3.05s.488-2.014 1.067-2.973l13.704-22.677 4.19 2.532-13.455 22.267c-.629 1.04-.846 1.956-.651 2.747s.663 1.41 1.402 1.857c.74.446 1.505.572 2.296.377s1.5-.813 2.129-1.853l13.456-22.267z"/><path d="m895.526 683.1 17.676-29.25 4.19 2.532-15.143 25.06 8.298 5.014-2.532 4.191z"/><path d="m910.439 692.111 15.292-25.306-4.847-2.929 2.383-3.944 13.885 8.391-2.383 3.944-4.847-2.93-15.293 25.307z"/></g><g fill="#303030"><path d="m726.054 685.226-14.474-25.782-4.939 2.772-2.256-4.018 14.147-7.942 2.256 4.018-4.939 2.773 14.474 25.783z"/><path d="m737.146 679-16.73-29.801 4.269-2.397 7.167 12.766 5.273-2.961-7.166-12.766 4.269-2.397 16.73 29.801-4.269 2.397-7.449-13.268-5.274 2.961 7.449 13.268z"/><path d="m754.976 668.99-16.73-29.801 12.724-7.143 2.256 4.018-8.455 4.746 4.911 8.748 7.366-4.136 2.256 4.018-7.366 4.136 4.911 8.748 8.454-4.747 2.397 4.27z"/></g><path d="m790.039 820.258c-.948-.851-1.963-1.503-3.046-1.957-1.084-.454-1.89-.663-2.419-.628s-.959.161-1.292.377c-.332.216-.634.721-.906 1.516-.272.794-.317 1.634-.136 2.52.182.885.484 1.653.908 2.305.423.651 1.521 1.673 3.295 3.068 1.774 1.394 2.865 2.345 3.273 2.851.408.507.645.932.711 1.275.065.344-.078.669-.431.975-.353.307-1.025.242-2.018-.193-.992-.436-1.763-1.016-2.313-1.739-.549-.724-.864-1.33-.945-1.818-.08-.487-.544-.958-1.39-1.411-.847-.454-1.343-.671-1.489-.653-.146.017-.222.144-.227.378-.005.235.094.75.295 1.546.202.795.55 1.572 1.044 2.332s1.134 1.502 1.92 2.226 1.892 1.394 3.318 2.011c1.425.617 2.33.917 2.713.9.383-.018.899-.315 1.549-.891.649-.577.999-1.191 1.05-1.841.05-.65-.001-1.274-.152-1.87-.151-.597-.572-1.365-1.262-2.306-.691-.941-1.941-2.135-3.75-3.584-1.808-1.449-2.826-2.408-3.053-2.878s-.31-.841-.25-1.112c.061-.271.202-.478.423-.622.222-.144.748-.062 1.58.247.831.309 1.514.752 2.048 1.332.534.579.894 1.194 1.081 1.844.187.651.703 1.203 1.55 1.656.423.227.846.453 1.269.68.058-.153.116-.307.174-.46.116-.307.116-.732 0-1.274s-.429-1.265-.938-2.169c-.509-.905-1.237-1.782-2.184-2.633zm-11.292-6.092c-.594-.308-1.038-.444-1.33-.409-.292.036-.491 1.67-.596 4.904-.052 1.616-.105 3.233-.157 4.85-.777-2.043-1.553-4.086-2.329-6.129-1.553-4.085-2.669-6.409-3.35-6.97-.68-.561-1.292-.897-1.836-1.006-.272-.055-.544-.11-.816-.164-.06 2.393-.12 4.787-.18 7.18-.12 4.787-.137 7.307-.051 7.56.085.253.579.588 1.481 1.006.451.208.902.417 1.353.625.045-1.689.09-3.378.135-5.067.045-1.688.09-3.377.135-5.066.811 2.097 1.623 4.194 2.434 6.291 1.624 4.194 2.523 6.427 2.7 6.698.176.271.733.643 1.67 1.114.469.236.937.472 1.406.708.115-2.43.23-4.859.346-7.289.23-4.859.268-7.469.111-7.831-.156-.362-.531-.696-1.126-1.005zm-17.239-9.056c-1.164-.942-2.28-1.567-3.348-1.877-1.069-.309-1.998-.283-2.789.076-.791.36-1.337.793-1.639 1.298-.303.505-.524 1.074-.665 1.706s-.113 1.887.084 3.766c.197 1.88.698 3.561 1.505 5.043.806 1.483 1.585 2.56 2.336 3.23.751.669 1.549 1.231 2.396 1.684.846.453 1.541.735 2.086.844.544.11 1.035.138 1.473.084.438-.053.907-.242 1.406-.566.498-.324.861-.676 1.088-1.055.226-.379.433-1.092.619-2.139.186-1.048.186-2.321-.001-3.821s-.701-3.018-1.543-4.555c-.841-1.537-1.844-2.777-3.008-3.718zm29.467 45.689c-.912-.797-1.864-1.413-2.857-1.849-.992-.435-1.726-.653-2.199-.654-.474-.001-.932.143-1.375.431-.444.288-.781.739-1.013 1.353-.231.613-.274 1.336-.128 2.167.147.832.467 1.627.961 2.387.494.759 1.466 1.71 2.917 2.851 1.451 1.14 2.515 2.109 3.19 2.905s1.038 1.294 1.088 1.493c.051.198-.055.46-.317.785s-.665.432-1.209.323c-.544-.11-1.166-.4-1.867-.871-.7-.471-1.33-1.258-1.889-2.361-.56-1.103-1.154-1.836-1.784-2.198-.63-.363-1.073-.499-1.33-.41-.257.09-.26.632-.008 1.626.253.994.706 1.935 1.361 2.821.656.887 1.575 1.755 2.759 2.607 1.184.851 2.265 1.422 3.243 1.713.977.291 1.667.383 2.07.275.403-.107.791-.36 1.164-.756.373-.397.612-.939.717-1.625.106-.686.066-1.355-.121-2.005-.187-.651-.59-1.392-1.21-2.225-.62-.832-1.834-1.972-3.643-3.421s-2.827-2.408-3.054-2.878c-.226-.47-.226-.895 0-1.274.227-.379.675-.477 1.345-.295s1.247.463 1.731.843.867.788 1.149 1.222.464.895.544 1.383c.081.488.59.967 1.527 1.439.469.236.937.471 1.406.707-.01-.379-.02-.759-.031-1.138-.02-.759-.32-1.645-.899-2.657-.58-1.013-1.326-1.918-2.238-2.714zm-28.642-40.783c.504 1.139.781 2.232.832 3.28.05 1.048-.023 1.906-.219 2.574s-.589 1.155-1.179 1.461c-.589.306-1.289.259-2.1-.139-.812-.399-1.509-.988-2.094-1.766s-1.026-1.881-1.323-3.308c-.298-1.428-.384-2.53-.258-3.307.126-.776.43-1.399.914-1.868.484-.468.98-.675 1.489-.62.508.055 1.166.4 1.972 1.033.806.634 1.461 1.521 1.966 2.66zm14.327 32.951c-3.078-1.704-4.781-2.565-5.109-2.584-.163-.01-.327-.019-.491-.028-.067 2.321-.135 4.642-.202 6.963-.135 4.643-.177 7.064-.127 7.262.05.199 1.804 1.259 5.26 3.181 1.729.961 3.457 1.921 5.185 2.882.053-.343.106-.686.158-1.029.106-.686.081-1.21-.075-1.572-.157-.362-1.424-1.159-3.802-2.392s-3.593-1.949-3.643-2.148c-.051-.198-.066-.768-.046-1.707s.085-1.445.196-1.517 1.192.499 3.243 1.713c1.025.608 2.05 1.215 3.076 1.822.075-.126.151-.253.226-.379.151-.253.189-.74.113-1.463-.075-.723-1.194-1.655-3.356-2.798-2.161-1.142-3.232-2.183-3.212-3.122.01-.47.02-.939.03-1.409 1.161.635 2.323 1.269 3.484 1.904 2.323 1.269 3.56 1.777 3.711 1.524.151-.252.189-.74.113-1.463s-1.653-1.936-4.732-3.64zm-27.834-44.087c-.429-.417-1.21-.951-2.343-1.604-1.134-.652-2.358-1.323-3.673-2.012s-2.119-1.016-2.411-.98-.453 2.456-.482 7.261.027 7.317.168 7.534.645.507 1.511.87c.434.181.867.363 1.3.544-.008-.921-.015-1.843-.023-2.764-.016-1.842.05-2.773.196-2.791.146-.017.786.3 1.919.953 1.134.652 1.903 1.349 2.306 2.091.403.741.617 1.798.643 3.171.025 1.373.56 2.377 1.603 3.011s1.62.916 1.73.843c.111-.072.053-.343-.174-.813-.226-.47-.343-1.437-.348-2.9s-.237-2.547-.696-3.253c-.229-.353-.459-.705-.688-1.058.277-.18.554-.36.831-.54.554-.361.892-.812 1.013-1.353.12-.542.115-1.156-.016-1.843s-.451-1.482-.96-2.386c-.509-.905-.978-1.565-1.406-1.981zm-.808 3.304c.222.705.219 1.247-.007 1.626-.227.379-.864.369-1.912-.031-1.048-.399-1.842-.771-2.381-1.115-.539-.345-.814-1.131-.824-2.36-.005-.614-.01-1.228-.016-1.842.434.181.867.363 1.3.544.867.363 1.668.807 2.404 1.333.735.525 1.214 1.14 1.436 1.845zm-15.963-12.55c-.847-.453-1.371-.653-1.572-.599-.202.054-1.048 2.148-2.538 6.282s-1.749 6.464-.777 6.989c.487.263.973.526 1.459.789.126-.352.252-.704.378-1.056.251-.704.46-1.11.627-1.218.166-.108.781.11 1.844.654s1.836 1.006 2.32 1.386.842 1.113 1.074 2.197c.232 1.085.834 1.89 1.806 2.415.973.526 1.514.753 1.625.681s.116-.307.015-.705c-.101-.397-.958-3.353-2.571-8.865-1.614-5.513-2.844-8.496-3.69-8.95zm28.749 44.767c-.451-.209-.902-.418-1.353-.626-.042 2.42-.084 4.841-.127 7.262-.084 4.841 1.448 8.168 4.597 9.98 1.575.907 3.149 1.813 4.724 2.719.063-.388.126-.776.189-1.165.125-.776.1-1.3-.076-1.571-.177-.272-1.318-.996-3.424-2.175-2.106-1.178-3.102-3.619-2.987-7.322s.112-5.708-.009-6.016c-.121-.307-.632-.669-1.534-1.086zm-8.374-4.515c-1.675-.879-3.351-1.758-5.026-2.638.035.479.071.958.106 1.436.071.958 1.142 1.999 3.213 3.123 1.035.562 2.07 1.124 3.106 1.686-1.131.928-2.262 1.856-3.393 2.784-2.261 1.857-3.41 3.182-3.445 3.977s1.694 2.18 5.185 4.156c1.746.988 3.492 1.976 5.238 2.964.028-.443.055-.885.083-1.328.055-.885-1.051-1.98-3.318-3.285-1.134-.653-2.268-1.305-3.401-1.958 1.148-.901 2.296-1.802 3.445-2.703 2.297-1.802 3.48-3.073 3.551-3.814.07-.74.035-1.219-.106-1.436-.142-.217-1.887-1.205-5.238-2.964zm-20.435-36.16c.225 1.012.449 2.024.674 3.036.224 1.012.448 2.024.673 3.036-.504-.29-1.008-.58-1.512-.87-1.007-.58-1.232-1.592-.673-3.036.279-.722.559-1.444.838-2.166zm-12.992-10.891c-.973-.526-1.542-.735-1.708-.627-.167.108-.957 2.166-2.372 6.174s-1.618 6.301-.61 6.881c.503.29 1.007.58 1.511.87.164-.415.327-.83.491-1.245s.327-.83.491-1.246c.594.309 1.189.617 1.784.925 1.189.617 1.962 1.079 2.32 1.387.358.307.653 1.003.884 2.088.232 1.084.835 1.889 1.807 2.415.973.526 1.497.725 1.572.599.076-.126-.691-3.063-2.299-8.811-1.609-5.748-2.899-8.885-3.871-9.41zm22.816 41.096c-2.827-1.559-4.512-2.393-5.056-2.502-.273-.055-.545-.11-.817-.164.046.433.091.867.137 1.301.091.867 1.217 1.872 3.378 3.014 1.081.571 2.162 1.142 3.243 1.713-1.093.865-2.186 1.73-3.279 2.595-2.187 1.73-3.337 2.749-3.453 3.056s-.136.821-.06 1.544c.075.723 1.778 2.009 5.109 3.858 3.33 1.849 5.051 2.737 5.162 2.665s.121-.541.03-1.409c-.091-.867-1.235-1.899-3.432-3.095-1.098-.599-2.196-1.197-3.295-1.795 1.131-.928 2.262-1.857 3.393-2.785 2.261-1.856 3.357-3.263 3.286-4.221-.071-.957-1.52-2.216-4.346-3.775zm30.321 45.366c-1.26-.725-1.945-1.052-2.056-.979-.111.072-.571 1.606-1.382 4.603-.405 1.499-.81 2.998-1.215 4.496-.333-1.906-.666-3.813-.999-5.719-.666-3.813-1.07-5.828-1.211-6.045s-.778-.652-1.912-1.305c-1.134-.652-1.801-.952-2.003-.898-.201.054-.349 2.312-.444 6.774s-.071 6.801.07 7.018.617.525 1.428.924c.406.2.811.399 1.217.599.035-1.644.07-3.288.105-4.932s.069-3.288.104-4.931c.326 1.834.651 3.668.976 5.502.651 3.669 1.453 5.811 2.405 6.427l1.428.924c.441-1.444.881-2.889 1.322-4.333.44-1.444.881-2.889 1.321-4.333-.052 1.617-.105 3.233-.157 4.85-.105 3.234.228 5.14.999 5.72.771.579 1.274.869 1.511.87h.355c.058-2.276.115-4.552.173-6.828.114-4.552.119-6.909.013-7.072s-.788-.607-2.048-1.332zm-53.22-82.588c.242 1.04.484 2.079.726 3.118.243 1.039.485 2.078.727 3.118-.504-.29-1.008-.58-1.512-.87-1.008-.58-1.25-1.62-.726-3.118.262-.749.523-1.498.785-2.248zm14.283 32.518c-.721-.381-1.182-.544-1.383-.49-.202.053-.292 1.733-.271 5.039s-.082 5.149-.309 5.527c-.226.379-.612.514-1.156.405-.544-.11-1.093-.409-1.647-.898-.555-.489-.945-.968-1.172-1.438s-.348-2.476-.364-6.017c-.016-3.54-.374-5.546-1.075-6.017-.7-.471-1.214-.716-1.541-.735-.164-.009-.328-.019-.492-.028.011 1.653.021 3.306.032 4.959.021 3.306.157 5.456.409 6.45s.759 2.016 1.52 3.065 1.68 1.918 2.759 2.607c1.078.688 1.907 1.114 2.486 1.278.58.164 1.209.102 1.889-.186.681-.288 1.129-.811 1.345-1.569.217-.758.332-2.763.346-6.015.015-3.252-.031-4.959-.137-5.122s-.519-.434-1.239-.815zm20.904 39.792c-1.22-.905-2.373-1.468-3.462-1.686-1.088-.219-1.975-.067-2.66.455-.685.523-1.133 1.47-1.344 2.843-.211 1.372-.193 2.673.054 3.902s.784 2.54 1.61 3.932c.827 1.393 1.804 2.533 2.933 3.42s2.227 1.486 3.295 1.795 1.925.293 2.57-.049c.644-.342 1.07-.658 1.277-.946.206-.289.402-.957.589-2.004.186-1.048.158-2.303-.084-3.767-.243-1.464-.795-2.919-1.656-4.366-.862-1.447-1.903-2.623-3.122-3.529zm.923 4.148c.615 1.067.985 2.061 1.111 2.983.126.921.061 1.852-.196 2.791-.256.938-.596 1.507-1.019 1.705-.424.198-.88.224-1.368.078-.489-.145-.975-.408-1.459-.788-.484-.381-.99-.978-1.519-1.792s-.892-1.736-1.089-2.766-.222-1.978-.076-2.845.423-1.472.831-1.814.929-.45 1.564-.322 1.176.354 1.625.68c.448.326.98 1.023 1.595 2.09zm-35.771-51.202c-.716-.616-2.046-1.449-3.991-2.501-1.945-1.051-2.973-1.541-3.084-1.469-.11.072-.107 2.502.01 7.289.117 4.788.626 7.39 1.528 7.807.451.209.902.418 1.353.626.017-.822.035-1.644.052-2.466.018-.821.035-1.643.052-2.465.676.371 1.351.743 2.026 1.115 1.35.743 2.234 1.133 2.653 1.17.418.037.821-.071 1.209-.323s.66-.622.816-1.109c.156-.488.224-1.111.203-1.87-.02-.758-.124-1.463-.31-2.114-.187-.651-.474-1.274-.862-1.871s-.94-1.203-1.655-1.819zm-.604 2.709c.352.542.552 1.03.597 1.464s-.017.822-.189 1.165c-.171.343-.655.387-1.451.133-.796-.255-1.453-.599-1.972-1.034s-.739-1.257-.658-2.467c.04-.605.08-1.21.12-1.815.504.29 1.008.58 1.512.87 1.008.58 1.688 1.141 2.041 1.684zm22.974 37.52c-.751-.67-1.441-1.186-2.071-1.549-.63-.362-1.262-.607-1.897-.735s-1.32-.03-2.056.294c-.735.324-1.279 1.063-1.631 2.219-.353 1.155-.436 2.483-.249 3.983s.631 2.909 1.331 4.23c.701 1.32 1.462 2.369 2.283 3.147.821.779 1.547 1.349 2.177 1.712.63.362 1.262.607 1.897.735.296.06.594.068.893.025.34-.049.683-.164 1.026-.347.645-.342 1.111-.837 1.398-1.487s-.028-1.256-.945-1.818c-.917-.561-1.572-.599-1.965-.112s-1.005.576-1.836.268c-.832-.309-1.565-.952-2.2-1.929-.635-.976-1.028-2.187-1.179-3.633-.152-1.445-.122-2.43.09-2.953.211-.524.455-.876.732-1.056s.625-.251 1.043-.214c.418.036.932.281 1.542.734s1.177 1.204 1.701 2.253c.524 1.048 1.209 1.799 2.056 2.253.423.226.846.453 1.269.679.005-.234.01-.469.015-.704.01-.47-.106-1.012-.348-1.627-.242-.614-.627-1.329-1.156-2.143-.529-.813-1.169-1.555-1.92-2.225zm-11.844 3.924c-.77-.035-.653-.081-1.241.554-.223.595-.047.896-.092 1.685-.04.712.136.763.506 1.129.314.311.644.199 1.13.273.444-.171.698-.215.821-.75s.241-1.526-.176-2.107c-.304-.425-.293-.754-.948-.784z" fill="#ddd"/></svg>