<svg clip-rule="evenodd" stroke-linecap="round" stroke-linejoin="round" stroke-miterlimit="10" viewBox="307.351 290.952 403.045 460.289" xmlns="http://www.w3.org/2000/svg"><g fill="#fddf19"><path d="m378.831 624.733 4.243-11.879-.082-.049-8.374 9.434zm-16.498 4.123 23.978-25.521 3.511 2.078-10.843 33.297-4.213-2.494 2.502-7.053-5.741-3.399-4.98 5.587z"/><path d="m395.642 634.685 4.243-11.879-.082-.049-8.374 9.434zm-16.497 4.123 23.977-25.521 3.511 2.078-10.842 33.297-4.214-2.494 2.502-7.053-5.741-3.399-4.98 5.586z"/><path d="m417.131 626.935-5.428 9.17 2.396 1.418c.743.44 1.396.687 1.959.742.563.054 1.082-.038 1.559-.277.448-.255.881-.641 1.297-1.156.417-.516.846-1.145 1.286-1.889.44-.743.786-1.422 1.037-2.035.252-.614.376-1.2.373-1.76-.067-1.081-.83-2.053-2.29-2.917zm-19.275 22.95 17.41-29.409 6.774 4.01c4.956 2.934 5.731 7.279 2.324 13.034-1.027 1.735-2.168 3.049-3.422 3.943-1.254.893-2.776 1.313-4.565 1.257l-3.403 16.114-4.461-2.64 3.509-14.88-2.52-1.492-7.433 12.557z"/><path d="m428.506 637.685c.701-1.184 1.527-2.108 2.478-2.773.951-.664 1.95-1.095 2.997-1.293 1.003-.187 2.014-.184 3.033.01 1.019.195 1.956.545 2.81 1.05.853.505 1.61 1.158 2.271 1.958.66.8 1.164 1.693 1.51 2.679.302.997.391 2.072.266 3.225s-.538 2.322-1.239 3.506l-9.194 15.531c-.733 1.239-1.567 2.177-2.502 2.814-.935.636-1.904 1.048-2.907 1.235-1.047.198-2.08.2-3.099.006-1.02-.194-1.956-.544-2.81-1.049-.853-.506-1.61-1.158-2.271-1.958-.66-.8-1.142-1.699-1.444-2.696-.346-.986-.465-2.042-.356-3.167.108-1.126.529-2.308 1.263-3.548zm-4.981 18.025c-.603 1.018-.765 1.936-.486 2.752s.804 1.452 1.576 1.909c.771.456 1.581.61 2.431.463.849-.148 1.576-.731 2.179-1.75l9.194-15.531c.603-1.019.765-1.936.486-2.752s-.805-1.453-1.576-1.909-1.581-.611-2.431-.463-1.576.731-2.179 1.75z"/><path d="m432.883 670.62 17.409-29.409 4.048 2.396-4.129 21.486.083.048 10.49-17.719 4.213 2.494-17.41 29.409-3.965-2.347 4.022-21.494-.083-.048-10.465 17.678z"/><path d="m464.7 659.557 4.303-7.27 3.305 1.957-4.304 7.269z"/><path d="m485.098 673.25-4.213-2.494.562-.95c.571-.964.836-1.931.798-2.903-.039-.971-.595-1.774-1.669-2.41-.578-.342-1.112-.509-1.6-.501s-.941.113-1.357.313c-.432.227-.824.544-1.175.949-.352.406-.674.856-.968 1.352-.342.578-.607 1.072-.794 1.482s-.287.816-.301 1.216c-.014.401.072.805.258 1.213s.49.885.91 1.431l2.464 3.188c.724.912 1.233 1.78 1.526 2.604.293.825.417 1.651.373 2.48-.089.84-.326 1.713-.713 2.618s-.899 1.895-1.535 2.969c-.733 1.239-1.538 2.315-2.413 3.229-.876.913-1.809 1.578-2.8 1.996-1.034.429-2.15.586-3.347.472-1.197-.113-2.47-.569-3.82-1.368-1.019-.603-1.863-1.345-2.532-2.224-.669-.88-1.133-1.824-1.391-2.832-.259-1.008-.325-2.042-.2-3.102.126-1.06.482-2.086 1.069-3.077l.929-1.57 4.213 2.494-.783 1.322c-.456.771-.641 1.601-.553 2.489.088.889.668 1.651 1.742 2.287.716.424 1.335.65 1.857.68.521.03 1.006-.083 1.455-.338.448-.255.852-.639 1.211-1.151.359-.513.735-1.099 1.126-1.76.456-.771.804-1.421 1.042-1.949s.365-.993.379-1.394c-.014-.417-.122-.815-.324-1.195-.203-.381-.501-.836-.893-1.366l-2.282-3.024c-1.377-1.819-2.013-3.525-1.907-5.117s.705-3.311 1.797-5.156c.652-1.101 1.423-2.058 2.312-2.87.89-.812 1.85-1.397 2.879-1.754 1.003-.374 2.077-.509 3.225-.406s2.341.521 3.58 1.255c1.047.619 1.889 1.378 2.529 2.277.639.899 1.088 1.853 1.346 2.861.484 2.072.221 3.961-.79 5.669z"/></g><g fill="#fddf19"><path d="m537.302 688.926-16.73-29.801 6.404-3.595c1.172-.658 2.29-1.084 3.355-1.279 1.066-.194 2.18-.104 3.344.27 1.165.374 2.18 1.006 3.046 1.895.867.89 1.801 2.228 2.804 4.014.752 1.339 1.309 2.512 1.673 3.519.363 1.007.521 2.056.473 3.148-.038 1.305-.392 2.504-1.063 3.596-.671 1.093-1.802 2.086-3.393 2.978l-2.176 1.222 6.532 11.636zm-10.205-28.18 5.686 10.129 2.051-1.151c.865-.486 1.464-.987 1.798-1.505.333-.517.486-1.062.459-1.634-.012-.543-.169-1.134-.472-1.771-.303-.638-.666-1.333-1.089-2.087-.391-.697-.777-1.352-1.158-1.964-.38-.612-.815-1.093-1.305-1.442-.489-.349-1.028-.524-1.615-.524-.588-.001-1.3.234-2.137.704z"/><path d="m551.419 641.807 12.971 23.104c.548.977.879 1.975.992 2.994s.029 2.029-.252 3.031c-.282 1.002-.739 1.92-1.373 2.752-.633.833-1.424 1.516-2.373 2.048-.949.533-1.936.849-2.963.948-1.027.1-2.041.009-3.043-.273-1.003-.281-1.916-.732-2.741-1.351-.825-.62-1.511-1.418-2.06-2.394l-12.97-23.105 4.269-2.396 12.736 22.685c.595 1.061 1.285 1.701 2.069 1.921s1.553.119 2.306-.304c.754-.423 1.241-1.026 1.461-1.811.22-.784.033-1.706-.562-2.766l-12.736-22.686z"/><path d="m570.786 670.128-2.115-3.767-4.323-26.528-7.618 4.277-2.255-4.018 12.263-6.885 1.904 3.39 4.367 26.999 8.204-4.606 2.255 4.018z"/><path d="m584.724 662.303-2.115-3.767-4.323-26.527-7.618 4.276-2.256-4.018 12.264-6.884 1.903 3.39 4.368 26.998 8.203-4.606 2.256 4.019z"/><path d="m600.043 653.703-16.73-29.801 4.269-2.397 14.334 25.532 8.454-4.746 2.397 4.269z"/><path d="m615.53 645.009-16.731-29.801 12.725-7.143 2.255 4.018-8.455 4.747 4.911 8.747 7.367-4.135 2.256 4.018-7.367 4.135 4.911 8.748 8.455-4.746 2.397 4.269z"/><path d="m632.915 607.34-4.269 2.397-.54-.963c-.549-.976-1.253-1.691-2.113-2.144s-1.834-.374-2.922.237c-.586.329-.998.707-1.235 1.133-.237.427-.374.871-.409 1.331-.02.488.058.986.233 1.493.175.508.403 1.012.685 1.515.329.586.624 1.062.885 1.429.261.368.562.658.901.871.34.212.733.34 1.179.384.447.043 1.011.019 1.695-.071l3.993-.535c1.152-.17 2.158-.175 3.019-.016.86.159 1.637.466 2.332.92.683.497 1.32 1.14 1.909 1.928.589.789 1.189 1.727 1.8 2.815.705 1.256 1.234 2.491 1.586 3.707.352 1.215.46 2.356.325 3.423-.147 1.11-.57 2.155-1.268 3.134s-1.731 1.852-3.098 2.62c-1.033.579-2.097.938-3.194 1.077-1.096.138-2.146.067-3.148-.215-1.002-.281-1.93-.742-2.784-1.381-.855-.64-1.564-1.462-2.128-2.466l-.893-1.591 4.269-2.397.752 1.34c.439.781 1.065 1.356 1.877 1.726.813.369 1.764.248 2.852-.363.726-.407 1.232-.829 1.519-1.265.287-.437.433-.913.437-1.429.003-.516-.126-1.057-.39-1.625s-.583-1.186-.959-1.856c-.439-.781-.827-1.407-1.165-1.878s-.676-.813-1.016-1.026c-.368-.198-.767-.304-1.197-.319-.431-.015-.974.015-1.63.089l-3.76.46c-2.264.28-4.059-.024-5.384-.914-1.325-.889-2.512-2.268-3.562-4.138-.626-1.116-1.068-2.262-1.325-3.439s-.282-2.301-.076-3.371c.179-1.054.6-2.052 1.264-2.994.664-.941 1.624-1.765 2.88-2.47 1.06-.595 2.139-.944 3.238-1.047 1.098-.102 2.148-.013 3.15.268 2.036.619 3.539 1.794 4.51 3.524z"/></g><path d="m498.066 300.357h5.821l185.013 106.081v9.223 95.91h-185.013-185.014l.166-104.108z" fill="#daa987"/><g fill="#d0453b"><path d="m515.451 359.387 17.014-29.64 4.08 2.341-3.555 18.825.083.048 14.42-12.588 4.121 2.365-17.013 29.641-4.246-2.438 10.346-18.025-.083-.048-11.516 10.325-2.123-1.219 3.149-15.128-.084-.047-10.346 18.025z"/><path d="m542.552 374.943 7.193-12.531 3.993-20.455 4.496 2.581-3.349 13.74.083.048 10.176-9.822 4.496 2.581-15.649 13.764-7.193 12.531z"/><path d="m580.602 368.723-4.246-2.437.55-.958c.557-.971.81-1.942.758-2.912-.051-.971-.618-1.767-1.701-2.388-.582-.335-1.118-.494-1.606-.48-.488.015-.939.126-1.352.331-.429.234-.817.555-1.163.966-.346.41-.663.864-.949 1.364-.335.583-.593 1.08-.774 1.493-.182.412-.277.819-.285 1.22-.009.401.082.804.274 1.209s.501.878.929 1.419l2.506 3.154c.737.903 1.257 1.764 1.561 2.584s.44 1.645.406 2.475c-.077.841-.303 1.717-.678 2.627s-.873 1.906-1.494 2.989c-.717 1.249-1.507 2.336-2.37 3.261s-1.787 1.603-2.772 2.033c-1.029.443-2.143.615-3.341.518-1.199-.098-2.478-.537-3.838-1.317-1.027-.59-1.881-1.32-2.562-2.19-.681-.871-1.157-1.809-1.429-2.813-.272-1.005-.352-2.038-.241-3.1.111-1.061.454-2.091 1.027-3.091l.908-1.581 4.246 2.437-.764 1.332c-.446.777-.62 1.609-.52 2.497.099.887.69 1.641 1.773 2.262.721.415 1.343.633 1.865.656s1.005-.096 1.45-.357c.445-.262.844-.651 1.196-1.168s.72-1.109 1.102-1.775c.446-.777.785-1.431 1.016-1.963.231-.531.351-.997.36-1.398-.019-.417-.133-.814-.34-1.192-.208-.377-.512-.828-.911-1.353l-2.323-2.993c-1.401-1.801-2.06-3.498-1.975-5.091.084-1.594.66-3.32 1.727-5.18.638-1.11 1.396-2.077 2.274-2.901.879-.824 1.831-1.421 2.856-1.792.997-.387 2.07-.537 3.219-.449 1.148.087 2.347.489 3.596 1.206 1.055.606 1.908 1.353 2.559 2.244.651.89 1.113 1.838 1.385 2.842.512 2.065.274 3.958-.714 5.679z"/><path d="m574.44 393.246 14.72-25.643-4.912-2.82 2.294-3.996 14.07 8.076-2.294 3.997-4.912-2.82-14.719 25.644z"/><path d="m585.472 399.579 17.014-29.64 12.655 7.264-2.294 3.996-8.409-4.827-4.994 8.701 7.327 4.205-2.294 3.997-7.327-4.206-4.994 8.701 8.409 4.827-2.437 4.246z"/><path d="m619.841 385.214-5.305 9.241 2.415 1.386c.749.43 1.405.669 1.969.716.563.046 1.082-.053 1.554-.298.445-.261.873-.652 1.283-1.173.409-.522.829-1.157 1.26-1.906.43-.75.766-1.433 1.01-2.049.243-.617.359-1.205.348-1.765-.081-1.08-.857-2.042-2.328-2.886zm-18.966 23.206 17.014-29.64 6.827 3.919c4.995 2.867 5.828 7.201 2.499 13.001-1.004 1.749-2.126 3.078-3.369 3.989-1.242.91-2.758 1.35-4.548 1.319l-3.187 16.158-4.496-2.581 3.31-14.925-2.54-1.458-7.264 12.655z"/><path d="m621.815 420.439 7.192-12.53 3.993-20.455 4.496 2.581-3.349 13.74.084.048 10.176-9.822 4.496 2.581-15.65 13.764-7.192 12.531z"/></g><g fill="#d0453b"><path d="m398.987 412.609-16.908-29.7 6.215-3.539c1.363-.775 2.643-1.228 3.84-1.357 1.196-.129 2.299-.02 3.306.327 1.008.347 1.901.897 2.68 1.651.779.753 1.445 1.616 1.999 2.59l.617 1.084c.46.807.785 1.524.976 2.151.192.627.281 1.221.268 1.781-.029 1.047-.372 2.126-1.029 3.237 1.27-.097 2.403.178 3.398.827.996.648 1.944 1.765 2.847 3.35l.95 1.669c1.488 2.614 1.995 4.976 1.521 7.087-.473 2.111-2.101 3.958-4.882 5.541zm-3.582-16.188 5.415 9.511 1.835-1.045c.862-.491 1.465-1 1.809-1.527.345-.527.515-1.085.512-1.672-.003-.588-.151-1.203-.443-1.847-.293-.643-.645-1.326-1.057-2.049-.427-.751-.841-1.381-1.241-1.89-.4-.508-.836-.886-1.308-1.133-.5-.231-1.037-.302-1.613-.214-.576.089-1.253.354-2.032.798zm-6.792-11.93 4.655 8.176 1.919-1.092c1.418-.808 2.169-1.705 2.252-2.691s-.264-2.16-1.04-3.523c-.759-1.335-1.601-2.182-2.523-2.54-.922-.359-2.092-.135-3.511.673z"/><path d="m406.384 374.375 5.272 9.26 2.419-1.377c.751-.428 1.289-.872 1.616-1.334.326-.462.503-.959.532-1.491.001-.516-.119-1.083-.361-1.7-.241-.618-.575-1.302-1.002-2.053-.428-.751-.846-1.387-1.254-1.91s-.855-.921-1.343-1.196c-.972-.478-2.195-.297-3.669.542zm10.373 28.118-16.908-29.701 6.841-3.894c5.006-2.85 9.163-1.369 12.472 4.443.997 1.752 1.573 3.395 1.727 4.927.155 1.532-.236 3.062-1.171 4.588l12.307 10.945-4.506 2.565-11.182-10.425-2.544 1.448 7.219 12.681z"/><path d="m434.653 392.305-16.909-29.7 4.255-2.423 16.908 29.701z"/><path d="m443.037 387.532-16.908-29.701 12.681-7.219 2.28 4.005-8.427 4.797 4.964 8.718 7.341-4.18 2.28 4.005-7.342 4.179 4.964 8.719 8.426-4.797 2.422 4.254z"/><path d="m458.471 378.745-16.908-29.7 12.681-7.219 2.28 4.004-8.426 4.797 5.129 9.01 7.342-4.179 2.279 4.004-7.341 4.18 7.219 12.681z"/></g><path d="m500.767 654.71-118.54-68.439c-1.723-.995-3.119-3.414-3.119-5.403v-136.878c0-1.99 1.396-4.409 3.119-5.404l118.54-68.439c1.723-.994 4.516-.994 6.239 0l118.54 68.439c1.723.995 3.12 3.414 3.12 5.404v136.878c0 1.989-1.397 4.408-3.12 5.403l-118.54 68.439c-1.723.995-4.516.995-6.239 0z" fill="#d9d7b7" stroke="#150f0f" stroke-linecap="butt" stroke-linejoin="round" stroke-width="8.01732"/><path d="m503.887 511.571 124.73-66.015v138.215l-124.779 71.685" fill-opacity=".3"/><path d="m383.494 445.556 120.344 66.015v143.028l-124.73-66.109" fill-opacity=".1"/><g fill="none" stroke-linecap="butt" stroke-linejoin="round"><path d="m503.838 529.118.049 126.338" stroke="#150f0f" stroke-width="3"/><path d="m503.887 511.571-.049 17.547" stroke="#000" stroke-opacity=".25" stroke-width="3"/><path d="m503.887 529.118v106.431" stroke="#150f0f" stroke-width="3"/><path d="m628.666 465.463-124.779 63.655" stroke="#150f0f" stroke-width="3"/><path d="m628.617 445.556-124.779 66.015" stroke="#000" stroke-opacity=".25" stroke-width="3"/><path d="m503.838 511.571-9.788-5.178-114.991-60.837" stroke="#000" stroke-opacity=".25" stroke-width="3"/><path d="m503.887 529.118-2.564-1.308-122.215-62.347" stroke="#150f0f" stroke-width="3"/><path d="m500.767 653.853-118.54-68.439c-1.723-.995-3.119-3.414-3.119-5.404v-136.878c0-1.989 1.396-4.408 3.119-5.403l118.54-68.439c1.723-.995 4.516-.995 6.239 0l118.54 68.439c1.723.995 3.12 3.414 3.12 5.403v136.878c0 1.99-1.397 4.409-3.12 5.404l-118.54 68.439c-1.723.994-4.516.994-6.239 0z" stroke="#150f0f" stroke-width="8.01732"/><path d="m499.212 722.536-175.763-101.476c-2.554-1.475-4.625-5.062-4.625-8.012v-202.954c0-2.949 2.071-6.536 4.625-8.011l175.763-101.477c2.555-1.475 6.697-1.475 9.251 0l175.763 101.477c2.555 1.475 4.626 5.062 4.626 8.011v202.954c0 2.95-2.071 6.537-4.626 8.012l-175.763 101.476c-2.554 1.475-6.696 1.475-9.251 0z" stroke="#224767" stroke-width="8.01732"/></g><g><path d="m564.759 515.851c-.118-.017-.254-.019-.374-.001l-.215-.002.006.035c-.982.128-1.94.815-2.682 2.091l-6.268 10.597c-1.714 2.913-1.758 7.697-.091 10.649l3.58 6.344c.833 1.476 1.938 2.208 3.055 2.224l6.041.009.104-7.319 3.21-5.44c1.714-2.913 1.745-7.696.077-10.65l-.569-1.008.106-7.534z" fill="#202b29"/><path d="m570.739 515.846-5.98.005c-.117-.018-.253-.019-.374-.001l-.215-.003.007.035c-.983.129-1.941.816-2.683 2.092l-6.268 10.597" fill="#2e3e3d"/><path d="m563.649 511.977c.572.381 1.075.934 1.469 1.631l4.752 8.42c.532.943.199 2.138-.743 2.67-.942.531-2.138.199-2.67-.743l-4.752-8.42c-.006-.011-.012-.022-.018-.032-.005.01-.012.019-.017.029z" fill="#202b29"/><path d="m559.41 527.588 4.753 8.42c.532.943.199 2.138-.744 2.67-.942.532-2.137.199-2.669-.744l-4.752-8.419c-.006-.011-.013-.022-.019-.032-.005.01-.012.019-.017.029" fill="#010101"/><path d="m561.77 547.788 6.041.009.104-7.319 3.21-5.44c1.714-2.913 1.745-7.696.077-10.65" fill="#ad594e"/><path d="m566.113 545.287 1.418 2.512-5.762-.011c-1.116-.016-2.221-.748-3.054-2.224l-3.581-6.343c-.542-.961-.903-2.114-1.074-3.342l12.175.114z" fill="#010101"/><path d="m567.68 518.009-6.24 10.589c-1.736 2.924-1.764 7.711-.103 10.655l3.581 6.343c1.658 2.938 4.415 2.986 6.151.06l6.24-10.587c1.742-2.917 1.77-7.704.111-10.643l-3.588-6.356c-1.658-2.938-4.408-2.973-6.152-.061z" fill="#3c4d4b"/><path d="m565.664 518.623c.943-.532 1.276-1.728.744-2.67l-4.749-8.413c-.582-1.032-.565-2.964.036-3.976l3.482-5.91c.006-.01.012-.019.018-.029.005.01.011.021.017.031l4.753 8.42c.532.943 1.727 1.275 2.669.743.943-.531 1.276-1.727.744-2.669l-4.753-8.42c-.792-1.404-2.021-2.219-3.375-2.236-1.355-.018-2.61.769-3.443 2.158l-3.486 5.916c-1.323 2.23-1.357 5.628-.076 7.899l4.749 8.413c.533.942 1.728 1.275 2.67.743z" fill="#699790"/><path d="m565.08 497.622 2.076-3.524c.573.382 1.075.934 1.469 1.632l4.753 8.42c.532.943.199 2.138-.744 2.669-.942.532-2.137.2-2.669-.743l-4.753-8.42c-.006-.01-.012-.021-.017-.031-.006.01-.012.019-.018.029l-.602 1.021c.145-.373.312-.727.505-1.053z" fill="#517871"/><path d="m573.832 518.07c-1.659-2.938-4.408-2.973-6.152-.061l-6.24 10.589c-1.736 2.924-1.764 7.711-.103 10.655l3.581 6.343" fill="#2e3e3d"/><path d="m567.954 531.667c-.526-.932-.511-2.446.032-3.367.544-.921 1.419-.913 1.945.019.305.54.427 1.277.37 1.981l1.748 3.097c.076.135.074.352-.004.485l-.928 1.573c-.079.132-.205.131-.28-.002l-1.75-3.1c-.406.082-.828-.145-1.133-.686z" fill="#517871"/><path d="m567.986 528.3c.212-.358.473-.574.744-.652.296.064.58.291.802.685.305.54.427 1.276.37 1.98l1.749 3.098c.075.134.074.352-.005.484l-.863 1.462-1.695-3.004c-.407.082-.829-.145-1.134-.685-.526-.932-.511-2.447.032-3.368zm-11.683.632c.449-.762 1.54-1.378 2.424-1.369.885.009 1.24.638.791 1.4-.45.762-1.54 1.378-2.425 1.369-.884-.009-1.24-.639-.79-1.4z" fill="#435c57"/></g><path d="m563.478 489.591 5.596-2.081-.055 13.733-5.541 2.205z" stroke="#000" stroke-linecap="butt" stroke-linejoin="miter" stroke-width="2"/><path d="m478.867 541.07c-.929-.871-1.93-1.545-3.004-2.022-1.073-.477-1.874-.703-2.404-.679s-.963.14-1.3.349-.65.708-.939 1.496c-.288.788-.351 1.627-.189 2.516.163.889.449 1.664.858 2.324s1.486 1.706 3.229 3.138c1.744 1.432 2.814 2.406 3.211 2.921.398.515.625.945.683 1.29.059.345-.092.666-.451.965s-1.03.22-2.013-.236c-.983-.457-1.741-1.053-2.275-1.788s-.836-1.348-.906-1.837c-.07-.49-.524-.97-1.36-1.442-.837-.471-1.328-.699-1.475-.684-.146.014-.225.139-.235.374-.01.234.078.751.262 1.551.185.799.516 1.584.994 2.354.477.77 1.101 1.525 1.872 2.266.77.741 1.862 1.435 3.274 2.082s2.31.967 2.693.957c.383-.009.906-.295 1.568-.857.662-.563 1.025-1.169 1.089-1.818s.027-1.274-.112-1.873c-.138-.6-.542-1.377-1.213-2.332-.67-.956-1.894-2.177-3.671-3.664-1.778-1.487-2.775-2.468-2.992-2.943-.216-.474-.292-.847-.225-1.116.066-.27.211-.474.436-.613.224-.14.749-.046 1.574.28.824.327 1.497.785 2.019 1.376.522.59.869 1.212 1.041 1.867.173.654.678 1.217 1.514 1.689.418.235.837.471 1.255.706.061-.152.122-.304.184-.456.122-.304.131-.729.026-1.273-.104-.545-.401-1.275-.891-2.189-.489-.915-1.198-1.808-2.127-2.679zm-11.159-6.332c-.588-.321-1.028-.467-1.321-.437-.293.029-.526 1.659-.701 4.889-.087 1.616-.174 3.231-.261 4.846-.732-2.059-1.465-4.118-2.197-6.177-1.465-4.118-2.532-6.465-3.2-7.04-.668-.576-1.273-.924-1.814-1.046-.271-.06-.542-.121-.813-.181-.111 2.392-.222 4.783-.333 7.175-.222 4.783-.293 7.302-.213 7.557.081.255.567.601 1.46 1.037.446.218.893.437 1.339.655.081-1.688.162-3.376.243-5.063.081-1.688.162-3.376.243-5.063.767 2.114 1.533 4.228 2.3 6.342 1.533 4.228 2.385 6.479 2.556 6.754.17.275.719.658 1.646 1.15.463.246.927.491 1.39.737.167-2.426.334-4.853.502-7.279.334-4.853.427-7.462.279-7.827-.149-.365-.517-.708-1.105-1.029zm-17.042-9.423c-1.143-.966-2.246-1.615-3.307-1.947s-1.991-.327-2.79.016c-.798.343-1.354.763-1.666 1.262-.313.499-.547 1.062-.701 1.691-.155.629-.154 1.885.003 3.768s.622 3.574 1.397 5.074c.774 1.5 1.53 2.593 2.266 3.278.736.686 1.523 1.265 2.36 1.736.836.471 1.525.767 2.067.888s1.032.16 1.471.116c.44-.044.912-.223 1.418-.536.505-.314.875-.657 1.11-1.031s.456-1.083.665-2.126c.208-1.043.235-2.317.08-3.82-.154-1.504-.636-3.033-1.444-4.587-.809-1.555-1.785-2.816-2.929-3.782zm28.484 46.308c-.895-.815-1.834-1.452-2.817-1.908-.983-.457-1.711-.691-2.184-.702-.474-.011-.935.123-1.385.402-.449.278-.796.722-1.041 1.331-.244.608-.302 1.33-.174 2.164.129.834.432 1.636.909 2.406.478.77 1.43 1.741 2.856 2.913 1.427 1.172 2.469 2.163 3.127 2.973s1.01 1.316 1.056 1.515c.047.2-.065.46-.333.779-.269.319-.674.418-1.216.297s-1.158-.425-1.848-.911-1.303-1.286-1.839-2.401c-.535-1.115-1.114-1.86-1.736-2.236s-1.062-.521-1.321-.437-.273.626-.042 1.625.664 1.949 1.3 2.849c.636.901 1.537 1.789 2.703 2.665 1.165.877 2.234 1.471 3.205 1.783s1.659.418 2.064.319.798-.343 1.179-.731c.381-.389.632-.925.752-1.609.121-.684.095-1.353-.078-2.008-.173-.654-.56-1.404-1.162-2.25-.602-.845-1.792-2.011-3.569-3.498-1.778-1.487-2.775-2.468-2.992-2.943-.216-.475-.207-.899.027-1.273.235-.374.685-.463 1.351-.267.667.197 1.237.49 1.713.88.475.391.849.806 1.122 1.246s.445.905.515 1.395c.07.489.569.98 1.496 1.471.463.246.927.492 1.39.737-.002-.379-.004-.759-.006-1.138-.004-.759-.285-1.651-.843-2.676s-1.284-1.946-2.179-2.762zm-27.764-41.385c.48 1.149.733 2.248.762 3.297.028 1.049-.063 1.905-.274 2.569-.21.663-.614 1.142-1.209 1.435-.596.293-1.295.232-2.098-.184-.802-.416-1.487-1.02-2.055-1.81s-.985-1.902-1.252-3.336-.33-2.537-.187-3.311c.142-.774.46-1.39.953-1.848.494-.458.994-.655 1.502-.588.507.066 1.157.424 1.95 1.075.792.651 1.428 1.551 1.908 2.701zm13.62 33.25c-3.041-1.77-4.725-2.667-5.052-2.693-.164-.013-.327-.026-.491-.039-.117 2.32-.234 4.639-.351 6.958-.234 4.639-.328 7.058-.282 7.258.046.199 1.776 1.297 5.191 3.292 1.707.997 3.415 1.995 5.122 2.992.06-.342.12-.683.18-1.025.121-.684.106-1.209-.042-1.573-.149-.365-1.398-1.19-3.75-2.473-2.351-1.284-3.55-2.025-3.596-2.225s-.049-.769-.009-1.708.116-1.443.228-1.513c.113-.069 1.181.525 3.205 1.783 1.013.629 2.025 1.258 3.037 1.887.078-.125.156-.25.234-.374.157-.25.205-.737.145-1.461-.061-.724-1.159-1.68-3.296-2.868-2.136-1.189-3.185-2.252-3.145-3.191.02-.469.04-.938.06-1.408 1.148.659 2.296 1.319 3.443 1.978 2.295 1.318 3.521 1.853 3.678 1.603.156-.249.204-.736.144-1.46s-1.611-1.971-4.653-3.74zm-26.886-44.673c-.419-.425-1.188-.976-2.308-1.653-1.119-.676-2.329-1.373-3.629-2.09s-2.097-1.061-2.39-1.031c-.292.029-.505 2.445-.637 7.249-.131 4.803-.129 7.315.007 7.535.137.22.634.521 1.493.902.429.191.859.382 1.288.572.012-.921.024-1.842.036-2.763.024-1.843.109-2.772.255-2.786.147-.015.78.316 1.899.993 1.12.676 1.873 1.39 2.26 2.139.387.75.579 1.812.575 3.185s.509 2.388 1.538 3.045c1.03.656 1.6.949 1.713.88.112-.07.06-.342-.157-.817s-.312-1.444-.286-2.907-.183-2.552-.626-3.267c-.222-.358-.444-.715-.666-1.073.281-.174.562-.348.843-.522.562-.348.909-.792 1.041-1.331s.14-1.153.024-1.843c-.117-.689-.42-1.491-.909-2.406-.49-.915-.944-1.585-1.364-2.011zm-.878 3.287c.207.709.193 1.251-.042 1.625s-.871.35-1.911-.072c-1.039-.421-1.824-.81-2.356-1.166-.532-.355-.79-1.148-.774-2.376.008-.614.016-1.228.024-1.843.43.191.859.382 1.288.573.859.381 1.65.842 2.375 1.383.724.541 1.189 1.166 1.396 1.876zm-15.691-12.888c-.837-.472-1.356-.683-1.559-.633-.203.049-1.093 2.125-2.671 6.226-1.579 4.101-1.887 6.425-.926 6.971.48.274.961.547 1.441.82.134-.349.267-.698.4-1.048.267-.698.485-1.1.653-1.204.169-.105.778.126 1.83.693 1.051.567 1.814 1.045 2.29 1.436.475.39.817 1.13 1.026 2.219s.794 1.907 1.755 2.453c.961.547 1.498.785 1.61.716.112-.07.122-.305.03-.705-.092-.399-.886-3.372-2.381-8.918-1.496-5.546-2.662-8.555-3.498-9.026zm27.786 45.37c-.447-.218-.893-.436-1.34-.654-.094 2.419-.188 4.838-.282 7.257-.188 4.839 1.273 8.197 4.383 10.077 1.555.94 3.11 1.879 4.664 2.819.072-.387.143-.774.214-1.16.142-.774.128-1.298-.042-1.573-.171-.275-1.296-1.025-3.377-2.248-2.08-1.223-3.024-3.684-2.829-7.384.194-3.7.234-5.704.119-6.014-.114-.31-.618-.683-1.51-1.12zm-8.276-4.692c-1.656-.915-3.312-1.83-4.969-2.745.026.479.051.959.076 1.438.05.959 1.098 2.023 3.145 3.191l3.069 1.752c-1.15.903-2.3 1.807-3.451 2.711-2.301 1.808-3.477 3.108-3.529 3.902s1.646 2.216 5.095 4.266c1.724 1.025 3.449 2.05 5.173 3.075.037-.442.074-.884.111-1.326.074-.883-1.008-2.002-3.247-3.355-1.12-.677-2.239-1.353-3.359-2.03 1.168-.876 2.335-1.752 3.503-2.629 2.335-1.752 3.545-2.998 3.631-3.737.087-.739.061-1.218-.075-1.438s-1.861-1.245-5.173-3.075zm-19.657-36.589c.203 1.017.405 2.033.608 3.05s.406 2.033.608 3.05c-.497-.301-.995-.602-1.492-.902-.995-.602-1.198-1.618-.609-3.05.295-.716.59-1.432.885-2.148zm-12.757-11.166c-.961-.547-1.526-.768-1.694-.663-.169.104-1.003 2.145-2.503 6.121-1.5 3.977-1.753 6.266-.758 6.867.498.301.995.602 1.493.902.172-.411.345-.823.517-1.234.173-.412.345-.824.518-1.235.588.321 1.175.642 1.763.962 1.176.642 1.939 1.121 2.29 1.436.351.316.631 1.018.84 2.107s.794 1.907 1.755 2.453c.961.547 1.48.757 1.559.633.078-.125-.626-3.078-2.111-8.859-1.485-5.78-2.708-8.944-3.669-9.49zm21.932 41.575c-2.792-1.619-4.459-2.49-5.001-2.611-.271-.06-.542-.121-.813-.181.037.434.073.869.109 1.303.072.869 1.177 1.898 3.313 3.086 1.069.594 2.137 1.188 3.205 1.783-1.111.841-2.222 1.682-3.334 2.524-2.222 1.683-3.395 2.676-3.517 2.981-.122.304-.153.818-.093 1.543.06.724 1.735 2.046 5.026 3.966 3.29 1.919 4.991 2.845 5.104 2.775.112-.07.132-.539.06-1.408-.073-.869-1.194-1.925-3.365-3.169-1.085-.621-2.171-1.243-3.256-1.864 1.15-.904 2.301-1.808 3.451-2.712 2.301-1.807 3.426-3.19 3.376-4.149-.051-.959-1.472-2.248-4.265-3.867zm29.345 46.003c-1.244-.752-1.922-1.093-2.034-1.023-.113.069-.606 1.594-1.48 4.573-.438 1.49-.875 2.979-1.312 4.469-.292-1.913-.584-3.826-.876-5.74-.584-3.826-.945-5.849-1.081-6.069-.137-.22-.765-.669-1.884-1.345-1.12-.677-1.781-.99-1.983-.941-.203.05-.399 2.304-.589 6.763-.19 4.458-.217 6.798-.081 7.018.137.22.606.538 1.409.954.401.208.802.417 1.203.625.071-1.643.141-3.286.211-4.928.07-1.643.14-3.286.21-4.929.286 1.841.572 3.682.858 5.523.572 3.681 1.328 5.84 2.267 6.476.469.318.938.637 1.408.955.471-1.435.942-2.87 1.414-4.304.471-1.435.942-2.869 1.413-4.304-.087 1.615-.174 3.231-.261 4.846-.174 3.23.118 5.143.877 5.739.758.596 1.256.897 1.492.902.119.003.237.006.355.009.106-2.275.212-4.549.318-6.823.213-4.549.267-6.906.165-7.071s-.775-.623-2.019-1.375zm-51.442-83.706c.22 1.044.439 2.088.659 3.132s.44 2.088.66 3.133c-.498-.301-.996-.602-1.493-.903-.995-.601-1.215-1.645-.659-3.132.277-.743.555-1.487.833-2.23zm13.584 32.815c-.712-.396-1.17-.569-1.372-.52-.203.05-.329 1.727-.379 5.033-.05 3.305-.192 5.145-.427 5.519-.234.374-.622.501-1.164.38s-1.084-.432-1.628-.933c-.544-.5-.924-.988-1.141-1.463-.216-.475-.295-2.482-.235-6.023.06-3.54-.256-5.553-.946-6.039s-1.198-.742-1.525-.767c-.164-.013-.327-.026-.491-.039-.025 1.653-.05 3.306-.075 4.959-.049 3.305.041 5.458.272 6.457s.715 2.031 1.454 3.097c.738 1.065 1.639 1.953 2.702 2.665 1.064.711 1.883 1.155 2.459 1.331s1.207.127 1.893-.146 1.145-.786 1.378-1.54c.232-.753.391-2.755.474-6.006.084-3.25.075-4.958-.027-5.123-.103-.165-.51-.446-1.222-.842zm20.049 40.23c-1.2-.931-2.342-1.518-3.425-1.76s-1.973-.109-2.669.398c-.696.508-1.165 1.446-1.405 2.814-.241 1.367-.251 2.668-.03 3.902s.73 2.556 1.526 3.966c.797 1.41 1.75 2.57 2.859 3.482 1.11.911 2.195 1.533 3.257 1.865 1.061.331 1.917.333 2.569.005s1.085-.634 1.297-.918c.213-.284.423-.948.632-1.991.208-1.043.207-2.299-.004-3.768-.21-1.468-.731-2.935-1.562-4.4s-1.846-2.663-3.045-3.595zm.834 4.167c.591 1.08.941 2.082 1.047 3.006.107.924.021 1.852-.255 2.785-.277.934-.629 1.495-1.056 1.683-.428.189-.884.206-1.37.05-.485-.156-.966-.429-1.441-.82-.476-.39-.969-.998-1.481-1.823-.511-.825-.855-1.755-1.029-2.789-.175-1.034-.18-1.983-.016-2.846.165-.864.455-1.462.87-1.796s.939-.43 1.571-.289c.632.142 1.168.38 1.61.715.441.336.958 1.044 1.55 2.124zm-34.669-51.955c-.702-.631-2.014-1.493-3.936-2.586s-2.939-1.604-3.052-1.535c-.112.07-.161 2.499-.146 7.288.014 4.789.468 7.402 1.361 7.838.446.218.893.437 1.339.655.035-.822.07-1.643.105-2.464.035-.822.07-1.643.105-2.464l2.001 1.158c1.334.772 2.21 1.18 2.627 1.226.418.046.823-.053 1.216-.297.393-.243.673-.607.84-1.091.166-.484.247-1.106.243-1.865s-.092-1.466-.265-2.12c-.173-.655-.446-1.285-.822-1.89-.375-.605-.914-1.223-1.616-1.853zm-.662 2.695c.342.55.53 1.042.566 1.477.037.434-.035.821-.213 1.16-.179.339-.663.373-1.454.102-.79-.272-1.44-.63-1.95-1.076-.509-.445-.711-1.272-.605-2.48.053-.604.106-1.209.16-1.813.497.301.995.602 1.492.903.995.601 1.663 1.177 2.004 1.727zm22.167 38.002c-.736-.685-1.415-1.216-2.037-1.592s-1.249-.634-1.881-.776c-.632-.141-1.319-.058-2.061.25s-1.302 1.036-1.679 2.184-.488 2.473-.334 3.977c.155 1.503.569 2.922 1.241 4.257s1.41 2.4 2.215 3.196c.804.795 1.518 1.381 2.14 1.757.621.376 1.248.635 1.88.776s1.274.048 1.926-.281c.652-.328 1.128-.814 1.429-1.457.301-.644-.001-1.256-.906-1.837-.904-.581-1.558-.633-1.962-.154-.403.478-1.017.554-1.841.228-.825-.327-1.544-.985-2.158-1.975s-.981-2.209-1.102-3.658c-.12-1.448-.069-2.432.153-2.951.223-.518.475-.865.756-1.039.28-.174.629-.238 1.047-.192.417.045.926.301 1.525.767.6.466 1.151 1.228 1.653 2.288.501 1.06 1.17 1.825 2.007 2.297.418.235.837.471 1.255.706.01-.234.02-.469.03-.704.02-.469-.084-1.013-.313-1.633s-.599-1.342-1.111-2.167c-.511-.825-1.135-1.581-1.872-2.267zm-12.234 3.013c-.174.032-.879.747-1.172 1.076-.315.419-.008 2.079.162 2.354.062.099.192.297.554.672.307.317.967.406.967.406s.445.05.796-.657c.118-.237.518-1.796.301-2.271-.216-.475-1.259-1.644-1.608-1.58z" fill="#d0453b" fill-opacity=".5"/></svg>